<?xml version="1.0" encoding="UTF-8"?><svg id="uuid-e42682e0-df36-4e42-b802-e7b71baaacde" xmlns="http://www.w3.org/2000/svg" viewBox="0 0 500 200"><path d="m118.94,92.07c-1.03-.66-2.22-.99-3.56-.99s-2.52.33-3.56.99c-1.03.66-1.84,1.63-2.42,2.92-.58,1.28-.87,2.86-.87,4.73s.29,3.45.87,4.73,1.38,2.26,2.42,2.92c1.03.66,2.22.99,3.56.99s2.52-.33,3.56-.99,1.84-1.63,2.42-2.92c.58-1.28.87-2.86.87-4.73s-.29-3.45-.87-4.73-1.38-2.26-2.42-2.92Z" style="fill:#fff; stroke-width:0px;"/><path d="m157.29,92.19c-1.13-.63-2.53-.93-4.19-.93h-3.81v16.9h3.67c1.72,0,3.15-.32,4.3-.94s2.01-1.57,2.59-2.82c.57-1.25.87-2.82.87-4.71s-.29-3.45-.87-4.7c-.57-1.24-1.44-2.17-2.56-2.8Z" style="fill:#fff; stroke-width:0px;"/><path d="m91.2,98.85c.71-.31,1.23-.76,1.57-1.35s.51-1.33.51-2.21-.17-1.62-.52-2.25c-.35-.63-.87-1.1-1.58-1.42s-1.62-.48-2.74-.48h-4.09v8.17h4.12c1.11,0,2.02-.15,2.72-.46h.01Z" style="fill:#fff; stroke-width:0px;"/><path d="m100,0C44.77,0,0,44.77,0,100s44.77,100,100,100,100-44.77,100-100S155.23,0,100,0ZM33.92,112.02h-15.3v-24.62h4.46v20.88h10.85v3.73h-.01Zm11.03,0h-4.46v-24.62h4.46v24.62Zm20.12,0h-5.5l-8.67-24.62h4.89l6.4,19.37h.26l6.39-19.37h4.9s-8.68,24.62-8.68,24.62Zm28.46,0l-4.84-9.02h-4.53v9.02h-4.46v-24.62h9.23c1.89,0,3.48.33,4.77.98s2.26,1.58,2.92,2.76.99,2.55.99,4.13-.34,2.94-1,4.1-1.66,2.05-2.95,2.68c-.15.07-.32.12-.48.19l5.33,9.76h-4.97Zm31.4-5.5c-.99,1.89-2.33,3.33-4.04,4.33s-3.63,1.5-5.79,1.5-4.08-.5-5.79-1.51-3.05-2.45-4.04-4.34c-.99-1.89-1.48-4.15-1.48-6.8s.49-4.92,1.48-6.81c.99-1.89,2.33-3.33,4.04-4.33s3.63-1.5,5.79-1.5,4.08.5,5.79,1.5,3.05,2.44,4.04,4.33,1.48,4.15,1.48,6.81-.49,4.92-1.48,6.81h0Zm38.4-.23c-.95,1.85-2.31,3.26-4.1,4.25s-3.93,1.48-6.43,1.48h-8.34v-24.62h8.51c2.45,0,4.54.49,6.3,1.48s3.11,2.39,4.05,4.23c.94,1.84,1.42,4.03,1.42,6.58s-.47,4.77-1.42,6.62h0Zm8.36,5.72v-24.62h16.01v3.73h-11.55v6.69h10.72v3.73h-10.72v6.72h11.64v3.73h-16.1Z" style="fill:#fff; stroke-width:0px;"/><path d="m211,112.03v-24.62h10.19c1.85,0,3.45.33,4.79.99s2.38,1.61,3.12,2.84,1.1,2.69,1.1,4.37-.37,3.16-1.12,4.35-1.81,2.09-3.18,2.72-3.01.93-4.88.93h-6.44v-4.69h5.33c.9,0,1.65-.12,2.26-.36s1.07-.59,1.38-1.08.47-1.11.47-1.87-.15-1.39-.47-1.9-.78-.88-1.38-1.13-1.36-.38-2.26-.38h-2.94v19.82h-5.97Zm13.89-11.25l6.14,11.25h-6.5l-6.02-11.25h6.39-.01Z" style="fill:#fff; stroke-width:0px;"/><path d="m235.15,112.03v-24.62h17.21v4.83h-11.24v5.05h10.36v4.84h-10.36v5.06h11.24v4.83h-17.21Z" style="fill:#fff; stroke-width:0px;"/><path d="m280.19,96.33h-6.02c-.08-.62-.25-1.17-.49-1.67s-.57-.92-.98-1.27-.89-.63-1.46-.81-1.18-.29-1.85-.29c-1.2,0-2.23.3-3.09.88s-1.53,1.43-1.99,2.53-.7,2.44-.7,4.01.24,3.01.71,4.1,1.13,1.93,1.99,2.49,1.87.83,3.05.83c.66,0,1.26-.08,1.81-.26s1.02-.41,1.44-.74.76-.72,1.03-1.19.45-.99.56-1.59l6.02.04c-.1,1.09-.42,2.16-.94,3.22s-1.25,2.02-2.16,2.89-2.03,1.56-3.34,2.07-2.82.77-4.51.77c-2.24,0-4.24-.49-5.99-1.48s-3.16-2.41-4.17-4.3-1.53-4.17-1.53-6.87.52-5.01,1.56-6.88,2.44-3.31,4.21-4.29,3.74-1.47,5.94-1.47c1.5,0,2.87.21,4.14.62s2.39,1.02,3.35,1.81,1.74,1.75,2.35,2.9.97,2.45,1.12,3.93h-.03Z" style="fill:#fff; stroke-width:0px;"/><path d="m285.28,112.03v-24.62h5.97v19.78h10.27v4.83h-16.24Z" style="fill:#fff; stroke-width:0px;"/><path d="m311.94,112.03h-6.41l8.33-24.62h7.94l8.33,24.62h-6.41l-5.79-18.41h-.19l-5.78,18.41h0Zm-.85-9.69h13.39v4.52h-13.39v-4.52Z" style="fill:#fff; stroke-width:0px;"/><path d="m334.49,87.41h7.38l6.27,15.24h.29l6.27-15.24h7.38v24.62h-5.81v-15.12h-.21l-5.93,14.96h-3.71l-5.93-15.05h-.21v15.2h-5.81v-24.62h0Z" style="fill:#fff; stroke-width:0px;"/><path d="m372.85,112.03h-6.41l8.33-24.62h7.94l8.33,24.62h-6.41l-5.79-18.41h-.19l-5.78,18.41h0Zm-.85-9.69h13.39v4.52h-13.39v-4.52Z" style="fill:#fff; stroke-width:0px;"/><path d="m416.63,96.33h-6.02c-.08-.62-.25-1.17-.49-1.67s-.57-.92-.98-1.27-.89-.63-1.46-.81-1.18-.29-1.85-.29c-1.2,0-2.23.3-3.09.88s-1.53,1.43-1.99,2.53-.7,2.44-.7,4.01.24,3.01.71,4.1,1.13,1.93,1.99,2.49,1.87.83,3.05.83c.66,0,1.26-.08,1.81-.26s1.02-.41,1.44-.74.76-.72,1.03-1.19.45-.99.56-1.59l6.02.04c-.1,1.09-.42,2.16-.94,3.22s-1.25,2.02-2.16,2.89-2.03,1.56-3.34,2.07-2.82.77-4.51.77c-2.24,0-4.24-.49-5.99-1.48s-3.16-2.41-4.17-4.3-1.53-4.17-1.53-6.87.52-5.01,1.56-6.88,2.44-3.31,4.21-4.29,3.74-1.47,5.94-1.47c1.5,0,2.87.21,4.14.62s2.39,1.02,3.35,1.81,1.74,1.75,2.35,2.9.97,2.45,1.12,3.93h-.03Zm-12.26,15.57h2.36l-.19,1.08c.88.12,1.59.45,2.12.95s.8,1.17.81,1.99c0,1.25-.58,2.24-1.78,2.96s-2.87,1.09-5.01,1.09l-.02-2.42c1.1,0,1.95-.12,2.55-.37s.91-.63.94-1.13c.02-.46-.15-.83-.54-1.11s-.98-.47-1.79-.57l.56-2.47h-.01Z" style="fill:#fff; stroke-width:0px;"/><path d="m445.01,99.72c0,2.71-.52,5.01-1.57,6.88s-2.45,3.31-4.24,4.29-3.77,1.47-5.98,1.47-4.22-.49-5.99-1.48-3.18-2.42-4.23-4.3-1.56-4.16-1.56-6.87.52-5.01,1.56-6.88,2.45-3.31,4.23-4.29,3.77-1.47,5.99-1.47,4.21.49,5.98,1.47,3.19,2.41,4.24,4.29,1.57,4.17,1.57,6.88h0Zm-15.15-14.73h-3.06c0-1.65.39-2.88,1.16-3.71s1.72-1.25,2.85-1.25c.58,0,1.09.09,1.51.29s.8.41,1.13.66.64.47.91.66.58.29.9.29c.46,0,.81-.16,1.03-.5s.34-.79.34-1.35l3.02.04c-.02,1.61-.41,2.84-1.19,3.68s-1.71,1.27-2.82,1.29c-.62,0-1.13-.08-1.55-.28s-.79-.41-1.1-.66-.61-.47-.88-.66-.59-.29-.92-.29c-.4,0-.72.16-.96.48s-.36.77-.36,1.34v-.03Zm9.05,14.73c0-1.6-.23-2.95-.68-4.06s-1.11-1.94-1.95-2.51-1.87-.85-3.06-.85-2.19.29-3.05.85-1.51,1.41-1.96,2.51-.68,2.46-.68,4.06.23,2.95.68,4.06,1.11,1.94,1.96,2.51,1.87.85,3.05.85,2.21-.29,3.06-.85,1.5-1.41,1.95-2.51.68-2.46.68-4.06Z" style="fill:#fff; stroke-width:0px;"/><path d="m450.18,112.03v-24.62h17.21v4.83h-11.24v5.05h10.36v4.84h-10.36v5.06h11.24v4.83h-17.21Z" style="fill:#fff; stroke-width:0px;"/><path d="m486.15,94.79c-.08-.88-.43-1.57-1.07-2.06s-1.53-.74-2.7-.74c-.77,0-1.42.1-1.93.3s-.9.47-1.16.82-.39.75-.4,1.2c-.02.37.06.7.23.97s.41.52.72.74.7.4,1.15.55.95.3,1.52.42l2.12.48c1.22.27,2.3.62,3.23,1.06s1.72.96,2.36,1.58,1.12,1.31,1.46,2.1.5,1.68.5,2.67c0,1.56-.4,2.89-1.18,4s-1.9,1.97-3.35,2.56-3.21.89-5.27.89-3.87-.31-5.39-.92-2.73-1.56-3.58-2.81-1.29-2.85-1.31-4.77h5.71c.05.79.26,1.46.64,1.98s.9.93,1.56,1.2,1.44.41,2.31.41c.8,0,1.49-.11,2.05-.33s1.01-.51,1.3-.9.46-.82.47-1.32c0-.46-.15-.86-.43-1.2s-.72-.63-1.29-.86-1.32-.47-2.23-.68l-2.57-.61c-2.13-.49-3.82-1.28-5.05-2.37s-1.84-2.57-1.84-4.44c0-1.52.4-2.86,1.23-4s1.97-2.04,3.44-2.68,3.13-.96,5.01-.96,3.57.32,4.98.96,2.5,1.55,3.28,2.71,1.18,2.51,1.19,4.04h-5.71.01Z" style="fill:#fff; stroke-width:0px;"/></svg>