<?xml version="1.0" standalone="no"?>
<!DOCTYPE svg PUBLIC "-//W3C//DTD SVG 20010904//EN"
 "http://www.w3.org/TR/2001/REC-SVG-20010904/DTD/svg10.dtd">
<svg version="1.0" xmlns="http://www.w3.org/2000/svg"
 width="750.000000pt" height="750.000000pt" viewBox="0 0 750.000000 750.000000"
 preserveAspectRatio="xMidYMid meet">
<metadata>
Created by potrace 1.14, written by Peter Selinger 2001-2017
</metadata>
<g transform="translate(0.000000,750.000000) scale(0.100000,-0.100000)"
fill="#000000" stroke="none">
<path d="M3475 6493 c-527 -56 -1025 -259 -1438 -585 -131 -104 -341 -314
-445 -445 -295 -373 -479 -790 -564 -1279 -20 -115 -23 -163 -23 -434 0 -271
3 -319 23 -434 55 -317 136 -560 276 -831 134 -261 285 -466 500 -681 419
-419 910 -671 1512 -776 115 -20 163 -23 434 -23 335 0 424 10 679 75 762 193
1407 706 1767 1405 140 271 221 514 276 831 20 115 23 163 23 434 0 271 -3
319 -23 434 -55 317 -136 560 -276 831 -134 261 -285 466 -500 681 -417 418
-913 672 -1507 775 -103 18 -172 22 -399 24 -151 2 -293 1 -315 -2z m381
-1291 c53 -27 93 -68 118 -122 20 -44 21 -61 24 -562 l3 -518 492 0 c271 0
509 -3 530 -6 65 -11 136 -63 171 -124 72 -127 21 -281 -114 -344 -44 -20 -61
-21 -562 -24 l-518 -3 0 -492 c0 -271 -3 -509 -6 -530 -11 -65 -63 -136 -124
-171 -127 -72 -281 -21 -344 114 -20 44 -21 61 -24 563 l-3 517 -492 0 c-271
0 -509 3 -530 6 -65 11 -136 63 -171 124 -72 127 -21 281 114 344 44 20 61 21
562 24 l517 3 3 522 3 522 30 54 c63 115 208 161 321 103z"/>
</g>
</svg>
