<svg width="50" height="50" viewBox="0 0 50 50" fill="none" xmlns="http://www.w3.org/2000/svg">
<g clip-path="url(#clip0_7129_16944)">
<path d="M6.94 0.25H43.05C46.74 0.25 49.74 3.25 49.74 6.94V43.05C49.74 46.74 46.74 49.74 43.05 49.74H6.94C3.25 49.74 0.25 46.74 0.25 43.05V6.94C0.25 3.25 3.25 0.25 6.94 0.25Z" fill="#F0F0F0"/>
<path d="M43.06 0.5C46.61 0.5 49.5 3.39 49.5 6.94V43.05C49.5 46.6 46.61 49.49 43.06 49.49H6.94C3.39 49.49 0.5 46.6 0.5 43.05V6.94C0.5 3.39 3.39 0.5 6.94 0.5H43.05M43.06 0H6.94C3.12 0 0 3.12 0 6.94V43.05C0 46.87 3.12 49.99 6.94 49.99H43.05C46.87 49.99 49.99 46.87 49.99 43.05V6.94C50 3.12 46.88 0 43.06 0Z" fill="#E6E6F0"/>
<path d="M20.2602 41.1599C13.2702 39.1099 8.16016 32.6499 8.16016 24.9999C8.16016 15.6999 15.7002 8.16992 24.9902 8.16992C34.2802 8.16992 41.8202 15.7099 41.8202 24.9999C41.8202 32.6499 36.7102 39.1099 29.7202 41.1599" stroke="#9696A0" stroke-linecap="round" stroke-linejoin="round"/>
<path d="M25.0008 36.4195C25.9397 36.4195 26.7008 35.6584 26.7008 34.7195C26.7008 33.7806 25.9397 33.0195 25.0008 33.0195C24.0619 33.0195 23.3008 33.7806 23.3008 34.7195C23.3008 35.6584 24.0619 36.4195 25.0008 36.4195Z" stroke="#9696A0" stroke-linecap="round" stroke-linejoin="round"/>
<path d="M25 17.0898V33.0198" stroke="#9696A0" stroke-linecap="round" stroke-linejoin="round"/>
<path d="M33.1211 18.3496L36.7411 15.3496" stroke="#9696A0" stroke-linecap="round" stroke-linejoin="round"/>
<path d="M13.3711 34.7205L16.9711 31.7305" stroke="#9696A0" stroke-linecap="round" stroke-linejoin="round"/>
<path d="M34.9297 21.2301L39.2197 19.5801" stroke="#9696A0" stroke-linecap="round" stroke-linejoin="round"/>
<path d="M10.8906 30.4898L15.1706 28.8398" stroke="#9696A0" stroke-linecap="round" stroke-linejoin="round"/>
<path d="M35.5391 24.4998L40.2091 24.2598" stroke="#9696A0" stroke-linecap="round" stroke-linejoin="round"/>
<path d="M9.89844 25.8103L14.5684 25.5703" stroke="#9696A0" stroke-linecap="round" stroke-linejoin="round"/>
<path d="M35.1797 27.8008L39.6997 29.0308" stroke="#9696A0" stroke-linecap="round" stroke-linejoin="round"/>
<path d="M10.4102 21.0391L14.9402 22.2791" stroke="#9696A0" stroke-linecap="round" stroke-linejoin="round"/>
<path d="M33.8086 30.8398L37.7086 33.4198" stroke="#9696A0" stroke-linecap="round" stroke-linejoin="round"/>
<path d="M12.4102 16.6504L16.3202 19.2404" stroke="#9696A0" stroke-linecap="round" stroke-linejoin="round"/>
<path d="M19.5781 10.8809L21.3081 15.3509" stroke="#9696A0" stroke-linecap="round" stroke-linejoin="round"/>
<path d="M28.9492 10.3594L27.6992 15.0694" stroke="#9696A0" stroke-linecap="round" stroke-linejoin="round"/>
<path d="M24.2109 9.88086L24.4709 14.5709" stroke="#9696A0" stroke-linecap="round" stroke-linejoin="round"/>
<path d="M31.6719 33.1992L34.6119 36.8292" stroke="#9696A0" stroke-linecap="round" stroke-linejoin="round"/>
<path d="M15.5 13.2402L18.46 16.9002" stroke="#9696A0" stroke-linecap="round" stroke-linejoin="round"/>
<path d="M19.2502 33.7891L16.6602 37.6791" stroke="#9696A0" stroke-linecap="round" stroke-linejoin="round"/>
<path d="M33.4498 12.3906L30.8398 16.3106" stroke="#9696A0" stroke-linecap="round" stroke-linejoin="round"/>
</g>
<defs>
<clipPath id="clip0_7129_16944">
<rect width="50" height="50" fill="white"/>
</clipPath>
</defs>
</svg>
