<svg width="24" height="24" viewBox="0 0 24 24" fill="none" xmlns="http://www.w3.org/2000/svg">
<g clip-path="url(#clip0_93_309)">
<path d="M12 24C18.6274 24 24 18.6274 24 12C24 5.37258 18.6274 0 12 0C5.37258 0 0 5.37258 0 12C0 18.6274 5.37258 24 12 24Z" fill="#054B8C"/>
<path d="M7.55997 16.4775H13.38C13.845 16.4775 14.22 16.8525 14.22 17.3175V17.9775H6.71997V17.3175C6.71997 16.8525 7.09497 16.4775 7.55997 16.4775Z" fill="white"/>
<path d="M6.21748 17.9775H14.73C15.2775 17.9775 15.72 18.42 15.72 18.9675V19.4775H5.22748V18.9675C5.22748 18.42 5.66998 17.9775 6.21748 17.9775Z" fill="white"/>
<path d="M12.6793 8.85913L13.7718 7.76665L20.7828 14.7776C21.0851 15.0799 21.0851 15.5678 20.7828 15.8701C20.4805 16.1724 19.9926 16.1724 19.6903 15.8701L12.6793 8.85913Z" fill="white"/>
<path d="M12.81 4.7475C11.43 5.4375 10.32 6.555 9.63 7.9275L12.285 10.5825C13.665 9.8925 14.775 8.775 15.465 7.4025L12.81 4.7475Z" fill="white"/>
<path d="M8.56499 8.99988C8.2721 8.70699 7.79722 8.70699 7.50433 8.99988C7.21144 9.29278 7.21144 9.76765 7.50433 10.0605L10.2196 12.7758C10.5125 13.0687 10.9874 13.0687 11.2803 12.7758C11.5732 12.4829 11.5732 12.0081 11.2803 11.7152L8.56499 8.99988Z" fill="white"/>
<path d="M14.925 2.62738C14.6321 2.33448 14.1573 2.33448 13.8644 2.62738C13.5715 2.92027 13.5715 3.39514 13.8644 3.68804L16.5797 6.40333C16.8726 6.69622 17.3474 6.69622 17.6403 6.40333C17.9332 6.11043 17.9332 5.63556 17.6403 5.34267L14.925 2.62738Z" fill="white"/>
</g>
<defs>
<clipPath id="clip0_93_309">
<rect width="24" height="24" fill="white"/>
</clipPath>
</defs>
</svg>
