<svg width="24" height="24" viewBox="0 0 24 24" fill="none" xmlns="http://www.w3.org/2000/svg">
<g clip-path="url(#clip0_93_310)">
<path d="M12 24C18.6274 24 24 18.6274 24 12C24 5.37258 18.6274 0 12 0C5.37258 0 0 5.37258 0 12C0 18.6274 5.37258 24 12 24Z" fill="#E43C2F"/>
<path d="M12.0038 7.56906V5.9906H12.3646C12.5826 5.9906 12.7554 5.81773 12.7554 5.59975V4.87817C12.7554 4.66019 12.5826 4.48732 12.3646 4.48732H12.0038C12.0038 3.66051 11.3273 2.98403 10.5005 2.98403C9.67369 2.98403 8.99721 3.66051 8.99721 4.48732C8.99721 4.59255 9.00472 4.69778 9.02727 4.79549L5.59978 6.84748C5.2465 7.05794 5.12624 7.52396 5.34422 7.87723C5.48703 8.11024 5.73507 8.24554 5.99063 8.24554C6.11841 8.24554 6.25371 8.20795 6.37397 8.14031L10.0721 5.92296C10.2074 5.96054 10.3502 5.9906 10.5005 5.9906V7.56906C8.78675 7.91481 7.49392 9.43314 7.49392 11.2521V18.6107C7.49392 19.1143 7.89981 19.5202 8.40341 19.5202H14.1009C14.6045 19.5202 15.0104 19.1143 15.0104 18.6107V11.2521C15.0104 9.43314 13.7175 7.91481 12.0038 7.56906ZM10.4855 5.23144C10.0796 5.23144 9.75637 4.90072 9.74885 4.49483C9.74885 4.49483 9.74885 4.48732 9.74885 4.4798C9.74885 4.0664 10.0871 3.72816 10.5005 3.72816C10.9139 3.72816 11.2521 4.0664 11.2521 4.4798C11.2521 4.8932 10.9139 5.23144 10.5005 5.23144C10.5005 5.23144 10.493 5.23144 10.4855 5.23144ZM10.5005 17.2653C10.5005 17.6787 10.1623 18.0169 9.74885 18.0169C9.33545 18.0169 8.99721 17.6787 8.99721 17.2653V11.2521C8.99721 10.8387 9.33545 10.5005 9.74885 10.5005C10.1623 10.5005 10.5005 10.8387 10.5005 11.2521V17.2653Z" fill="white"/>
<path d="M18.077 3.84842L14.2587 4.48732V5.9906L18.077 6.6295C18.4378 6.68963 18.7685 6.41153 18.7685 6.04322V4.4347C18.7685 4.0664 18.4378 3.78829 18.077 3.84842Z" fill="white"/>
</g>
<defs>
<clipPath id="clip0_93_310">
<rect width="24" height="24" fill="white"/>
</clipPath>
</defs>
</svg>
