<svg width="24" height="24" viewBox="0 0 24 24" fill="none" xmlns="http://www.w3.org/2000/svg">
<g clip-path="url(#clip0_93_264)">
<path d="M12 24C18.6274 24 24 18.6274 24 12C24 5.37258 18.6274 0 12 0C5.37258 0 0 5.37258 0 12C0 18.6274 5.37258 24 12 24Z" fill="#054B8C"/>
<path d="M4.36498 10.4775H8.22748V17.9775H4.35748C4.01248 17.9775 3.72748 17.7 3.72748 17.3475V11.115C3.72748 10.7625 4.01248 10.4775 4.36498 10.4775Z" fill="white"/>
<path d="M15.7275 10.4775H19.6725C19.98 10.4775 20.2275 10.725 20.2275 11.0325V17.4675C20.2275 17.7525 19.995 17.985 19.71 17.985H15.7275V10.485V10.4775Z" fill="white"/>
<path d="M8.91748 4.4775H15.03C15.4125 4.4775 15.7275 4.7925 15.7275 5.175V17.9775H8.22748V5.1675C8.22748 4.785 8.54248 4.47 8.92498 4.47L8.91748 4.4775Z" fill="white"/>
<path d="M12.7275 5.9775H11.2275V10.4775H12.7275V5.9775Z" fill="#054B8C"/>
<path d="M14.22 8.9775V7.4775H9.71997V8.9775H14.22Z" fill="#054B8C"/>
<path d="M11.91 14.9775H12.0375C12.4125 14.9775 12.72 15.285 12.72 15.66V18.7275H11.22V15.66C11.22 15.285 11.5275 14.9775 11.9025 14.9775H11.91Z" fill="#054B8C"/>
<path d="M6.72748 11.9775H5.22748V13.4775H6.72748V11.9775Z" fill="#054B8C"/>
<path d="M9.72748 11.9775H8.22748V13.4775H9.72748V11.9775Z" fill="#054B8C"/>
<path d="M9.72748 14.9775H8.22748V16.4775H9.72748V14.9775Z" fill="#054B8C"/>
<path d="M6.72748 14.9775H5.22748V16.4775H6.72748V14.9775Z" fill="#054B8C"/>
<path d="M18.7275 11.9775H17.2275V13.4775H18.7275V11.9775Z" fill="#054B8C"/>
<path d="M18.7275 14.9775H17.2275V16.4775H18.7275V14.9775Z" fill="#054B8C"/>
<path d="M15.7275 11.9775H14.2275V13.4775H15.7275V11.9775Z" fill="#054B8C"/>
<path d="M12.7275 11.9775H11.2275V13.4775H12.7275V11.9775Z" fill="#054B8C"/>
<path d="M15.7275 14.9775H14.2275V16.4775H15.7275V14.9775Z" fill="#054B8C"/>
</g>
<defs>
<clipPath id="clip0_93_264">
<rect width="24" height="24" fill="white"/>
</clipPath>
</defs>
</svg>
