<svg width="24" height="24" viewBox="0 0 24 24" fill="none" xmlns="http://www.w3.org/2000/svg">
<g clip-path="url(#clip0_93_308)">
<path d="M12 24C18.6274 24 24 18.6274 24 12C24 5.37258 18.6274 0 12 0C5.37258 0 0 5.37258 0 12C0 18.6274 5.37258 24 12 24Z" fill="#054B8C"/>
<path d="M18.9525 15.075L18.8775 15.045C14.415 13.41 9.52499 13.41 5.06249 15.045L4.98749 15.075V16.3575L5.06249 16.3275C9.52499 14.6925 14.415 14.6925 18.8775 16.3275L18.9525 16.3575V15.075Z" fill="white"/>
<path d="M7.61998 7.9125L4.38748 9.6525C3.98248 9.87 3.72748 10.2975 3.72748 10.755C3.72748 11.085 3.86248 11.4075 4.09498 11.64L4.10998 11.655C4.67998 12.225 4.99498 12.9975 4.99498 13.8L5.06998 13.77C9.53248 12.135 14.4225 12.135 18.885 13.77L18.96 13.8C18.96 12.9975 19.2825 12.225 19.845 11.655L19.86 11.64C20.0925 11.4075 20.2275 11.085 20.2275 10.755C20.2275 10.29 19.9725 9.87 19.5675 9.6525L16.335 7.9125C13.62 6.45 10.3425 6.45 7.62748 7.9125H7.61998Z" fill="white"/>
<path d="M13.5675 9.9075C13.455 9.6375 13.3425 9.2175 13.455 8.7525C13.5 8.55 13.32 8.355 13.11 8.4075C12.7575 8.49 12.3225 8.49 11.9775 8.1525C11.625 8.4975 11.19 8.4975 10.845 8.4075C10.635 8.355 10.455 8.55 10.5 8.7525C10.605 9.2175 10.5 9.6375 10.3875 9.9075C10.275 10.185 10.23 10.485 10.3125 10.77C10.65 11.9175 11.985 11.9175 11.985 11.9175C11.985 11.9175 13.32 11.9175 13.6575 10.77C13.74 10.485 13.695 10.185 13.5825 9.9075H13.5675ZM12.6075 10.8375L11.97 10.5L11.3325 10.8375L11.4525 10.1325L10.935 9.63L11.6475 9.525L11.9625 8.88L12.2775 9.525L12.99 9.63L12.4725 10.1325L12.5925 10.8375H12.6075Z" fill="#054B8C"/>
</g>
<defs>
<clipPath id="clip0_93_308">
<rect width="24" height="24" fill="white"/>
</clipPath>
</defs>
</svg>
