<svg width="24" height="24" viewBox="0 0 24 24" fill="none" xmlns="http://www.w3.org/2000/svg">
<g clip-path="url(#clip0_58_9775)">
<path d="M12 24C18.6274 24 24 18.6274 24 12C24 5.37258 18.6274 0 12 0C5.37258 0 0 5.37258 0 12C0 18.6274 5.37258 24 12 24Z" fill="#FFDD00"/>
<path d="M8.22754 15.3525V18.7275H15.7275V13.4775H8.22754V15.3525ZM14.9775 17.9775H8.97754V16.1025H10.1025V16.4775C10.1025 16.6875 10.2675 16.8525 10.4775 16.8525C10.6875 16.8525 10.8525 16.6875 10.8525 16.4775V16.1025H14.9775V17.9775ZM14.9775 14.2275V15.3525H8.97754V14.2275H14.9775Z" fill="black" stroke="black" stroke-width="0.25" stroke-miterlimit="10"/>
<path d="M9.35254 11.2275C9.35254 9.77999 10.53 8.60249 11.9775 8.60249C13.425 8.60249 14.6025 9.77999 14.6025 11.2275V11.9775H15.3525V11.2275C15.3525 9.36749 13.8375 7.85249 11.9775 7.85249C10.1175 7.85249 8.60254 9.36749 8.60254 11.2275V11.9775H9.35254V11.2275Z" fill="black" stroke="black" stroke-width="0.25" stroke-miterlimit="10"/>
<path d="M19.4775 6.35249V5.22749L16.8225 2.57249L16.29 3.10499L13.8525 5.53499C13.26 5.33999 12.6225 5.22749 11.9625 5.22749C11.3025 5.22749 10.6725 5.33999 10.08 5.53499L7.64252 3.10499L7.11002 2.57249L4.46252 5.22749V6.35249C4.46252 7.91249 5.00252 9.42749 5.98502 10.635C5.97002 10.83 5.95502 11.0175 5.95502 11.22V20.97H17.955V11.22C17.955 11.025 17.9475 10.83 17.925 10.6425C18.9075 9.43499 19.4625 7.91249 19.4625 6.35249H19.4775ZM17.7525 9.62999C17.5725 8.96999 17.28 8.35499 16.8975 7.79999L18.7275 5.96999V6.34499C18.7275 7.50749 18.3825 8.64749 17.7525 9.62249V9.62999ZM16.83 3.62999L18.42 5.21999L16.425 7.20749C15.915 6.64499 15.3 6.17249 14.61 5.83499L16.8225 3.62249L16.83 3.62999ZM7.12502 3.62999L9.33752 5.84249C8.64752 6.17999 8.03252 6.64499 7.52252 7.21499L5.53502 5.22749L7.12502 3.63749V3.62999ZM6.19502 9.62999C5.57252 8.65499 5.22752 7.52249 5.22752 6.35999V5.98499L7.05002 7.80749C6.66752 8.35499 6.37502 8.96999 6.19502 9.62999ZM17.2275 20.2275H6.72752V11.2275C6.72752 8.32499 9.07502 5.97749 11.9775 5.97749C14.88 5.97749 17.2275 8.32499 17.2275 11.2275V20.2275Z" fill="black" stroke="black" stroke-width="0.25" stroke-miterlimit="10"/>
</g>
<defs>
<clipPath id="clip0_58_9775">
<rect width="24" height="24" fill="white"/>
</clipPath>
</defs>
</svg>
