<svg width="24" height="24" viewBox="0 0 24 24" fill="none" xmlns="http://www.w3.org/2000/svg">
<g clip-path="url(#clip0_58_9775)">
<path d="M12 24C18.6274 24 24 18.6274 24 12C24 5.37258 18.6274 0 12 0C5.37258 0 0 5.37258 0 12C0 18.6274 5.37258 24 12 24Z" fill="#FFDD00"/>
<path d="M8.22754 15.3525V18.7275H15.7275V13.4775H8.22754V15.3525ZM14.9775 17.9775H8.97754V16.1025H10.1025V16.4775C10.1025 16.6875 10.2675 16.8525 10.4775 16.8525C10.6875 16.8525 10.8525 16.6875 10.8525 16.4775V16.1025H14.9775V17.9775ZM14.9775 14.2275V15.3525H8.97754V14.2275H14.9775Z" fill="black" stroke="black" stroke-width="0.25" stroke-miterlimit="10"/>
<path d="M9.35254 11.2275C9.35254 9.78 10.53 8.6025 11.9775 8.6025C13.425 8.6025 14.6025 9.78 14.6025 11.2275V11.9775H15.3525V11.2275C15.3525 9.3675 13.8375 7.8525 11.9775 7.8525C10.1175 7.8525 8.60254 9.3675 8.60254 11.2275V11.9775H9.35254V11.2275Z" fill="black" stroke="black" stroke-width="0.25" stroke-miterlimit="10"/>
<path d="M19.4775 6.3525V5.2275L16.8225 2.5725L16.29 3.105L13.8525 5.535C13.26 5.34 12.6225 5.2275 11.9625 5.2275C11.3025 5.2275 10.6725 5.34 10.08 5.535L7.64252 3.105L7.11002 2.5725L4.46252 5.2275V6.3525C4.46252 7.9125 5.00252 9.4275 5.98502 10.635C5.97002 10.83 5.95502 11.0175 5.95502 11.22V20.97H17.955V11.22C17.955 11.025 17.9475 10.83 17.925 10.6425C18.9075 9.435 19.4625 7.9125 19.4625 6.3525H19.4775ZM17.7525 9.63C17.5725 8.97 17.28 8.355 16.8975 7.8L18.7275 5.97V6.345C18.7275 7.5075 18.3825 8.6475 17.7525 9.6225V9.63ZM16.83 3.63L18.42 5.22L16.425 7.2075C15.915 6.645 15.3 6.1725 14.61 5.835L16.8225 3.6225L16.83 3.63ZM7.12502 3.63L9.33752 5.8425C8.64752 6.18 8.03252 6.645 7.52252 7.215L5.53502 5.2275L7.12502 3.6375V3.63ZM6.19502 9.63C5.57252 8.655 5.22752 7.5225 5.22752 6.36V5.985L7.05002 7.8075C6.66752 8.355 6.37502 8.97 6.19502 9.63ZM17.2275 20.2275H6.72752V11.2275C6.72752 8.325 9.07502 5.9775 11.9775 5.9775C14.88 5.9775 17.2275 8.325 17.2275 11.2275V20.2275Z" fill="black" stroke="black" stroke-width="0.25" stroke-miterlimit="10"/>
</g>
<defs>
<clipPath id="clip0_58_9775">
<rect width="24" height="24" fill="white"/>
</clipPath>
</defs>
</svg>
