<svg width="24" height="24" viewBox="0 0 24 24" fill="none" xmlns="http://www.w3.org/2000/svg">
<g clip-path="url(#clip0_87_141)">
<path d="M12 24C18.6274 24 24 18.6274 24 12C24 5.37258 18.6274 0 12 0C5.37258 0 0 5.37258 0 12C0 18.6274 5.37258 24 12 24Z" fill="#FFDD00"/>
<path d="M2.23236 9.373L12.0037 4.48732L21.7751 9.373L12.0037 14.2587L2.23236 9.373Z" stroke="black" stroke-width="1.25" stroke-linecap="round" stroke-linejoin="round"/>
<path d="M3.73566 15.0103V10.5005" stroke="black" stroke-width="1.25" stroke-linecap="round" stroke-linejoin="round"/>
<path d="M3.73564 15.0103L4.40461 16.2581C4.65265 16.7241 4.29186 17.2653 3.73564 17.2653C3.17943 17.2653 2.81112 16.7166 3.06668 16.2581L3.73564 15.0103Z" stroke="black" stroke-width="1.25" stroke-linecap="round" stroke-linejoin="round"/>
<path d="M5.9906 11.2521V18.0169C5.9906 18.8437 8.68149 19.5202 12.0038 19.5202C15.326 19.5202 18.0169 18.8437 18.0169 18.0169V11.2521" stroke="black" stroke-width="1.25" stroke-linecap="round" stroke-linejoin="round"/>
</g>
<defs>
<clipPath id="clip0_87_141">
<rect width="24" height="24" fill="white"/>
</clipPath>
</defs>
</svg>
