<?xml version="1.0" encoding="UTF-8"?>
<svg width="350px" height="120px" viewBox="0 0 350 120" version="1.1" xmlns="http://www.w3.org/2000/svg" xmlns:xlink="http://www.w3.org/1999/xlink">
    <title>analytics-header</title>
    <defs>
        <polygon id="path-1" points="3.65728754e-14 0 13.0168829 0 13.0168829 13.1274997 3.65728754e-14 13.1274997"></polygon>
    </defs>
    <g id="analytics-header" stroke="none" stroke-width="1" fill="none" fill-rule="evenodd">
        <g id="Carris-Metropolitana-(Default)" transform="translate(57.5769, 18)">
            <path d="M99.7390707,41.6462994 L98.7836264,44.0086042 C98.6562338,44.359531 98.4014487,44.4233945 98.0829672,44.3279218 C97.7651292,44.2324491 97.3829515,44.104722 96.7781585,44.104722 C94.8035736,44.104722 93.5296479,45.5729377 93.5296479,47.4888431 L93.5296479,55.7891644 C93.5296479,56.0762277 93.3392024,56.2678182 93.0522474,56.2678182 L89.8043802,56.2678182 C89.5180687,56.2678182 89.3269798,56.0762277 89.3269798,55.7891644 L89.3269798,41.103782 C89.3269798,40.8160737 89.5180687,40.6251282 89.8043802,40.6251282 L92.8933284,40.6251282 C93.17964,40.6251282 93.3392024,40.8160737 93.3707289,41.103782 L93.4981214,42.8274518 C94.3261732,41.3269818 95.5994555,40.2735564 97.4781742,40.2735564 C98.3699222,40.2735564 99.1342777,40.6251282 99.5795083,41.0076642 C99.8342934,41.1992548 99.8342934,41.4224545 99.7390707,41.6462994" id="Fill-1" fill="#000000"></path>
            <path d="M114.94717,41.6462994 L113.991726,44.0086042 C113.864333,44.359531 113.609548,44.4233945 113.291067,44.3279218 C112.973229,44.2324491 112.591051,44.104722 111.986258,44.104722 C110.011673,44.104722 108.737747,45.5729377 108.737747,47.4888431 L108.737747,55.7891644 C108.737747,56.0762277 108.547302,56.2678182 108.260347,56.2678182 L105.01248,56.2678182 C104.726168,56.2678182 104.535079,56.0762277 104.535079,55.7891644 L104.535079,41.103782 C104.535079,40.8160737 104.726168,40.6251282 105.01248,40.6251282 L108.101428,40.6251282 C108.38774,40.6251282 108.547302,40.8160737 108.578828,41.103782 L108.706221,42.8274518 C109.534273,41.3269818 110.807555,40.2735564 112.686274,40.2735564 C113.578022,40.2735564 114.342377,40.6251282 114.787608,41.0076642 C115.042393,41.1992548 115.042393,41.4224545 114.94717,41.6462994" id="Fill-3" fill="#000000"></path>
            <path d="M79.2147762,48.4438284 C79.2147762,46.0815235 77.5271463,44.1023997 75.2347234,44.1023997 C72.9101306,44.1023997 71.2225008,45.9537965 71.2225008,48.4438284 C71.2225008,50.9661146 72.9101306,52.8497656 75.2347234,52.8497656 C77.5271463,52.8497656 79.2147762,50.8061332 79.2147762,48.4438284 M83.4496141,41.1014597 L83.4496141,55.7868421 C83.4496141,56.0739054 83.2585252,56.2654959 82.9722137,56.2654959 L80.0421845,56.2654959 C79.7558729,56.2654959 79.5969539,56.0739054 79.564784,55.7868421 L79.4373915,54.4457083 C78.3230282,55.7545878 76.7627909,56.6802862 74.7251531,56.6802862 C70.3629226,56.6802862 67.1787517,53.0413562 67.1787517,48.4754376 C67.1787517,43.9101641 70.3629226,40.2712341 74.7251531,40.2712341 C76.6990946,40.2712341 78.2908583,41.2291868 79.4695613,42.5696754 L79.564784,41.1014597 C79.5969539,40.8137514 79.7558729,40.6228059 80.0421845,40.6228059 L82.9722137,40.6228059 C83.2585252,40.6228059 83.4496141,40.8137514 83.4496141,41.1014597" id="Fill-5" fill="#000000"></path>
            <path d="M120.419968,40.6245477 L123.667835,40.6245477 C123.954147,40.6245477 124.145236,40.8161382 124.145236,41.1038466 L124.145236,55.7885838 C124.145236,56.0762922 123.954147,56.2678827 123.667835,56.2678827 L120.419968,56.2678827 C120.133656,56.2678827 119.941924,56.0762922 119.941924,55.7885838 L119.941924,41.1038466 C119.941924,40.8161382 120.133656,40.6245477 120.419968,40.6245477" id="Fill-7" fill="#000000"></path>
            <path d="M141.133228,51.8915549 C141.133228,54.9247492 138.04428,56.6806732 135.179234,56.6806732 C132.50399,56.6806732 130.33896,55.3711487 129.224596,54.0622692 C129.033507,53.8390695 129.097204,53.6152246 129.224596,53.4236341 L130.466352,51.6677101 C130.657441,51.4129011 130.8807,51.4767646 131.167011,51.6999644 C132.440294,52.53019 133.810085,53.1365708 135.051841,53.1365708 C136.070338,53.1365708 137.057309,52.8172533 137.057309,51.8276914 C137.057309,49.3376595 129.510908,50.2956122 129.510908,45.0278401 C129.510908,42.0269001 132.122456,40.270976 134.924449,40.270976 C136.93056,40.270976 138.968198,41.1012017 140.27365,42.633926 C140.464739,42.8571257 140.401043,43.1125798 140.24148,43.3041703 L139.031894,44.900113 C138.840805,45.1555671 138.617547,45.0917036 138.331235,44.8678587 C137.121005,44.0698874 136.38882,43.6550971 135.274457,43.6550971 C134.287486,43.6550971 133.5553,44.1976144 133.5553,44.9962309 C133.5553,47.5494812 141.133228,46.145129 141.133228,51.8915549" id="Fill-9" fill="#000000"></path>
            <path d="M59.7776293,51.382453 C60.0324144,51.1592533 60.2556731,51.1592533 60.4782884,51.382453 L62.4200601,53.2338498 C62.6105055,53.4247953 62.6426754,53.6802493 62.4522299,53.9034491 C60.9878587,55.5955096 58.8228284,56.6805442 56.33996,56.6805442 C51.8516238,56.6805442 48.3817847,53.0738685 48.3817847,48.478276 C48.3817847,43.8826834 51.8516238,40.2753626 56.33996,40.2753626 C58.7591321,40.2753626 60.8919926,41.3603973 62.3563638,43.0524578 C62.5468092,43.2756575 62.5152828,43.5317567 62.3241939,43.7227021 L60.3824223,45.6057081 C60.159807,45.8289078 59.9371917,45.7972986 59.6824066,45.5740989 C58.7913019,44.7761275 57.8673841,44.1697467 56.4351828,44.1697467 C54.079707,44.1697467 52.4242469,46.0204984 52.4242469,48.478276 C52.4242469,50.9354085 54.079707,52.7868052 56.4351828,52.7868052 C57.9317238,52.7868052 58.8858813,52.1804244 59.7776293,51.382453" id="Fill-11" fill="#000000"></path>
            <path d="M68.8457929,71.6387334 L68.8457929,78.7643532 C68.8457929,78.9940038 68.6933078,79.1475342 68.4636152,79.1475342 L65.8655788,79.1475342 C65.6358861,79.1475342 65.483401,78.9940038 65.483401,78.7643532 L65.483401,72.2515651 C65.483401,70.1827744 64.3626038,69.467374 63.1652423,69.467374 C61.2800896,69.467374 60.4140774,70.9749399 60.4140774,71.868384 L60.4140774,78.7643532 C60.4140774,78.9940038 60.2615924,79.1475342 60.0318997,79.1475342 L57.4338633,79.1475342 C57.204814,79.1475342 57.0516856,78.9940038 57.0516856,78.7643532 L57.0516856,72.2515651 C57.0516856,70.1827744 55.9308883,69.467374 54.7084344,69.467374 C52.8232816,69.467374 51.9566261,71.3323176 51.9566261,71.9193458 L51.9566261,78.7643532 C51.9566261,78.9940038 51.8041411,79.1475342 51.5750918,79.1475342 L48.976412,79.1475342 C48.7473627,79.1475342 48.5942343,78.9940038 48.5942343,78.7643532 L48.5942343,67.0154022 C48.5942343,66.7857516 48.7473627,66.6328662 48.976412,66.6328662 L51.4727917,66.6328662 C51.7024844,66.6328662 51.8292335,66.7857516 51.8549694,67.0154022 L51.9566261,68.6500501 L51.9566261,68.6758535 C52.7718099,67.3476215 54.096564,66.3522538 55.9051525,66.3522538 C57.5612559,66.3522538 58.9619308,67.1695777 59.7520221,68.6758535 C60.6431267,67.3224631 62.1210092,66.3522538 64.158647,66.3522538 C66.8840759,66.3522538 68.8457929,68.2926724 68.8457929,71.6387334" id="Fill-13" fill="#000000"></path>
            <path d="M75.895878,71.9451493 L81.8563062,71.9451493 C81.6272569,70.1827744 80.4298954,69.212565 78.9269204,69.212565 C77.398853,69.212565 76.1757556,70.1827744 75.895878,71.9451493 M83.9454157,74.141667 L75.9467063,74.141667 C76.2780557,75.8021183 77.551338,76.7465242 79.5130549,76.7465242 C80.5064596,76.7465242 81.2959076,76.4910702 82.1625631,75.8782385 C82.3916124,75.7253531 82.5447408,75.7253531 82.7223183,75.9040419 L83.843759,77.0019783 C84.0219799,77.1806671 84.0219799,77.360001 83.8180231,77.5638482 C82.6206616,78.7643532 80.9902941,79.4797535 79.1817056,79.4797535 C75.284651,79.4797535 72.609407,76.5936388 72.609407,72.9153586 C72.609407,69.2377234 75.284651,66.3522538 78.901828,66.3522538 C82.5190049,66.3522538 84.8371637,69.2377234 84.8371637,72.6347462 C84.8371637,73.6307589 84.7097711,74.141667 83.9454157,74.141667" id="Fill-15" fill="#000000"></path>
            <path d="M94.9630073,67.0157247 L94.9630073,69.0077502 C94.9630073,69.2380459 94.8098789,69.3909313 94.5808296,69.3909313 L92.797977,69.3909313 L92.797977,78.7646757 C92.797977,78.9943263 92.6448486,79.1472117 92.4157993,79.1472117 L89.8171195,79.1472117 C89.5880702,79.1472117 89.4349418,78.9943263 89.4349418,78.7646757 L89.4349418,69.3909313 L87.6520892,69.3909313 C87.4230399,69.3909313 87.2699115,69.2380459 87.2699115,69.0077502 L87.2699115,67.0157247 C87.2699115,66.7860741 87.4230399,66.6325437 87.6520892,66.6325437 L89.4349418,66.6325437 L89.4349418,63.1845591 C89.4349418,62.9549085 89.5880702,62.8020231 89.8171195,62.8020231 L92.4157993,62.8020231 C92.6448486,62.8020231 92.797977,62.9549085 92.797977,63.1845591 L92.797977,66.6325437 L94.5808296,66.6325437 C94.8098789,66.6325437 94.9630073,66.7860741 94.9630073,67.0157247" id="Fill-17" fill="#000000"></path>
            <path d="M108.658545,67.4500611 L107.89419,69.3401631 C107.792533,69.6214205 107.588576,69.6723823 107.333791,69.5956171 C107.079006,69.5188519 106.773393,69.4169283 106.289558,69.4169283 C104.710019,69.4169283 103.690878,70.5916299 103.690878,72.1237091 L103.690878,78.7648692 C103.690878,78.9945198 103.538393,79.1474052 103.309344,79.1474052 L100.710664,79.1474052 C100.481615,79.1474052 100.328487,78.9945198 100.328487,78.7648692 L100.328487,67.0159183 C100.328487,66.7862677 100.481615,66.6327372 100.710664,66.6327372 L103.181951,66.6327372 C103.411001,66.6327372 103.538393,66.7862677 103.563486,67.0159183 L103.665786,68.3951121 C104.327841,67.1946071 105.346982,66.3521248 106.849957,66.3521248 C107.56284,66.3521248 108.174067,66.6327372 108.531153,66.939153 C108.735109,67.0926835 108.735109,67.2713723 108.658545,67.4500611" id="Fill-19" fill="#000000"></path>
            <path d="M120.859344,72.9156166 C120.859344,70.8977877 119.407197,69.467632 117.624344,69.467632 C115.815756,69.467632 114.389345,70.8977877 114.389345,72.9156166 C114.389345,74.9334456 115.815756,76.3636012 117.624344,76.3636012 C119.407197,76.3636012 120.859344,74.9334456 120.859344,72.9156166 M111.153702,72.9156166 C111.153702,69.2379814 114.032903,66.3518668 117.624344,66.3518668 C121.215786,66.3518668 124.094343,69.2379814 124.094343,72.9156166 C124.094343,76.5932518 121.215786,79.4793665 117.624344,79.4793665 C114.032903,79.4793665 111.153702,76.5932518 111.153702,72.9156166" id="Fill-21" fill="#000000"></path>
            <path d="M138.027616,72.8903292 C138.027616,70.8983037 136.677769,69.4165412 134.817709,69.4165412 C132.984028,69.4165412 131.633538,71.0002273 131.633538,72.8903292 C131.633538,74.7797861 132.984028,76.414434 134.817709,76.414434 C136.677769,76.414434 138.027616,74.9081582 138.027616,72.8903292 M141.262615,72.9154876 C141.262615,76.5679644 138.715407,79.4792374 135.225623,79.4792374 C133.696912,79.4792374 132.49955,78.8412474 131.608446,77.8961965 L131.608446,83.6168189 C131.608446,83.8464695 131.455317,84 131.226268,84 L128.628232,84 C128.398539,84 128.246054,83.8464695 128.246054,83.6168189 L128.246054,67.0155312 C128.246054,66.7858806 128.398539,66.6329952 128.628232,66.6329952 L130.971483,66.6329952 C131.200532,66.6329952 131.327925,66.7858806 131.353661,67.0155312 L131.430225,68.1908779 C132.372801,67.1180999 133.646084,66.3517377 135.225623,66.3517377 C138.715407,66.3517377 141.262615,69.2636559 141.262615,72.9154876" id="Fill-23" fill="#000000"></path>
            <path d="M154.610333,72.9156166 C154.610333,70.8977877 153.158186,69.467632 151.375334,69.467632 C149.566745,69.467632 148.140334,70.8977877 148.140334,72.9156166 C148.140334,74.9334456 149.566745,76.3636012 151.375334,76.3636012 C153.158186,76.3636012 154.610333,74.9334456 154.610333,72.9156166 M144.904692,72.9156166 C144.904692,69.2379814 147.783892,66.3518668 151.375334,66.3518668 C154.966775,66.3518668 157.845332,69.2379814 157.845332,72.9156166 C157.845332,76.5932518 154.966775,79.4793665 151.375334,79.4793665 C147.783892,79.4793665 144.904692,76.5932518 144.904692,72.9156166" id="Fill-25" fill="#000000"></path>
            <path d="M162.378577,60.5031302 L164.977257,60.5031302 C165.206307,60.5031302 165.358792,60.6560156 165.358792,60.8863113 L165.358792,78.7648692 C165.358792,78.9945198 165.206307,79.1474052 164.977257,79.1474052 L162.378577,79.1474052 C162.149528,79.1474052 161.9964,78.9945198 161.9964,78.7648692 L161.9964,60.8863113 C161.9964,60.6560156 162.149528,60.5031302 162.378577,60.5031302" id="Fill-27" fill="#000000"></path>
            <path d="M170.351229,66.6328017 L172.949266,66.6328017 C173.178958,66.6328017 173.331443,66.7856871 173.331443,67.0159828 L173.331443,78.7642887 C173.331443,78.9945843 173.178958,79.1474697 172.949266,79.1474697 L170.351229,79.1474697 C170.12218,79.1474697 169.969052,78.9945843 169.969052,78.7642887 L169.969052,67.0159828 C169.969052,66.7856871 170.12218,66.6328017 170.351229,66.6328017 M169.790831,62.3932966 C169.790831,61.3714804 170.606014,60.5289982 171.650247,60.5289982 C172.669388,60.5289982 173.484572,61.3714804 173.484572,62.3932966 C173.484572,63.4144677 172.669388,64.2575951 171.650247,64.2575951 C170.606014,64.2575951 169.790831,63.4144677 169.790831,62.3932966" id="Fill-29" fill="#000000"></path>
            <path d="M185.074529,67.0157247 L185.074529,69.0077502 C185.074529,69.2380459 184.921401,69.3909313 184.692352,69.3909313 L182.909499,69.3909313 L182.909499,78.7646757 C182.909499,78.9943263 182.756371,79.1472117 182.527321,79.1472117 L179.928641,79.1472117 C179.699592,79.1472117 179.546464,78.9943263 179.546464,78.7646757 L179.546464,69.3909313 L177.763611,69.3909313 C177.534562,69.3909313 177.381433,69.2380459 177.381433,69.0077502 L177.381433,67.0157247 C177.381433,66.7860741 177.534562,66.6325437 177.763611,66.6325437 L179.546464,66.6325437 L179.546464,63.1845591 C179.546464,62.9549085 179.699592,62.8020231 179.928641,62.8020231 L182.527321,62.8020231 C182.756371,62.8020231 182.909499,62.9549085 182.909499,63.1845591 L182.909499,66.6325437 L184.692352,66.6325437 C184.921401,66.6325437 185.074529,66.7860741 185.074529,67.0157247" id="Fill-31" fill="#000000"></path>
            <path d="M198.091026,72.8903292 C198.091026,71.0002273 196.74118,69.4165412 194.906855,69.4165412 C193.047438,69.4165412 191.696948,70.8983037 191.696948,72.8903292 C191.696948,74.9081582 193.047438,76.414434 194.906855,76.414434 C196.74118,76.414434 198.091026,74.7797861 198.091026,72.8903292 M201.479154,67.0155312 L201.479154,78.7644822 C201.479154,78.9941328 201.326025,79.1476633 201.096976,79.1476633 L198.753082,79.1476633 C198.524032,79.1476633 198.39664,78.9941328 198.370904,78.7644822 L198.269247,77.6917042 C197.378143,78.7386787 196.129309,79.4792374 194.499585,79.4792374 C191.009801,79.4792374 188.461949,76.5679644 188.461949,72.9154876 C188.461949,69.2636559 191.009801,66.3517377 194.499585,66.3517377 C196.078481,66.3517377 197.352407,67.1180999 198.294983,68.1908779 L198.370904,67.0155312 C198.39664,66.7858806 198.524032,66.6329952 198.753082,66.6329952 L201.096976,66.6329952 C201.326025,66.6329952 201.479154,66.7858806 201.479154,67.0155312" id="Fill-33" fill="#000000"></path>
            <path d="M217.832114,71.6387334 L217.832114,78.7643532 C217.832114,78.9940038 217.679629,79.1475342 217.449936,79.1475342 L214.8519,79.1475342 C214.62285,79.1475342 214.469722,78.9940038 214.469722,78.7643532 L214.469722,72.2515651 C214.469722,70.1827744 213.348925,69.467374 212.125827,69.467374 C210.241318,69.467374 209.374662,71.3323176 209.374662,71.9193458 L209.374662,78.7643532 C209.374662,78.9940038 209.222177,79.1475342 208.993128,79.1475342 L206.394448,79.1475342 C206.165399,79.1475342 206.012271,78.9940038 206.012271,78.7643532 L206.012271,67.0154022 C206.012271,66.7857516 206.165399,66.6328662 206.394448,66.6328662 L208.890828,66.6328662 C209.120521,66.6328662 209.24727,66.7857516 209.273006,67.0154022 L209.374662,68.6500501 L209.374662,68.6758535 C210.189846,67.3476215 211.5146,66.3522538 213.323189,66.3522538 C215.870397,66.3522538 217.832114,68.2926724 217.832114,71.6387334" id="Fill-35" fill="#000000"></path>
            <g id="Group-39" transform="translate(221.9831, 66.3517)">
                <mask id="mask-2" fill="white">
                    <use xlink:href="#path-1"></use>
                </mask>
                <g id="Clip-38"></g>
                <path d="M9.62907694,6.5385915 C9.62907694,4.64848958 8.2792304,3.06480349 6.44490604,3.06480349 C4.5854892,3.06480349 3.23499926,4.54656599 3.23499926,6.5385915 C3.23499926,8.55642045 4.5854892,10.0626962 6.44490604,10.0626962 C8.2792304,10.0626962 9.62907694,8.42804834 9.62907694,6.5385915 M13.0172046,0.663793474 L13.0172046,12.4127444 C13.0172046,12.6423951 12.8640762,12.7959255 12.6350269,12.7959255 L10.2911323,12.7959255 C10.062083,12.7959255 9.93469044,12.6423951 9.90895456,12.4127444 L9.80729786,11.3399665 C8.91554986,12.386941 7.66736001,13.1274997 6.03763584,13.1274997 C2.54785144,13.1274997 3.65728754e-14,10.2162267 3.65728754e-14,6.56374985 C3.65728754e-14,2.91191812 2.54785144,0 6.03763584,0 C7.61653166,0 8.89045738,0.766362145 9.83303374,1.83914013 L9.90895456,0.663793474 C9.93469044,0.434142865 10.062083,0.281257488 10.2911323,0.281257488 L12.6350269,0.281257488 C12.8640762,0.281257488 13.0172046,0.434142865 13.0172046,0.663793474" id="Fill-37" fill="#000000" mask="url(#mask-2)"></path>
            </g>
            <path d="M115.503451,27.5293668 C115.500878,27.4732443 115.501521,27.4158316 115.499591,27.3597092 C115.499591,27.3642248 115.499591,27.3687404 115.499591,27.373901 C115.499591,27.426153 115.502164,27.4771148 115.503451,27.5293668" id="Fill-40" fill="#FFDD00"></path>
            <path d="M128.443191,21.4929747 C128.044928,18.516548 127.099135,15.620757 125.666933,12.9842906 C122.835987,7.77135081 118.141764,3.66344328 112.5989,1.57529996 C109.829721,0.531550848 106.876529,0 103.91819,0 C97.0312708,0 90.3573155,2.95513888 85.6991224,8.03841641 C77.9867246,-0.434787951 65.0788975,-2.42745855 55.1731599,3.31638703 C52.5867046,4.81621193 50.2762666,6.7869496 48.3821063,9.10280827 C43.6737284,3.93760483 37.0982128,0.657342614 30.1347289,0.0916022093 C23.9870722,-0.408339426 17.7628513,1.17921717 12.6079559,4.57494978 C7.67117199,7.82747329 3.81915518,12.6436852 1.74934758,18.1933599 C-0.402171416,23.9630089 -0.57395837,30.4138687 1.26100939,36.2925373 C3.02069971,41.9286535 6.59219551,46.9280698 11.3243792,50.4399179 C16.233497,54.0833635 22.2788536,56.0186215 28.3846895,55.9089569 C30.520767,55.8708968 32.6922313,55.647697 34.7639691,55.1232421 C35.3932112,54.9632608 35.9954306,54.7736055 36.56355,54.5265376 C35.8120625,54.8303731 34.9917315,54.9993856 34.1321534,54.9993856 C30.5387821,54.9993856 27.6254812,52.0784363 27.6254812,48.4756311 C27.6254812,45.2398798 29.9764533,42.555032 33.0589675,42.0421886 C32.2476441,42.1505631 31.443398,42.3492495 30.5818897,42.5072956 C27.3539678,43.0981944 23.9684137,42.7446873 21.053826,41.2326057 C15.6235568,38.4148702 12.3956349,32.3910573 13.071845,26.2949947 C13.7403343,20.2660212 18.1688347,15.1066235 24.0089477,13.5300334 C27.2201412,12.6630378 30.6944841,12.9075254 33.7409681,14.2518846 C37.0010598,15.6904263 39.7239152,18.411399 41.5350773,21.4587851 C41.9893155,22.223212 42.3798573,23.025699 42.6976954,23.8565697 C43.0123164,24.6803445 43.1989015,25.5428245 43.6254736,26.3201531 C44.4818348,27.8780357 45.970655,29.043061 47.6885246,29.4901056 C51.0830862,30.3725832 54.4454781,28.3566895 55.4897111,25.0719117 C55.7779529,24.1655659 55.8152699,23.2424479 56.0089324,22.3167495 C56.3473591,20.700164 57.0332201,19.1629241 58.0086097,17.8314667 C59.9291492,15.2098373 62.9183709,13.4706854 66.1405022,13.0978258 C72.3216156,12.3824254 78.1134738,16.8348088 79.0592672,22.9998956 C79.3082617,24.6190614 79.5527525,26.0576031 80.6458837,27.3632571 C81.7962773,28.7372903 83.4954883,29.5868685 85.2828447,29.6784707 C87.1062313,29.7713631 88.9128896,29.0791858 90.2054738,27.7851434 C91.4021919,26.5859285 91.9239868,25.0990053 92.1176492,23.4521008 C92.8524084,17.1902512 98.6899478,12.5282148 104.927037,13.0617009 C111.106863,13.5906714 115.791436,19.0913196 115.545658,25.2983369 C115.517348,26.0182529 115.480675,26.6949481 115.499977,27.3593866 C115.507698,23.7423895 118.43451,20.812409 122.043966,20.812409 C125.658569,20.812409 128.587955,23.7501306 128.587955,27.3735785 C128.587955,27.3832548 128.587312,27.392286 128.587312,27.4013172 C128.609187,27.137477 128.625272,26.8710565 128.63621,26.6020557 C128.703123,24.8970934 128.669666,23.1856803 128.443191,21.4929747" id="Fill-42" fill="#FFDD00"></path>
            <path d="M128.588212,27.3735785 C128.588212,30.9976715 125.658183,33.9353931 122.044223,33.9353931 C118.42962,33.9353931 115.499591,30.9976715 115.499591,27.3735785 C115.499591,23.7501306 118.42962,20.812409 122.044223,20.812409 C125.658183,20.812409 128.588212,23.7501306 128.588212,27.3735785" id="Fill-44" fill="#000000"></path>
            <path d="M40.6385038,48.4756311 C40.6385038,52.0784363 37.7258464,54.9993856 34.1318317,54.9993856 C30.5384604,54.9993856 27.6258029,52.0784363 27.6258029,48.4756311 C27.6258029,44.8728259 30.5384604,41.9518766 34.1318317,41.9518766 C37.7258464,41.9518766 40.6385038,44.8728259 40.6385038,48.4756311" id="Fill-46" fill="#000000"></path>
        </g>
    </g>
</svg>