<?xml version="1.0" encoding="UTF-8"?>
<svg width="900px" height="180px" viewBox="0 0 900 180" version="1.1" xmlns="http://www.w3.org/2000/svg" xmlns:xlink="http://www.w3.org/1999/xlink">
    <title>Artboard@2x</title>
    <g id="Artboard" stroke="none" stroke-width="1" fill="none" fill-rule="evenodd">
        <path d="M862.120573,2.50087366 C874.348903,2.53815147 878.905581,3.76847299 883.473688,6.21152355 C887.920462,8.58968409 891.410316,12.079538 893.788476,16.5263116 C896.2697,21.1657956 897.5,25.79349 897.5,38.458278 L897.5,141.541722 C897.5,154.20651 896.2697,158.834204 893.788476,163.473688 C891.410316,167.920462 887.920462,171.410316 883.473688,173.788476 C878.834204,176.2697 874.20651,177.5 861.541722,177.5 L38.458278,177.5 C25.79349,177.5 21.1657956,176.2697 16.5263116,173.788476 C12.079538,171.410316 8.58968409,167.920462 6.21152355,163.473688 C3.76992084,158.908288 2.53961878,154.354778 2.50092996,142.134813 L2.5,38.458278 C2.5,25.79349 3.73030033,21.1657956 6.21152355,16.5263116 C8.58968409,12.079538 12.079538,8.58968409 16.5263116,6.21152355 C21.0917117,3.76992084 25.6452223,2.53961878 37.8651674,2.50092996 Z" id="Rectangle" stroke-opacity="0.102081512" stroke="#FFFFFF" stroke-width="5" fill="#000000"></path>
        <g id="Group" transform="translate(88, 40)" fill="#FFFFFF">
            <g id="github-mark-white">
                <path d="M50.8895746,0 C22.7489544,0 0,22.9166627 0,51.2676995 C0,73.9301957 14.5760392,93.1135257 34.796869,99.9031079 C37.3249936,100.413524 38.2510351,98.7999831 38.2510351,97.4426916 C38.2510351,96.2541502 38.1677018,92.1801925 38.1677018,87.9354016 C24.0114542,90.9916511 21.0635381,81.8239443 21.0635381,81.8239443 C18.7885384,75.8822787 15.4177057,74.3551956 15.4177057,74.3551956 C10.7843732,71.2145711 15.7552056,71.2145711 15.7552056,71.2145711 C20.8947881,71.5541544 23.5916626,76.4770702 23.5916626,76.4770702 C28.1406202,84.2854022 35.4708273,82.0791526 38.4197851,80.7208195 C38.8406183,77.4104034 40.1895764,75.1187371 41.6218679,73.8458207 C30.3312448,72.6572792 18.4520802,68.2437383 18.4520802,48.5510333 C18.4520802,42.948951 20.4729132,38.3656184 23.6749959,34.8010357 C23.1697877,33.5281193 21.3999963,28.2645785 24.1812459,21.219788 C24.1812459,21.219788 28.4781201,19.8614549 38.1666601,26.4822871 C42.3146686,25.3600609 46.5924426,24.7891773 50.8895746,24.7843707 C55.1864489,24.7843707 59.5666565,25.3791623 63.6114474,26.4822871 C73.3010291,19.8614549 77.5979034,21.219788 77.5979034,21.219788 C80.3791529,28.2645785 78.6083199,33.5281193 78.1031116,34.8010357 C81.3895694,38.3656184 83.327069,42.948951 83.327069,48.5510333 C83.327069,68.2437383 71.4479044,72.5718626 60.0729064,73.8458207 C61.9270727,75.4583204 63.5270724,78.5135282 63.5270724,83.352069 C63.5270724,90.2270679 63.4437391,95.7447752 63.4437391,97.44165 C63.4437391,98.7999831 64.3708223,100.413524 66.8979052,99.9041495 C87.1187351,93.112484 101.695002,73.9301957 101.695002,51.2676995 C101.778108,22.9166627 78.9458198,0 50.8895746,0 Z" id="Path"></path>
            </g>
            <g id="Login-com-Github" transform="translate(165.813, 24.0313)" fill-rule="nonzero">
                <polygon id="Path" points="0 49.9686779 0 2.69595059 9.98998469 2.69595059 9.98998469 41.7329545 30.2469427 41.7329545 30.2469427 49.9686779"></polygon>
                <path d="M52.7200127,50.6517722 C49.1314229,50.6517722 46.0337546,49.8877693 43.4270078,48.3597634 C40.8202611,46.8317575 38.8090278,44.6959155 37.3933081,41.9522372 C35.9775884,39.208559 35.2697286,36.014654 35.2697286,32.3705222 C35.2697286,28.7143684 35.9775884,25.5113266 37.3933081,22.7613969 C38.8090278,20.0114672 40.8202611,17.8724994 43.4270078,16.3444935 C46.0337546,14.8164876 49.1314229,14.0524847 52.7200127,14.0524847 C56.3086024,14.0524847 59.4062707,14.8164876 62.0130175,16.3444935 C64.6197643,17.8724994 66.6309975,20.0114672 68.0467172,22.7613969 C69.4624369,25.5113266 70.1702968,28.7143684 70.1702968,32.3705222 C70.1702968,36.014654 69.4624369,39.208559 68.0467172,41.9522372 C66.6309975,44.6959155 64.6197643,46.8317575 62.0130175,48.3597634 C59.4062707,49.8877693 56.3086024,50.6517722 52.7200127,50.6517722 Z M52.7755547,43.043962 C54.394207,43.043962 55.7529421,42.5776857 56.8517598,41.6451333 C57.9505776,40.7125808 58.7800407,39.4384211 59.3401493,37.822654 C59.9002578,36.206887 60.1803121,34.3711159 60.1803121,32.3153409 C60.1803121,30.2501887 59.9002578,28.4089476 59.3401493,26.7916177 C58.7800407,25.1742877 57.9505776,23.8962809 56.8517598,22.9575972 C55.7529421,22.0189135 54.394207,21.5495716 52.7755547,21.5495716 C51.1196339,21.5495716 49.7330677,22.0189135 48.6158562,22.9575972 C47.4986446,23.8962809 46.6599846,25.1742877 46.0998761,26.7916177 C45.5397675,28.4089476 45.2597133,30.2501887 45.2597133,32.3153409 C45.2597133,34.3711159 45.5397675,36.206887 46.0998761,37.822654 C46.6599846,39.4384211 47.4986446,40.7125808 48.6158562,41.6451333 C49.7330677,42.5776857 51.1196339,43.043962 52.7755547,43.043962 Z" id="Shape"></path>
                <path d="M92.5695437,64.0027688 C89.3841743,64.0027688 86.6535401,63.5664876 84.3776408,62.6939253 C82.1017416,61.821363 80.2951241,60.6395328 78.9577883,59.1484347 C77.6204525,57.6573366 76.7533002,55.9823608 76.3563312,54.1235074 L85.459808,52.9048295 C85.7307856,53.6158151 86.1647826,54.2775102 86.7617989,54.8899148 C87.3588152,55.5023193 88.1535946,55.995525 89.1461372,56.3695318 C90.1386799,56.7435386 91.3536309,56.930542 92.7909903,56.930542 C94.9237066,56.930542 96.6879463,56.4134725 98.0837094,55.3793335 C99.4794724,54.3451945 100.177354,52.6093269 100.177354,50.1717307 L100.177354,43.6902688 L99.7712482,43.6902688 C99.3341255,44.6688658 98.6831902,45.5990739 97.8184423,46.4808932 C96.9536943,47.3627125 95.8473026,48.0813922 94.4992672,48.6369324 C93.1512318,49.1924725 91.5354047,49.4702426 89.6517858,49.4702426 C86.9927429,49.4702426 84.5745023,48.8485209 82.3970639,47.6050776 C80.2196254,46.3616342 78.4868836,44.4611844 77.1988383,41.9037281 C75.9107931,39.3462719 75.2667704,36.1008523 75.2667704,32.1674694 C75.2667704,28.1480084 75.9215528,24.7949311 77.2311176,22.1082375 C78.5406824,19.4215439 80.2857468,17.4072451 82.466311,16.0653409 C84.6468752,14.7234368 87.0359022,14.0524847 89.633392,14.0524847 C91.6093404,14.0524847 93.2667039,14.3871793 94.6054823,15.0565685 C95.9442607,15.7259577 97.02757,16.5553607 97.8554101,17.5447776 C98.6832503,18.5341945 99.3157317,19.5121904 99.7528544,20.4787653 L100.140566,20.4787653 L100.140566,14.5141324 L109.89035,14.5141324 L109.89035,50.3196023 C109.89035,53.3388265 109.150932,55.8617193 107.672097,57.8882807 C106.193261,59.9148421 104.15047,61.4405638 101.543723,62.4654458 C98.9369762,63.4903278 95.9455831,64.0027688 92.5695437,64.0027688 Z M92.7725965,42.083879 C94.3482098,42.083879 95.6892724,41.6876313 96.7957843,40.8951361 C97.9022962,40.1026408 98.7487105,38.9639097 99.3350272,37.4789429 C99.9213438,35.993976 100.214502,34.2112223 100.214502,32.1306818 C100.214502,30.0561523 99.9244095,28.251819 99.3442241,26.7176819 C98.7640387,25.1835447 97.9207501,23.9940204 96.8143585,23.1491089 C95.7079668,22.3041974 94.3607128,21.8817416 92.7725965,21.8817416 C91.1474523,21.8817416 89.7816843,22.31652 88.6752926,23.1860768 C87.5689009,24.0556335 86.7318038,25.2606062 86.1640011,26.8009949 C85.5961985,28.3413835 85.3122971,30.1179458 85.3122971,32.1306818 C85.3122971,34.1679429 85.5992641,35.9306197 86.173198,37.4187123 C86.7471319,38.9068049 87.5872947,40.0563558 88.6936864,40.8673651 C89.8000781,41.6783743 91.1597148,42.083879 92.7725965,42.083879 Z" id="Shape"></path>
                <path d="M117.756981,49.9686779 L117.756981,14.5141324 L127.5807,14.5141324 L127.5807,49.9686779 L117.756981,49.9686779 Z M122.694087,9.93444269 C121.230759,9.93444269 119.977398,9.44802949 118.934002,8.47520308 C117.890606,7.50237667 117.368908,6.3328691 117.368908,4.96668035 C117.368908,3.60049161 117.891267,2.43116437 118.935986,1.45869862 C119.980704,0.486232873 121.23112,0 122.687234,0 C124.15513,0 125.408431,0.486413204 126.447138,1.45923961 C127.485846,2.43206602 128.005199,3.6015736 128.005199,4.96776234 C128.005199,6.33395108 127.485846,7.50327833 126.447138,8.47574407 C125.408431,9.44820982 124.157414,9.93444269 122.694087,9.93444269 Z" id="Shape"></path>
                <path d="M145.270948,29.4715188 L145.270948,49.9686779 L135.447229,49.9686779 L135.447229,14.5141324 L144.809301,14.5141324 L144.809301,20.7741477 L145.215406,20.7741477 C146.009344,18.7058697 147.328887,17.0685231 149.174036,15.8621077 C151.019184,14.6556924 153.257454,14.0524847 155.888846,14.0524847 C158.353853,14.0524847 160.502739,14.5918551 162.335504,15.670596 C164.16827,16.7493369 165.591684,18.2843156 166.605746,20.2755321 C167.619808,22.2667486 168.12227,24.6364802 168.113256,27.3847268 L168.113256,49.9686779 L158.289414,49.9686779 L158.289414,29.1389881 C158.298551,26.9723696 157.743792,25.2765956 156.625138,24.0516663 C155.506484,22.8267369 153.962308,22.2142722 151.992611,22.2142722 C150.669221,22.2142722 149.501998,22.5012392 148.490941,23.0751731 C147.479885,23.649107 146.692739,24.4770073 146.129505,25.558874 C145.566271,26.6407406 145.280085,27.9449555 145.270948,29.4715188 Z" id="Path"></path>
                <path d="M206.947119,50.6517722 C203.309238,50.6517722 200.188488,49.8785123 197.584867,48.3319924 C194.981246,46.7854725 192.982335,44.6373078 191.588135,41.8874983 C190.193935,39.1376888 189.496834,35.9653635 189.496834,32.3705222 C189.496834,28.7513964 190.201629,25.5653058 191.611217,22.8122503 C193.020806,20.0591949 195.025908,17.9109701 197.626523,16.3675759 C200.227139,14.8241818 203.321741,14.0524847 206.910331,14.0524847 C209.993994,14.0524847 212.699923,14.6133747 215.028118,15.7351546 C217.356313,16.8569345 219.195991,18.4357337 220.547152,20.4715521 C221.898314,22.5073705 222.640016,24.8918291 222.772258,27.6249279 L213.502516,27.6249279 C213.234905,25.8612893 212.54634,24.4355312 211.436823,23.3476535 C210.327306,22.2597758 208.867645,21.715837 207.057842,21.715837 C205.543541,21.715837 204.218588,22.1274728 203.082983,22.9507446 C201.947378,23.7740164 201.064116,24.969672 200.433197,26.5377114 C199.802278,28.1057508 199.486819,30.0069821 199.486819,32.2414051 C199.486819,34.5003533 199.799213,36.4216013 200.424,38.0051491 C201.048787,39.588697 201.928984,40.7967354 203.064589,41.6292641 C204.200194,42.4617929 205.531279,42.8780573 207.057842,42.8780573 C208.187436,42.8780573 209.199996,42.6479548 210.09552,42.1877497 C210.991044,41.7275446 211.735091,41.0565925 212.327659,40.1748935 C212.920227,39.2931944 213.311846,38.2244318 213.502516,36.9686057 L222.772258,36.9686057 C222.621502,39.6800648 221.889057,42.0645234 220.574923,44.1219815 C219.26079,46.1794397 217.448823,47.7821026 215.139021,48.9299705 C212.82922,50.0778383 210.098586,50.6517722 206.947119,50.6517722 Z" id="Path"></path>
                <path d="M245.116076,50.6517722 C241.527486,50.6517722 238.429818,49.8877693 235.823071,48.3597634 C233.216324,46.8317575 231.205091,44.6959155 229.789371,41.9522372 C228.373652,39.208559 227.665792,36.014654 227.665792,32.3705222 C227.665792,28.7143684 228.373652,25.5113266 229.789371,22.7613969 C231.205091,20.0114672 233.216324,17.8724994 235.823071,16.3444935 C238.429818,14.8164876 241.527486,14.0524847 245.116076,14.0524847 C248.704666,14.0524847 251.802334,14.8164876 254.409081,16.3444935 C257.015828,17.8724994 259.027061,20.0114672 260.442781,22.7613969 C261.8585,25.5113266 262.56636,28.7143684 262.56636,32.3705222 C262.56636,36.014654 261.8585,39.208559 260.442781,41.9522372 C259.027061,44.6959155 257.015828,46.8317575 254.409081,48.3597634 C251.802334,49.8877693 248.704666,50.6517722 245.116076,50.6517722 Z M245.171618,43.043962 C246.79027,43.043962 248.149005,42.5776857 249.247823,41.6451333 C250.346641,40.7125808 251.176104,39.4384211 251.736213,37.822654 C252.296321,36.206887 252.576375,34.3711159 252.576375,32.3153409 C252.576375,30.2501887 252.296321,28.4089476 251.736213,26.7916177 C251.176104,25.1742877 250.346641,23.8962809 249.247823,22.9575972 C248.149005,22.0189135 246.79027,21.5495716 245.171618,21.5495716 C243.515697,21.5495716 242.129131,22.0189135 241.01192,22.9575972 C239.894708,23.8962809 239.056048,25.1742877 238.495939,26.7916177 C237.935831,28.4089476 237.655777,30.2501887 237.655777,32.3153409 C237.655777,34.3711159 237.935831,36.206887 238.495939,37.822654 C239.056048,39.4384211 239.894708,40.7125808 241.01192,41.6451333 C242.129131,42.5776857 243.515697,43.043962 245.171618,43.043962 Z" id="Shape"></path>
                <path d="M268.992596,49.9686779 L268.992596,14.5141324 L278.354667,14.5141324 L278.354667,20.7741477 L278.760773,20.7741477 C279.499409,18.6873557 280.733536,17.0453806 282.463152,15.8482222 C284.192768,14.6510639 286.25786,14.0524847 288.658428,14.0524847 C291.089773,14.0524847 293.157991,14.6580367 294.863082,15.8691406 C296.568173,17.0802446 297.706844,18.715247 298.279095,20.7741477 L298.648413,20.7741477 C299.371661,18.739772 300.682789,17.1109009 302.581796,15.8875344 C304.480803,14.6641679 306.727489,14.0524847 309.321853,14.0524847 C312.630328,14.0524847 315.322492,15.1035147 317.398344,17.2055747 C319.474195,19.3076348 320.512121,22.282197 320.512121,26.1292614 L320.512121,49.9686779 L310.688402,49.9686779 L310.688402,28.0681818 C310.688402,26.0891076 310.166764,24.6094305 309.123488,23.6291504 C308.080213,22.6488703 306.773774,22.1587302 305.204171,22.1587302 C303.422019,22.1587302 302.02854,22.7243088 301.023735,23.855466 C300.01893,24.9866231 299.516527,26.4769398 299.516527,28.326416 L299.516527,49.9686779 L289.98819,49.9686779 L289.98819,27.8463745 C289.98819,26.1075014 289.491137,24.7248424 288.497032,23.6983975 C287.502926,22.6719527 286.196427,22.1587302 284.577534,22.1587302 C283.484968,22.1587302 282.504748,22.4295876 281.636874,22.9713024 C280.769001,23.5130171 280.081939,24.2740146 279.575689,25.2542947 C279.06944,26.2345748 278.816315,27.3817213 278.816315,28.6957342 L278.816315,49.9686779 L268.992596,49.9686779 Z" id="Path"></path>
                <path d="M374.866903,17.9671131 C374.54375,16.8560329 374.088234,15.8657744 373.500354,14.9963379 C372.912475,14.1269013 372.200768,13.3851993 371.365233,12.7712319 C370.529699,12.1572645 369.574064,11.6909883 368.498329,11.3724032 C367.422593,11.0538182 366.243108,10.8945257 364.959871,10.8945257 C362.5468,10.8945257 360.427007,11.493165 358.600493,12.6904436 C356.773979,13.8877221 355.352128,15.6312237 354.33494,17.9209484 C353.317753,20.210673 352.809159,22.9959476 352.809159,26.2767722 C352.809159,29.5761108 353.309277,32.3798995 354.309514,34.6881381 C355.309751,36.9963767 356.72547,38.7537638 358.556673,39.9602994 C360.387876,41.166835 362.553051,41.7701028 365.052201,41.7701028 C367.308023,41.7701028 369.239971,41.3668823 370.848044,40.5604415 C372.456117,39.7540006 373.686456,38.6105809 374.539061,37.1301824 C375.391667,35.649784 375.81797,33.9063425 375.81797,31.899858 L377.84922,32.1858631 L365.680114,32.1858631 L365.680114,24.6703824 L385.45703,24.6703824 L385.45703,30.6350153 C385.45703,34.7773419 384.579118,38.3404449 382.823294,41.3243242 C381.06747,44.3082035 378.651513,46.6026167 375.575425,48.2075639 C372.499336,49.8125111 368.973081,50.6149847 364.996659,50.6149847 C360.561715,50.6149847 356.668486,49.6347647 353.316971,47.6743247 C349.965457,45.7138848 347.3533,42.9224789 345.480501,39.3001071 C343.607702,35.6777353 342.671302,31.3736517 342.671302,26.3878562 C342.671302,22.5468029 343.23069,19.1228554 344.349464,16.116014 C345.468238,13.1091725 347.033994,10.5585688 349.04673,8.46420288 C351.059466,6.36983698 353.406175,4.77715232 356.086858,3.6861489 C358.76754,2.59514549 361.66979,2.04964378 364.793606,2.04964378 C367.471163,2.04964378 369.964842,2.43663441 372.274643,3.21061568 C374.584445,3.98459695 376.635712,5.08022886 378.428444,6.49751143 C380.221176,7.914794 381.686907,9.59596114 382.825638,11.5410129 C383.964369,13.4860646 384.693749,15.628098 385.013776,17.9671131 L374.866903,17.9671131 Z" id="Path"></path>
                <path d="M395.00393,49.9686779 L395.00393,14.5141324 L404.827649,14.5141324 L404.827649,49.9686779 L395.00393,49.9686779 Z M399.941036,9.93444269 C398.477709,9.93444269 397.224347,9.44802949 396.180951,8.47520308 C395.137555,7.50237667 394.615857,6.3328691 394.615857,4.96668035 C394.615857,3.60049161 395.138217,2.43116437 396.182935,1.45869862 C397.227653,0.486232873 398.47807,0 399.934183,0 C401.402079,0 402.65538,0.486413204 403.694088,1.45923961 C404.732795,2.43206602 405.252149,3.6015736 405.252149,4.96776234 C405.252149,6.33395108 404.732795,7.50327833 403.694088,8.47574407 C402.65538,9.44820982 401.404363,9.93444269 399.941036,9.93444269 Z" id="Shape"></path>
                <path d="M431.5478,14.5141324 L431.5478,21.900496 L410.182526,21.900496 L410.182526,14.5141324 L431.5478,14.5141324 Z M415.039205,6.01981423 L424.862924,6.01981423 L424.862924,39.0644143 C424.862924,39.9754472 425.004484,40.6825857 425.287604,41.1858299 C425.570724,41.689074 425.961622,42.0399383 426.460297,42.2384227 C426.958973,42.4369072 427.53447,42.5361495 428.186788,42.5361495 C428.657813,42.5361495 429.12487,42.4946132 429.587961,42.4115406 C430.051051,42.3284681 430.402697,42.259281 430.642898,42.2039795 L432.194106,49.5348011 C431.704567,49.6918095 431.011254,49.8734029 430.114167,50.0795815 C429.21708,50.2857601 428.131486,50.4119318 426.857387,50.4580966 C424.487595,50.5504261 422.413246,50.2357483 420.634339,49.5140631 C418.855432,48.7923778 417.473555,47.6666907 416.488706,46.1370017 C415.503858,44.6073128 415.020691,42.6869063 415.039205,40.3757824 L415.039205,6.01981423 Z" id="Shape"></path>
                <path d="M448.499367,29.4715188 L448.499367,49.9686779 L438.675647,49.9686779 L438.675647,2.69595059 L448.222378,2.69595059 L448.222378,20.7741477 L448.628484,20.7741477 C449.440936,18.6844704 450.73968,17.0417739 452.524718,15.8460582 C454.309756,14.6503425 456.544179,14.0524847 459.227988,14.0524847 C461.699246,14.0524847 463.854323,14.5864452 465.69322,15.6543662 C467.532117,16.7222873 468.960159,18.251856 469.977347,20.2430725 C470.994535,22.234289 471.49856,24.6148404 471.489545,27.3847268 L471.489545,49.9686779 L461.665704,49.9686779 L461.665704,29.1389881 C461.674841,26.9601071 461.123148,25.2612675 460.010625,24.0424694 C458.898102,22.8236713 457.338478,22.2142722 455.331753,22.2142722 C453.998986,22.2142722 452.817877,22.5012392 451.788426,23.0751731 C450.758976,23.649107 449.955721,24.4770073 449.378661,25.558874 C448.801602,26.6407406 448.508503,27.9449555 448.499367,29.4715188 Z" id="Path"></path>
                <path d="M501.976624,34.86342 L501.976624,14.5141324 L511.800343,14.5141324 L511.800343,49.9686779 L502.364335,49.9686779 L502.364335,43.5240035 L501.995017,43.5240035 C501.201079,45.6014182 499.876186,47.2718256 498.020339,48.5352256 C496.164491,49.7986256 493.907045,50.4303256 491.248002,50.4303256 C488.875085,50.4303256 486.787632,49.8932994 484.985643,48.8192472 C483.183654,47.7451949 481.778694,46.2125004 480.770763,44.2211637 C479.762832,42.229827 479.254298,39.8554669 479.245162,37.0980835 L479.245162,14.5141324 L489.068881,14.5141324 L489.068881,35.3438221 C489.078018,37.4303737 489.638908,39.0814856 490.751551,40.297158 C491.864194,41.5128303 493.352948,42.1206665 495.217812,42.1206665 C496.396697,42.1206665 497.500865,41.8460222 498.530315,41.2967335 C499.559765,40.7474448 500.393797,39.9349328 501.03241,38.8591974 C501.671022,37.7834621 501.98576,36.4515362 501.976624,34.86342 Z" id="Path"></path>
                <path d="M519.851587,49.9686779 L519.851587,2.69595059 L529.675307,2.69595059 L529.675307,20.4787653 L529.970689,20.4787653 C530.407812,19.5121904 531.037228,18.5341945 531.858937,17.5447776 C532.680646,16.5553607 533.757763,15.7259577 535.09029,15.0565685 C536.422817,14.3871793 538.077055,14.0524847 540.053003,14.0524847 C542.650493,14.0524847 545.03952,14.7249395 547.220084,16.0698492 C549.400649,17.4147589 551.145713,19.4383147 552.455278,22.1405168 C553.764843,24.8427189 554.419625,28.2219442 554.419625,32.2781927 C554.419625,36.2361006 553.783297,39.5722869 552.51064,42.2867515 C551.237983,45.0012161 549.514498,47.0555485 547.340185,48.4497486 C545.165872,49.8439488 542.730681,50.5410489 540.03461,50.5410489 C538.126466,50.5410489 536.508354,50.2248082 535.180276,49.5923268 C533.852197,48.9598453 532.765762,48.1642844 531.920971,47.2056441 C531.076179,46.2470037 530.426086,45.278385 529.970689,44.299788 L529.545829,44.299788 L529.545829,49.9686779 L519.851587,49.9686779 Z M529.472254,32.2414051 C529.472254,34.3464707 529.765352,36.1830833 530.351549,37.7512429 C530.937745,39.3194025 531.784099,40.5382006 532.890611,41.4076372 C533.997123,42.2770737 535.338186,42.711792 536.913799,42.711792 C538.526681,42.711792 539.886317,42.2693796 540.992709,41.3845548 C542.099101,40.49973 542.939324,39.2701721 543.513378,37.6958812 C544.087432,36.1215904 544.374459,34.3034317 544.374459,32.2414051 C544.374459,30.1916411 544.090498,28.3888707 543.522575,26.8330938 C542.954652,25.2773169 542.117495,24.0631473 541.011103,23.190585 C539.904711,22.3180228 538.538943,21.8817416 536.913799,21.8817416 C535.325923,21.8817416 533.978729,22.3057001 532.872217,23.1536172 C531.765705,24.0015342 530.922417,25.2003155 530.342352,26.7499612 C529.762287,28.2996068 529.472254,30.1300881 529.472254,32.2414051 Z" id="Shape"></path>
            </g>
        </g>
    </g>
</svg>