<?xml version="1.0" encoding="UTF-8"?>
<svg width="24px" height="24px" viewBox="0 0 24 24" version="1.1" xmlns="http://www.w3.org/2000/svg" xmlns:xlink="http://www.w3.org/1999/xlink">
    <title>university</title>
    <defs>
        <polygon id="path-1" points="0 24 24 24 24 0 0 0"></polygon>
    </defs>
    <g id="university" stroke="none" stroke-width="1" fill="none" fill-rule="evenodd">
        <g id="Group">
            <path d="M12,24 L12,24 C5.373,24 0,18.627 0,12 C0,5.373 5.373,0 12,0 C18.627,0 24,5.373 24,12 C24,18.627 18.627,24 12,24" id="Fill-1" fill="#FFDD00"></path>
            <mask id="mask-2" fill="white">
                <use xlink:href="#path-1"></use>
            </mask>
            <g id="Clip-4"></g>
            <path d="M6.002,16.986 L18.116,16.986 L18.116,16.242 L6.002,16.242 L6.002,16.986 Z M7.462,15.31 L9.022,15.31 L9.022,9.646 L7.462,9.646 L7.462,15.31 Z M12,4.969 L15.559,6.512 L8.432,6.512 L12,4.969 Z M12.445,15.31 L14.006,15.31 L14.006,9.646 L12.445,9.646 L12.445,15.31 Z M9.954,15.311 L11.514,15.311 L11.514,9.647 L9.954,9.647 L9.954,15.311 Z M6.704,8.715 L17.285,8.715 L17.285,7.444 L6.704,7.444 L6.704,8.715 Z M14.936,15.311 L16.497,15.311 L16.497,9.647 L14.936,9.647 L14.936,15.311 Z M19.048,16.986 L19.048,15.776 C19.048,15.519 18.839,15.311 18.582,15.311 L17.429,15.311 L17.429,9.646 L17.75,9.646 C18.008,9.646 18.216,9.438 18.216,9.18 L18.216,6.955 C18.216,6.769 18.106,6.601 17.936,6.527 L12.185,4.035 C12.067,3.983 11.933,3.983 11.815,4.035 L6.054,6.525 C5.883,6.599 5.773,6.767 5.773,6.953 L5.773,9.18 C5.773,9.438 5.981,9.646 6.238,9.646 L6.531,9.646 L6.531,15.311 L5.537,15.311 C5.28,15.311 5.071,15.519 5.071,15.776 L5.071,16.986 L4.226,16.986 L4.226,17.917 L5.537,17.917 L18.582,17.917 L19.734,17.917 L19.734,16.986 L19.048,16.986 Z" id="Fill-3" fill="#1D1D1B" mask="url(#mask-2)"></path>
        </g>
    </g>
</svg>