<?xml version="1.0" encoding="UTF-8"?>
<svg xmlns="http://www.w3.org/2000/svg" version="1.1" viewBox="0 0 1000 1000">
  <defs>
    <style>
      .cls-1 {
        stroke-width: 46px;
      }

      .cls-1, .cls-2, .cls-3 {
        stroke: #fff;
      }

      .cls-1, .cls-2, .cls-3, .cls-4 {
        fill: none;
        stroke-linecap: round;
        stroke-miterlimit: 10;
      }

      .cls-5 {
        fill: #c8d300;
      }

      .cls-6 {
        fill: #fd0;
      }

      .cls-7 {
        fill: #00558c;
      }

      .cls-2 {
        stroke-width: 65px;
      }

      .cls-8 {
        fill: #fff;
      }

      .cls-9, .cls-10 {
        fill: #002169;
      }

      .cls-11 {
        fill: #e31e25;
      }

      .cls-12 {
        fill: #28a1db;
      }

      .cls-13 {
        fill: #3ec8ec;
      }

      .cls-14 {
        isolation: isolate;
      }

      .cls-3 {
        stroke-width: 93px;
      }

      .cls-15 {
        fill: #818382;
      }

      .cls-4 {
        stroke: #000;
      }

      .cls-10, .cls-16 {
        fill-rule: evenodd;
      }

      .cls-17 {
        fill: #fab900;
      }

      .cls-18, .cls-16 {
        fill: #0e522e;
      }
    </style>
  </defs>
  <!-- Generator: Adobe Illustrator 28.6.0, SVG Export Plug-In . SVG Version: 1.2.0 Build 709)  -->
  <g>
    <g id="Camada_1">
      <g id="Camada_1-2" data-name="Camada_1">
        <g>
          <path class="cls-6" d="M365.3,532.8l50.5-50.5v-32.6h-52.1c-1.3,0-2.6-.5-3.5-1.4l-12.7-12.7-17,20.3c-.9,1.1-2.2,1.7-3.6,1.7h-.2c-1.3,0-2.6-.5-3.5-1.4l-41.8-41.9c-.9-.9-1.4-2.2-1.4-3.5v-54.2l-40.4-40.4-29,29c-1.9,1.9-5,1.9-6.9,0l-56.9-56.9-67.8,183.3v64.1h85l22.7,22.7h33.7l25.4-25.4h119.6v-.2h0Z"/>
          <path class="cls-6" d="M236.1,305.7c1.9-1.9,5-1.9,6.9,0l45.3,45.3c.9.9,1.4,2.2,1.4,3.5v54.2l36.6,36.7,17-20.2c.9-1.1,2.2-1.7,3.5-1.7s2.7.5,3.7,1.4l15.1,15.1h50v-54.7l77.4-77.1v51.3l23.6,23.6,29.6-29.6v-43.4l60.9-60.9-17.1-17.1v-69.7h-55.9l20.4,20.4-22.7,22.7-23.8-23.8h-68.3l31.5,31.5v27.8h-67v15.9l32.8,32.8h-43.4l-21.3-21.3-25.1,24v-35.5h-62.3l30.2-30.2v-34.7h-34l-21.9-21.9h-31.7v26.4l-54.3-54.3h-25v134.2l58.5,58.5,29-29,.4-.2h0Z"/>
          <path class="cls-6" d="M452.3,751c0-1.3.4-2.6,1.2-3.6l27.5-31.3-3.9-59.1-19.2,1.3c-1.3,0-2.6-.4-3.6-1.2-1-.9-1.6-2.1-1.7-3.4l-2.7-40.7-51.4-42.3-52.8,3.1-.9-14.8-90.6,5.3,76.8,129.8,9.5,163.3,26.6-29.9,117.2-6.8,19.8-22.2-50.3-44.1c-1-.9-1.6-2.1-1.7-3.4h.2Z"/>
          <path class="cls-6" d="M946.6,431.5l-33.7-29.5-65.6,4.3-4.7-72.1-31.8,36.2-13.8-12.1-59.5,3.9,6.2,94.6-64.2,4.2-40.3-35.4-23.5,26.8-44.1,2.9-63.8,4.2c-2.4.2-4.6,1.3-6.2,3.1l-29.2,33.3h-.9l-24,28.4-37.6,42.9,48.2,39.7c1,.9,1.7,2.1,1.8,3.5l2.5,37.9,19.2-1.3c1.3,0,2.6.4,3.6,1.2,1,.9,1.6,2.1,1.7,3.4l4.3,66c0,1.3-.4,2.6-1.2,3.6l-25.6,29.1,45.6,40,59-67.2,66.4-4.4,62.1,54.5,44.7-2.9-4.4-67.2,41.1-2.7,45-51.3-4.5-69.3,24.6-28,37.3-42.5,70.3-4.6-4.8-73.1h-.2,0Z"/>
        </g>
        <g>
          <path d="M425.1,312.4h-126.5c-16.6,0-30-13.4-30-30s13.4-30,30-30h126.5c16.6,0,30,13.4,30,30s-13.4,30-30,30Z"/>
          <g class="cls-14">
            <g class="cls-14">
              <path class="cls-8" d="M327.2,274.1v19.1c0,.4-.2.6-.6.6h-3.8c-.4,0-.6-.2-.6-.6l-.2-1.7c-1.5,1.7-3.5,2.9-6.2,2.9-5.7,0-9.9-4.7-9.9-10.7s4.2-10.7,9.9-10.7,4.7,1.2,6.2,3v-1.9c.2-.4.4-.6.7-.6h3.8c.4,0,.6.2.6.6h.1ZM321.7,283.7c0-3.1-2.2-5.7-5.2-5.7s-5.2,2.4-5.2,5.7,2.2,5.7,5.2,5.7,5.2-2.7,5.2-5.7ZM314.3,270.6l2.5-5.2c.2-.4.4-.5.7-.5h3.7c.5,0,.7.2.5.7l-2.5,5.2c-.2.4-.4.5-.7.5h-3.7c-.5,0-.7-.2-.5-.7Z"/>
              <path class="cls-8" d="M344.6,274.8l-1.2,3.1c-.2.5-.5.5-.9.4s-.9-.3-1.7-.3c-2.6,0-4.2,1.9-4.2,4.4v10.8c0,.4-.2.6-.6.6h-4.2c-.4,0-.6-.2-.6-.6v-19.1c0-.4.2-.6.6-.6h4c.4,0,.6.2.6.6l.2,2.2c1.1-2,2.7-3.3,5.2-3.3s2.2.5,2.7,1c.3.2.3.5.2.8h-.1Z"/>
              <path class="cls-8" d="M363.5,285.7h-13.1c.5,2.7,2.6,4.2,5.8,4.2s2.9-.4,4.3-1.4c.4-.2.6-.2.9,0l1.8,1.8c.3.3.3.6,0,.9-2,2-4.6,3.1-7.6,3.1-6.4,0-10.7-4.7-10.7-10.7s4.4-10.7,10.3-10.7,9.7,4.7,9.7,10.2-.2,2.5-1.5,2.5h.1ZM350.3,282.2h9.7c-.4-2.9-2.3-4.5-4.8-4.5s-4.5,1.6-4.9,4.5h0Z"/>
              <path class="cls-8" d="M388.5,274.1v19.1c0,.4-.2.6-.6.6h-3.8c-.4,0-.6-.2-.6-.6l-.2-1.7c-1.5,1.7-3.5,2.9-6.2,2.9-5.7,0-9.9-4.7-9.9-10.7s4.2-10.7,9.9-10.7,4.7,1.2,6.2,3v-1.9c.2-.4.4-.6.7-.6h3.8c.4,0,.6.2.6.6h.1ZM382.9,283.7c0-3.1-2.2-5.7-5.2-5.7s-5.2,2.4-5.2,5.7,2.2,5.7,5.2,5.7,5.2-2.7,5.2-5.7Z"/>
              <path class="cls-8" d="M421,290v3.2c0,.4-.2.6-.6.6h-17.1c-.4,0-.6-.2-.6-.6v-3.9l4.9-5c5.5-5.5,8.1-7.7,8.1-10.7s-1.9-4.2-4.5-4.2-3.7,1-4.8,2c-.3.3-.6.3-.9,0l-2.6-2.5c-.2-.2-.3-.6,0-.9,1.9-2.2,4.9-3.8,8.5-3.8,5.4,0,9.6,4,9.6,9s-3.4,7.3-8.6,12.7l-3.1,3.2h11c.4,0,.6.2.6.6v.3Z"/>
            </g>
          </g>
        </g>
        <g>
          <path d="M719.5,609.8h-126.5c-16.6,0-30-13.4-30-30s13.4-30,30-30h126.5c16.6,0,30,13.4,30,30s-13.4,30-30,30Z"/>
          <g class="cls-14">
            <g class="cls-14">
              <path class="cls-8" d="M621.5,571.5v19.1c0,.4-.2.6-.6.6h-3.8c-.4,0-.6-.2-.6-.6l-.2-1.7c-1.5,1.7-3.5,2.9-6.2,2.9-5.7,0-9.9-4.7-9.9-10.7s4.2-10.7,9.9-10.7,4.7,1.2,6.2,3v-1.9c.2-.4.4-.6.7-.6h3.8c.4,0,.6.2.6.6h0ZM616,581.1c0-3.1-2.2-5.7-5.2-5.7s-5.2,2.4-5.2,5.7,2.2,5.7,5.2,5.7,5.2-2.7,5.2-5.7ZM608.6,568l2.5-5.2c.2-.4.4-.5.7-.5h3.7c.5,0,.7.2.5.7l-2.5,5.2c-.2.4-.4.5-.7.5h-3.7c-.5,0-.7-.2-.5-.7Z"/>
              <path class="cls-8" d="M638.9,572.2l-1.2,3.1c-.2.5-.5.5-.9.4s-.9-.3-1.7-.3c-2.6,0-4.2,1.9-4.2,4.4v10.8c0,.4-.2.6-.6.6h-4.2c-.4,0-.6-.2-.6-.6v-19.1c0-.4.2-.6.6-.6h4c.4,0,.6.2.6.6l.2,2.2c1.1-2,2.7-3.3,5.2-3.3s2.2.5,2.7,1c.3.2.3.5.2.8h0Z"/>
              <path class="cls-8" d="M657.8,583.1h-13.1c.5,2.7,2.6,4.2,5.8,4.2s2.9-.4,4.3-1.4c.4-.2.6-.2.9,0l1.8,1.8c.3.3.3.6,0,.9-2,2-4.6,3.1-7.6,3.1-6.4,0-10.7-4.7-10.7-10.7s4.4-10.7,10.3-10.7,9.7,4.7,9.7,10.2-.2,2.5-1.5,2.5h0ZM644.6,579.6h9.7c-.4-2.9-2.3-4.5-4.8-4.5s-4.5,1.6-4.9,4.5Z"/>
              <path class="cls-8" d="M682.8,571.5v19.1c0,.4-.2.6-.6.6h-3.8c-.4,0-.6-.2-.6-.6l-.2-1.7c-1.5,1.7-3.5,2.9-6.2,2.9-5.7,0-9.9-4.7-9.9-10.7s4.2-10.7,9.9-10.7,4.7,1.2,6.2,3v-1.9c.2-.4.4-.6.7-.6h3.8c.4,0,.6.2.6.6h0ZM677.2,581.1c0-3.1-2.2-5.7-5.2-5.7s-5.2,2.4-5.2,5.7,2.2,5.7,5.2,5.7,5.2-2.7,5.2-5.7Z"/>
              <path class="cls-8" d="M716.9,581.2v3.2c0,.4-.2.6-.6.6h-2.6v5.7c0,.4-.2.6-.6.6h-4.2c-.4,0-.6-.2-.6-.6v-5.7h-10.6c-.4,0-.6-.2-.6-.6v-3.4c0-.3,0-.5.2-.8l10.8-17.6c.2-.3.4-.4.7-.4h4.4c.4,0,.6.2.6.6v17.7h2.6c.4,0,.6.2.6.6h-.1ZM708.2,570.8l-5.8,9.7h5.8v-9.7Z"/>
            </g>
          </g>
        </g>
        <g>
          <path d="M204.4,506.8h-126.4c-16.6,0-30-13.4-30-30s13.4-30,30-30h126.4c16.6,0,30,13.4,30,30s-13.4,30-30,30Z"/>
          <g class="cls-14">
            <g class="cls-14">
              <path class="cls-8" d="M106.5,468.5v19.1c0,.4-.2.6-.6.6h-3.8c-.4,0-.6-.2-.6-.6l-.2-1.7c-1.5,1.7-3.5,2.9-6.2,2.9-5.7,0-9.9-4.7-9.9-10.7s4.2-10.7,9.9-10.7,4.7,1.2,6.2,3v-1.9c.2-.4.4-.6.7-.6h3.8c.4,0,.6.2.6.6h0ZM101,478.1c0-3.1-2.2-5.7-5.2-5.7s-5.2,2.4-5.2,5.7,2.2,5.7,5.2,5.7,5.2-2.7,5.2-5.7ZM93.6,465l2.5-5.2c.2-.4.4-.5.7-.5h3.7c.5,0,.7.2.5.7l-2.5,5.2c-.2.4-.4.5-.7.5h-3.7c-.5,0-.7-.2-.5-.7Z"/>
              <path class="cls-8" d="M123.9,469.2l-1.2,3.1c-.2.5-.5.5-.9.4s-.9-.3-1.7-.3c-2.6,0-4.2,1.9-4.2,4.4v10.8c0,.4-.2.6-.6.6h-4.2c-.4,0-.6-.2-.6-.6v-19.1c0-.4.2-.6.6-.6h4c.4,0,.6.2.6.6l.2,2.2c1.1-2,2.7-3.3,5.2-3.3s2.2.5,2.7,1c.3.2.3.5.2.8h0Z"/>
              <path class="cls-8" d="M142.8,480.1h-13.1c.5,2.7,2.6,4.2,5.8,4.2s2.9-.4,4.3-1.4c.4-.2.6-.2.9,0l1.8,1.8c.3.3.3.6,0,.9-2,2-4.6,3.1-7.6,3.1-6.4,0-10.7-4.7-10.7-10.7s4.4-10.7,10.3-10.7,9.7,4.7,9.7,10.2-.2,2.5-1.5,2.5h.1ZM129.6,476.6h9.7c-.4-2.9-2.3-4.5-4.8-4.5s-4.5,1.6-4.9,4.5Z"/>
              <path class="cls-8" d="M167.8,468.5v19.1c0,.4-.2.6-.6.6h-3.8c-.4,0-.6-.2-.6-.6l-.2-1.7c-1.5,1.7-3.5,2.9-6.2,2.9-5.7,0-9.9-4.7-9.9-10.7s4.2-10.7,9.9-10.7,4.7,1.2,6.2,3v-1.9c.2-.4.4-.6.7-.6h3.8c.4,0,.6.2.6.6h.1ZM162.2,478.1c0-3.1-2.2-5.7-5.2-5.7s-5.2,2.4-5.2,5.7,2.2,5.7,5.2,5.7,5.2-2.7,5.2-5.7Z"/>
              <path class="cls-8" d="M191.7,459.8v27.9c0,.4-.2.6-.6.6h-4.2c-.4,0-.6-.2-.6-.6v-24h-3.8c-.4,0-.6-.2-.6-.6v-3.2c0-.4.2-.6.6-.6h8.7c.4,0,.6.2.6.6h0Z"/>
            </g>
          </g>
        </g>
        <g>
          <path d="M394.8,805h-126.4c-16.6,0-30-13.4-30-30s13.4-30,30-30h126.4c16.6,0,30,13.4,30,30s-13.4,30-30,30Z"/>
          <g class="cls-14">
            <g class="cls-14">
              <path class="cls-8" d="M296.9,766.7v19.1c0,.4-.2.6-.6.6h-3.8c-.4,0-.6-.2-.6-.6l-.2-1.7c-1.5,1.7-3.5,2.9-6.2,2.9-5.7,0-9.9-4.7-9.9-10.7s4.2-10.7,9.9-10.7,4.7,1.2,6.2,3v-1.9c.2-.4.4-.6.7-.6h3.8c.4,0,.6.2.6.6h.1ZM291.4,776.3c0-3.1-2.2-5.7-5.2-5.7s-5.2,2.4-5.2,5.7,2.2,5.7,5.2,5.7,5.2-2.7,5.2-5.7ZM284,763.2l2.5-5.2c.2-.4.4-.5.7-.5h3.7c.5,0,.7.2.5.7l-2.5,5.2c-.2.4-.4.5-.7.5h-3.7c-.5,0-.7-.2-.5-.7Z"/>
              <path class="cls-8" d="M314.3,767.4l-1.2,3.1c-.2.5-.5.5-.9.4s-.9-.3-1.7-.3c-2.6,0-4.2,1.9-4.2,4.4v10.8c0,.4-.2.6-.6.6h-4.2c-.4,0-.6-.2-.6-.6v-19.1c0-.4.2-.6.6-.6h4c.4,0,.6.2.6.6l.2,2.2c1.1-2,2.7-3.3,5.2-3.3s2.2.5,2.7,1c.3.2.3.5.2.8h-.1Z"/>
              <path class="cls-8" d="M333.2,778.3h-13.1c.5,2.7,2.6,4.2,5.8,4.2s2.9-.4,4.3-1.4c.4-.2.6-.2.9,0l1.8,1.8c.3.3.3.6,0,.9-2,2-4.6,3.1-7.6,3.1-6.4,0-10.7-4.7-10.7-10.7s4.4-10.7,10.3-10.7,9.7,4.7,9.7,10.2-.2,2.5-1.5,2.5h.1ZM320,774.8h9.7c-.4-2.9-2.3-4.5-4.8-4.5s-4.5,1.6-4.9,4.5h0Z"/>
              <path class="cls-8" d="M358.2,766.7v19.1c0,.4-.2.6-.6.6h-3.8c-.4,0-.6-.2-.6-.6l-.2-1.7c-1.5,1.7-3.5,2.9-6.2,2.9-5.7,0-9.9-4.7-9.9-10.7s4.2-10.7,9.9-10.7,4.7,1.2,6.2,3v-1.9c.2-.4.4-.6.7-.6h3.8c.4,0,.6.2.6.6h.1ZM352.6,776.3c0-3.1-2.2-5.7-5.2-5.7s-5.2,2.4-5.2,5.7,2.2,5.7,5.2,5.7,5.2-2.7,5.2-5.7Z"/>
              <path class="cls-8" d="M391.2,778.1c0,5-3.8,8.9-9.9,8.9s-6.9-1.4-8.8-3.6c-.2-.3-.2-.6,0-.9l2.5-2.4c.3-.3.6-.3.9,0,1.2,1.1,2.6,1.9,4.9,1.9s4.9-2,4.9-4.3-1.5-4.1-5.7-4.2c-.4,0-.6-.2-.6-.6v-3c0-.4.2-.6.7-.6,4.1,0,5.1-2.1,5.1-3.9s-2.1-3.4-4-3.4-3.2.7-4.4,1.9c-.3.3-.6.3-.9,0l-2.5-2.4c-.2-.2-.3-.6,0-.9,1.8-2.2,4.8-3.6,8.1-3.6s8.7,3.2,8.7,7.9-1.4,4.7-3.6,6.2c2.6,1.3,4.6,3.6,4.6,7h0Z"/>
            </g>
          </g>
        </g>
        <line class="cls-4" x1="656.2" y1="634.4" x2="656.2" y2="601.1"/>
        <g>
          <line class="cls-1" x1="593" y1="650.6" x2="719.5" y2="650.6"/>
          <g>
            <path class="cls-13" d="M612.5,641.7c.5-.3,1.1-.6,1.6-.9.5.3,1.1.6,1.6.9v13.9c0,.4,0,.9.6,1.1.5.3,1.2,0,1.7.2v3.1h-1.7c-.5,0-.9,0-1.4-.3-.4-.2-.7-.4-1.1-.6-.6-.5-1-1.1-1.2-1.8-.2-.6-.2-1.2-.2-1.9v-13.7h.1Z"/>
            <g>
              <path class="cls-11" d="M679.1,651c.2-.4.5-.9.8-1.3-.3-.4-.5-.9-.8-1.3h-2.7v2.6h2.7Z"/>
              <path class="cls-11" d="M680.3,657.8c-.5,0-3,0-3.4,0-.3-.2-.5-.6-.5-.9v-11.2c-.4-.2-.9-.5-1.3-.8-.4.3-.9.5-1.3.8h0v11c0,.5,0,1,.2,1.5.2.6.5,1.1,1,1.5.3.2.6.4.9.5.4,0,.7.2,1.1.2h3.4v-2.5h-.1Z"/>
            </g>
            <path class="cls-11" d="M706.4,660.2v-14.6c-.4-.2-.9-.5-1.3-.8-.4.3-.9.5-1.3.8h0v14.6h2.6Z"/>
            <path class="cls-11" d="M694,654.1c-.4-.2-.8-.5-1.3-.7-.4.2-.8.5-1.3.7h2.6Z"/>
            <path class="cls-11" d="M711.9,660.2v-12.6c-.4-.2-.9-.5-1.3-.8-.4.3-.9.5-1.3.8h0v12.6h2.6Z"/>
            <path class="cls-13" d="M626.1,644.6c1.7,0,3.4,0,5.1.3v3.1c-.5,0-1,0-1.5-.2-1.2,0-2.3-.2-3.5,0-.7,0-1.4,0-2,.5-.4.3-.5.9-.4,1.3.2.5.7.7,1.1.9,1,.3,2.1.5,3.2.7,1,.3,2,.6,2.9,1.3.7.5,1.1,1.3,1.2,2.2,0,1,0,2.1-.4,3-.4.8-1.2,1.5-2,1.9-.7.3-1.5.4-2.3.5h-5.9c-.3-.5-.6-1-1-1.4v-.2c.3-.5.6-.9,1-1.4h5.5c.5,0,1,0,1.4-.3.3-.2.5-.5.5-.8s0-.8-.4-1.1c-.2-.2-.5-.3-.8-.4-.7-.2-1.3-.4-2-.5-1-.2-2.1-.5-3.1-1-.3,0-.5-.3-.8-.5-.4-.3-.8-.7-1.1-1.2-.4-.8-.4-1.6-.4-2.5s.6-2.1,1.4-2.8c1.2-.9,2.8-1.2,4.2-1.3h0Z"/>
            <path class="cls-13" d="M599.4,645.4c2.1-.8,4.4-1,6.7-.8,1,0,1.9.2,2.8.5v14.8h-3.2v-12.2c-1,0-1.9-.2-2.9,0-1.1,0-2.2.4-3.1,1.1-.9.7-1.4,1.8-1.5,3,0,.8,0,1.6.2,2.4.2.6.5,1.1.9,1.5h0c.4.4.7.6,1.1.8.6.2,1.3.3,1.9.3.4.5.7,1,1,1.5,0,0,0,.3,0,.4-.3.4-.6.9-.9,1.3-.9,0-1.8,0-2.7-.4-1.5-.4-2.8-1.4-3.7-2.6-.7-1.1-1.1-2.3-1.3-3.6v-1.3c0-1.8.7-3.7,2-5s1.5-1.2,2.4-1.6h.3Z"/>
            <path class="cls-13" d="M639.2,645.2c1.8-.6,3.8-.7,5.7-.6,1.1,0,2.2.2,3.2.5v14c-.5.3-1.1.6-1.6.9-.4-.2-.8-.4-1.1-.7,0,0,0,0-.2,0,0,0-.3-.2-.3-.3v-11.2c-1.2-.2-2.5-.2-3.8,0-1.1.2-2.2.7-2.9,1.6-.8,1-.9,2.3-.8,3.5,0,.2,0,.4,0,.5h0c.2.9.6,1.7,1.3,2.3.7.5,1.5.8,2.3.9.4,0,.8,0,1.1,0v3.2c-2,0-4-.5-5.6-1.7-.8-.6-1.3-1.4-1.8-2.3-.8-1.6-.9-3.5-.6-5.3.2-.9.5-1.8,1-2.6.9-1.4,2.4-2.4,3.9-2.9h0Z"/>
            <path class="cls-11" d="M700.8,650.2c.3,0,.6,0,.9,0h3.4v-2.5h-3.4c-.8,0-1.6.2-2.4.5h0c-1.3.4-2.4,1.2-3.2,2.3-.4.6-.7,1.4-.8,2.1-.2,1.4,0,3,.5,4.3.3.7.8,1.3,1.4,1.8,1.3,1,2.9,1.4,4.5,1.4v-2.5h-.9c-.7,0-1.3-.3-1.9-.7-.5-.4-.9-1.1-1-1.7h0c0,0,0-.3,0-.4,0-1,0-2,.7-2.8.5-.7,1.4-1.1,2.3-1.3v-.4Z"/>
            <path class="cls-11" d="M687.6,660.4c-3.5,0-6.3-2.8-6.3-6.3s2.8-6.3,6.3-6.3,2.7.4,3.8,1.3l-1.5,2c-.7-.5-1.5-.8-2.3-.8-2.1,0-3.8,1.7-3.8,3.8s1.7,3.8,3.8,3.8,3.8-1.7,3.8-3.8h2.5c0,3.5-2.8,6.3-6.3,6.3Z"/>
            <rect class="cls-15" x="661.1" y="641.5" width=".3" height="18.8"/>
          </g>
        </g>
        <path class="cls-4" d="M371.1,255.1v-90.1,90.1Z"/>
        <g>
          <line class="cls-3" x1="283.2" y1="132.3" x2="463.7" y2="132.3"/>
          <g>
            <path class="cls-16" d="M416.9,156.7h0l-2.4-8.1c-.2-.8-.8-.9-1.3-.9s-1.1.2-1.3.9l-2.4,8.1h0c0,.1,0,.2.2.2h.8c.1,0,.2,0,.2-.2l.8-2.9h3.4l.9,2.9s.1.2.2.2h.8c.1,0,.2,0,.2-.2M414.5,152.9h-2.9l1.2-4.1c0-.1.1-.2.3-.2s.2,0,.3.2l1.2,4.1h-.1Z"/>
            <path class="cls-16" d="M423.7,154v-.9c0-1.8-1-3-3-3s-2.9,1.2-2.9,3v.9c0,1.8,1,3,2.9,3s3-1.2,3-3M422.5,154c0,1.3-.6,2.1-1.8,2.1s-1.8-.8-1.8-2.1v-.9c0-1.3.5-2.1,1.8-2.1s1.8.8,1.8,2.1v.9Z"/>
            <path class="cls-16" d="M433.1,155.2c0-.7-.4-1.3-1.5-1.9l-1.3-.7c-.6-.3-.9-.6-.9-.9,0-.6.5-.7,1.2-.7s1.6,0,2.1.1h0c.1,0,.2,0,.2-.2v-.4c0-.1,0-.2-.3-.2-.6-.1-1.3-.2-2.1-.2-1.4,0-2.4.4-2.4,1.7s.5,1.3,1.3,1.8l1.3.7c.8.4,1,.7,1,1,0,.7-.4.9-1.3.9s-1.4,0-2.1-.1h0c-.1,0-.2,0-.2.2v.4c0,.1.1.2.3.2.7.2,1.6.2,2.1.2,1.5,0,2.5-.5,2.5-1.8"/>
            <path class="cls-16" d="M440.3,153.6v-.7c0-1.8-1-2.9-2.9-2.9s-2.9,1.1-2.9,2.9v1.1c0,2.3,1.5,3,3,3s1.6,0,2.4-.2c.2,0,.3-.1.3-.3v-.4c0-.1-.1-.2-.2-.2h0c-.6,0-1.6.1-2.4.1-1.2,0-1.8-.5-1.8-2v-.2h4.4c.2,0,.3-.1.3-.3M439.1,153h-3.5c0-1.5.6-2.1,1.8-2.1s1.7.5,1.7,2h0Z"/>
            <path class="cls-16" d="M447.4,156.7v-6.3c0-.1-.1-.2-.3-.2h-.7c-.1,0-.3.1-.3.2v5.2c-.6.3-1.2.5-1.8.5-1,0-1.5-.4-1.5-1.6v-4.1c0-.1-.1-.2-.3-.2h-.6c-.1,0-.3.1-.3.2v4.1c0,1.7.7,2.6,2.3,2.6s1.4-.2,2.1-.6v.2c0,.1.1.2.3.2h.7c.1,0,.3-.1.3-.2"/>
            <path class="cls-16" d="M455.8,150.7v-.5c0-.1,0-.2-.3-.2-.6,0-1.2.2-1.9.6v-.3c0-.1-.1-.2-.3-.2h-.6c-.1,0-.3.1-.3.2v6.3c0,.1.1.2.3.2h.7c.1,0,.3-.1.3-.2v-5.2c.7-.4,1.2-.5,1.8-.5s.3,0,.3-.2"/>
            <path class="cls-16" d="M458.3,148.7v-1c0-.1-.1-.3-.3-.3h-.7c-.1,0-.3.1-.3.3v1c0,.1.1.3.3.3h.7c.1,0,.3-.1.3-.3M458.3,156.7v-6.3c0-.1-.1-.2-.3-.2h-.6c-.1,0-.3.1-.3.2v6.3c0,.1.1.2.3.2h.6c.1,0,.3-.1.3-.2"/>
            <path class="cls-16" d="M464.1,156.7v-.4c0-.1,0-.2-.3-.2h-.7c-.5,0-.7-.1-.7-.8v-4.3h1.4c.1,0,.3-.1.3-.2v-.4c0-.1-.1-.2-.3-.2h-1.4v-1.4c0-.1,0-.2-.2-.2h-.7c-.1.1-.2.2-.2.3v1.2h-1.3c-.1,0-.3,0-.3.2v.3c0,.1.1.2.3.2h1.3v4.5c0,1.4.6,1.7,1.8,1.7s.6,0,.9,0,.2,0,.2-.2"/>
            <path class="cls-16" d="M474.1,156.7v-4.4c0-1.7-1-2.3-2.1-2.3s-1.5.2-2.2.5c-.3-.4-.8-.5-1.3-.5s-1.4.3-1.9.6v-.2c0-.1-.1-.2-.3-.2h-.7c-.1,0-.3.1-.3.2v6.3c0,.1,0,.2.2.2h.7c.1,0,.2-.1.2-.2v-5.2c.6-.3,1.1-.5,1.6-.5s1,.2,1,1.3v4.4c0,.1,0,.2.2.2h.7c.1,0,.2-.1.2-.2v-4.4c0-.4,0-.7-.1-1,.5-.2,1.1-.3,1.6-.3s1.2.3,1.2,1.3v4.4c0,.1.1.2.3.2h.6c.1,0,.3-.1.3-.2"/>
            <path class="cls-16" d="M481.6,154v-.9c0-1.8-1-3-3-3s-2.9,1.2-2.9,3v.9c0,1.8,1,3,2.9,3s3-1.2,3-3M480.4,154c0,1.3-.6,2.1-1.8,2.1s-1.8-.8-1.8-2.1v-.9c0-1.3.5-2.1,1.8-2.1s1.8.8,1.8,2.1v.9Z"/>
            <path class="cls-16" d="M484.2,156.7v-1.2c0-.1-.1-.2-.3-.2h-.6c-.1,0-.2.1-.2.2v1.2c0,.1.1.2.2.2h.6c.1,0,.3-.1.3-.2"/>
            <path class="cls-18" d="M398.6,127.9c1.3,0,2.4,1.1,2.4,2.4s0,.3,0,.4c-1.3,8.1-8.4,14.4-16.9,14.4s-17.2-7.7-17.2-17.2,7.7-17.2,17.2-17.2,15.6,6.2,16.9,14.4v.4c0,1.3-1.1,2.4-2.4,2.4"/>
            <path class="cls-8" d="M396.2,130c.2-1.2,1.1-2.1,2.3-2.1-1.2,0-2.2-1-2.3-2.1-1-5.9-6.1-10.3-12.3-10.3s-12.4,5.6-12.4,12.4,5.6,12.4,12.4,12.4,11.3-4.4,12.3-10.3"/>
            <path class="cls-17" d="M372.9,127.9c0-1.8,1.5-3.2,3.2-3.2s3.2,1.4,3.2,3.2-1.5,3.2-3.2,3.2-3.2-1.5-3.2-3.2"/>
            <path class="cls-5" d="M380.6,127.9c0-1.8,1.5-3.2,3.2-3.2s3.2,1.4,3.2,3.2-1.5,3.2-3.2,3.2-3.2-1.5-3.2-3.2"/>
            <path class="cls-12" d="M388.3,127.9c0-1.8,1.5-3.2,3.2-3.2s3.2,1.4,3.2,3.2-1.5,3.2-3.2,3.2-3.2-1.5-3.2-3.2"/>
            <path class="cls-16" d="M445.9,130.4c0,1-.7,1.5-2.8,1.5s-1.4,0-1.7,0v-3.3h2.3c1.7,0,2.2.7,2.2,1.6v.2ZM445.8,125.1c0,.8-.5,1.4-2.1,1.4h-2.3v-3h1.6c2.1,0,2.9.4,2.9,1.4v.3h-.1ZM449.3,130.4v-.3c0-1.2-.7-2.1-1.9-2.6,1.1-.5,1.7-1.4,1.7-2.6v-.3c0-2.8-2.6-3.7-6.6-3.7s-3,0-3.7.2c-.8,0-1.1.4-1.1,1.1v10.6c0,.8.3,1,1.1,1.1.8.1,2.4.2,3.8.2,3.6,0,6.6-.8,6.6-3.9M423.6,133.8v-12.3c0-.2-.2-.3-.4-.3h-2.8c-.2,0-.4,0-.4.3v12.3c0,.2.1.3.4.3h2.8c.2,0,.4-.2.4-.3M436,130.5c0-1.4-.6-2.6-2.8-3.6l-2.7-1.2c-1.1-.5-1.4-.7-1.4-1.2s.4-.9,1.6-.9,3.8.2,4.4.2.4,0,.4-.3v-1.8c0-.2-.1-.3-.3-.3-.8-.2-2.9-.4-4.4-.4-4,0-5.3,1.5-5.3,3.4s.5,2.4,2.5,3.3l2.9,1.4c1.1.5,1.4.8,1.4,1.3,0,.8-.4,1.2-1.9,1.2s-3.1-.1-4-.2c-.3,0-.4,0-.4.3v1.7c0,.2.2.3.4.3,1.1.2,2.3.4,3.9.4,4.2,0,5.7-2,5.7-3.8M459.9,128.7c0,2.1-.8,3-2.6,3s-2.6-.9-2.6-3v-2.1c0-2.1.8-3,2.6-3s2.6.9,2.6,3v2.1ZM463.5,128.7v-2.1c0-4.1-2.7-5.6-6.2-5.6s-6.2,1.6-6.2,5.6v2.1c0,4.1,2.7,5.6,6.2,5.6s6.2-1.6,6.2-5.6M472.1,128.6h-3.1l1.3-4.8c0-.2.1-.3.3-.3s.2,0,.3.3l1.3,4.8h0ZM477.1,133.9l-3.1-10.9c-.5-1.7-2-1.9-3.4-1.9s-3,.3-3.5,1.9l-3.1,10.9c0,.3.1.4.3.4h2.9c.2,0,.4-.1.4-.3l.7-2.9h4.3l.7,2.9c0,.2.2.3.4.3h2.9c.2,0,.4-.1.4-.3M417.7,133.8v-1.6c0-.2-.2-.4-.4-.4h-3.6c-1,0-1.3-.3-1.3-1.2v-9.1c0-.2-.2-.4-.4-.4h-2.7c-.2,0-.4.2-.4.4v9.1c0,3.2,2.4,3.8,5.1,3.8s2.7-.1,3.4-.2c.3,0,.4-.1.4-.4"/>
            <path class="cls-16" d="M356.2,125.3h-.6c-1,0-1.1.2-1.1.8v1.8h4.2c.2,0,.4.1.4.3v.4c0,.2-.2.3-.4.3h-4.2v1.9c0,.8.2,1.1,1.6,1.1h2.7c.1,0,.2,0,.2.2v.6c0,.1,0,.2-.2.2h-2.7c-2,0-3-.6-3-2.2v-5.2c0-.6,0-.9.4-1.2.4-.3,1-.3,2.6-.3h2.6c.2,0,.4,0,.4.3v.5c0,.2-.2.3-.4.3h-2.5v.2h0ZM350,127.9c0-2-1.2-2.6-2.9-2.6s-1,0-1.5,0v6.7h1.5c1.6,0,2.9-.6,2.9-2.6v-1.6h0ZM347.2,133.1c-1.1,0-2.1,0-2.5-.1-.2,0-.4-.1-.4-.4v-7.9c0-.2.1-.3.4-.4h2.5c2.6,0,4.3,1.1,4.3,3.6v1.6c0,2.5-1.7,3.7-4.3,3.7M335.6,125.4s0-.2-.2-.2-.2,0-.2.2l-1.2,3.7h2.9l-1.2-3.7h0ZM339.2,133h-.8c-.2,0-.3-.1-.3-.2l-.9-2.6h-3.5l-.9,2.6c0,.1-.2.2-.3.2h-.8c-.2,0-.3,0-.3-.3h0c0-.1,2.6-7.6,2.6-7.6.3-.7,1-.9,1.5-.9s1.2.2,1.5.9l2.6,7.5h0c0,.3-.1.4-.3.4M329.5,133h-.8c-.2,0-.3-.1-.3-.3v-8.1c0-.2.1-.3.3-.3h.8c.2,0,.3,0,.3.3v8.1c0,.2-.1.3-.3.3M325,126.7c0-1.1-.8-1.5-2.6-1.5s-1.1,0-1.5,0v3h1.5c1.7,0,2.6-.4,2.6-1.5h0ZM326.5,133h-.9c-.2,0-.3,0-.4-.2l-2.5-3.4h-1.8v3.3c0,.2-.1.3-.3.3h-.8c-.2,0-.3-.1-.3-.3v-8.1c0-.2.1-.3.4-.3h2.5c2.2,0,4,.6,4,2.5s-.9,2.2-2.1,2.5l2.5,3.4h0c0,.2-.1.3-.3.3M316.3,122.2l-1.6,1.4h-1.2s-.2,0-.2-.2v-.2l1.4-1.4c0,0,.1,0,.2,0h1.2v.2M314.4,125.4s0-.2-.2-.2-.2,0-.2.2l-1.2,3.7h2.9l-1.2-3.7h0ZM317.9,133h-.8c-.2,0-.3-.1-.3-.2l-.9-2.6h-3.5l-.9,2.6c0,.1-.2.2-.3.2h-.8c-.2,0-.3,0-.3-.3h0c0-.1,2.6-7.6,2.6-7.6.3-.7.9-.9,1.5-.9s1.2.2,1.5.9l2.6,7.5h0c0,.3-.1.4-.3.4M308.3,133h-.8c-.2,0-.3-.1-.3-.3v-8.1c0-.2.1-.3.3-.3h.8c.2,0,.3,0,.3.3v8.1c0,.2-.1.3-.3.3M305.6,124.6l-2.6,7.5c-.3.8-.9.9-1.5.9s-1.2-.2-1.5-.9l-2.6-7.5h0c0-.3.2-.4.3-.4h.8c.1,0,.3,0,.3.2l2.4,7.3c0,.1.1.2.2.2s.1,0,.2-.2l2.4-7.3s.2-.2.3-.2h.8c.2,0,.3,0,.3.3h.2ZM295.2,127.9c0-1.9-.9-2.6-2.4-2.6s-2.4.7-2.4,2.6v1.5c0,1.9.9,2.6,2.4,2.6s2.4-.7,2.4-2.6c0,0,0-1.5,0-1.5ZM292.8,133.1c-2.2,0-3.8-1.1-3.8-3.7v-1.5c0-2.6,1.6-3.7,3.8-3.7s3.8,1.1,3.8,3.7v1.5c0,2.6-1.6,3.7-3.8,3.7M286.1,127.9c0-2-1.2-2.6-2.9-2.6s-1,0-1.5,0v6.7h1.5c1.7,0,2.9-.6,2.9-2.6v-1.6h0ZM283.2,133.1c-1.1,0-2.1,0-2.5-.1-.2,0-.4-.1-.4-.4v-7.9c0-.2.1-.3.4-.4h2.5c2.6,0,4.3,1.1,4.3,3.6v1.6c0,2.5-1.7,3.7-4.3,3.7M277.1,127.9c0-1.9-.9-2.6-2.4-2.6s-2.4.7-2.4,2.6v1.5c0,1.9.9,2.6,2.4,2.6s2.4-.7,2.4-2.6c0,0,0-1.5,0-1.5ZM274.7,133.1c-2.2,0-3.8-1.1-3.8-3.7v-1.5c0-2.6,1.6-3.7,3.8-3.7s3.8,1.1,3.8,3.7v1.5c0,2.6-1.6,3.7-3.8,3.7M268.1,126.7c0-1.1-.8-1.5-2.6-1.5s-1.1,0-1.5,0v3h1.5c1.7,0,2.6-.4,2.6-1.5h0ZM269.6,133h-.9c-.2,0-.3,0-.4-.2l-2.5-3.4h-1.8v3.3c0,.2-.1.3-.3.3h-.7c-.2,0-.3-.1-.3-.3v-8.1c0-.2.1-.3.4-.3h2.5c2.2,0,4,.6,4,2.5s-.9,2.2-2.1,2.5l2.5,3.4h0c0,.2-.1.3-.3.3"/>
          </g>
        </g>
        <line class="cls-4" x1="141.2" y1="568.3" x2="141.2" y2="500"/>
        <line class="cls-4" x1="330.5" y1="850.9" x2="330.5" y2="797"/>
        <g>
          <line class="cls-2" x1="267.2" y1="874.2" x2="393.7" y2="874.2"/>
          <g>
            <path class="cls-9" d="M396.5,870.8c0,1.1-.8,1.8-2.2,1.8s-1.5-.3-2.1-.8l.3-.3c.6.6,1,.8,1.8.8s1.6-.5,1.6-1.3-.1-.7-.3-.9c-.2-.2-.4-.3-.9-.3h-.7c-.5-.2-.9-.4-1.1-.6-.3-.3-.5-.7-.5-1.2,0-1.1.8-1.7,2-1.7s1.3.2,1.8.7l-.3.3c-.4-.3-.8-.6-1.5-.6s-1.5.5-1.5,1.3.1.6.3.8c.2.2.6.3.9.4h.7c.6.2.9.3,1.1.5.4.3.6.7.6,1.2h0ZM341.7,880c0,1.5-1.3,2.3-2.9,2.3s-2.1-.2-2.8-1l1.2-1.2c.4.4,1.1.5,1.7.5s1.1-.2,1.1-.7,0-.3-.1-.4c0,0-.3-.2-.5-.2h-.9c-.7-.2-1.2-.4-1.5-.8-.3-.4-.5-.9-.5-1.5,0-1.4,1-2.3,2.7-2.3s1.9.3,2.5.9l-1.1,1.1c-.5-.5-1.1-.4-1.4-.4-.6,0-.9.4-.9.7s0,.2.1.3c0,0,.3.2.5.2h.9c.7.2,1.1.4,1.5.7.4.4.6.9.6,1.6l-.2.2h0ZM348.4,879.7c0,1.6-1.3,2.7-2.8,2.7s-2.8-1-2.8-2.7v-4.8h1.8v4.8c0,.7.4,1.1,1,1.1s1-.4,1-1.1v-4.8h1.8v4.8ZM354.7,882.3h-4.9v-7.4h1.8v5.8h3.1v1.6h0ZM363.6,878.6c0,1.2,0,2.1-.8,3-.5.5-1.2.7-2,.7h-2.7v-7.4h2.7c.8,0,1.5.2,2,.7.9.9.8,1.8.8,3ZM361.8,878.6c0-1.3,0-1.5-.2-1.7-.2-.3-.4-.4-.9-.4h-.8v4.2h.8c.5,0,.7-.2.9-.4.1-.2.2-.4.2-1.7h0ZM370.2,878.6c0,1.1,0,2.2-.8,2.9-.5.5-1.2.8-2.1.8s-1.5-.3-2.1-.8c-.8-.8-.7-1.8-.7-2.9s0-2.2.7-2.9,1.2-.8,2.1-.8,1.5.3,2.1.8c.8.8.8,1.8.8,2.9ZM368.4,878.6c0-1.4-.1-1.6-.3-1.8-.1-.2-.4-.3-.7-.3s-.6,0-.7.3c-.2.2-.3.5-.3,1.8s.1,1.6.3,1.8c.1.2.4.3.7.3s.6-.2.7-.3c.2-.2.3-.5.3-1.8ZM378.8,876.5h-1.8v5.8h-1.8v-5.8h-1.8v-1.6h5.5v1.6h-.1ZM384.9,882.3h-5v-7.4h5v1.6h-3.2v1.2h2.7v1.6h-2.7v1.3h3.2v1.6h0ZM390.2,879.7c0,1.8-1.4,2.6-2.8,2.6s-1.4-.2-2-.8l1.2-1.2c.2.2.4.4.8.4s1-.3,1-1v-4.8h1.8v4.9h0ZM397,878.6c0,1.1,0,2.2-.8,2.9-.5.5-1.2.8-2.1.8s-1.5-.3-2.1-.8c-.8-.8-.7-1.8-.7-2.9s0-2.2.7-2.9,1.2-.8,2.1-.8,1.5.3,2.1.8c.8.8.8,1.8.8,2.9ZM395.2,878.6c0-1.4-.1-1.6-.3-1.8-.1-.2-.4-.3-.7-.3s-.6,0-.7.3c-.2.2-.3.5-.3,1.8s.1,1.6.3,1.8c.1.2.4.3.7.3s.6-.2.7-.3c.2-.2.3-.5.3-1.8ZM340.8,866.6h-1.9v5.9h-.5v-5.9h-1.9v-.4h4.3v.4ZM346.4,872.5h-.6l-1.5-2.9h-1.8v2.9h-.5v-6.4h2.4c1,0,1.8.6,1.8,1.7s-.6,1.6-1.5,1.7l1.5,2.9h.2ZM345.9,867.9c0-.9-.6-1.3-1.4-1.3h-1.9v2.6h1.9c.8,0,1.4-.4,1.4-1.3ZM352.2,872.5h-.5l-.6-1.5h-3l-.6,1.5h-.5l2.3-6.4h.4l2.3,6.4h.2ZM351,870.5l-1.3-3.7-1.3,3.7h2.7-.1ZM358,872.5h-.5l-3.7-5.5v5.5h-.5v-6.4h.5l3.7,5.5v-5.5h.5v6.4ZM363.7,870.8c0,1.1-.8,1.8-2.1,1.8s-1.5-.3-2.1-.8l.3-.3c.6.6,1,.8,1.8.8s1.6-.5,1.6-1.3-.1-.7-.3-.9c-.2-.2-.4-.3-.9-.3h-.7c-.5-.2-.9-.4-1.1-.6-.3-.3-.5-.7-.5-1.2,0-1.1.8-1.7,2-1.7s1.3.2,1.8.7l-.3.3c-.4-.3-.8-.6-1.5-.6s-1.5.5-1.5,1.3.1.6.3.8c.2.2.6.3.9.4h.7c.6.2.9.3,1.1.5.4.3.6.7.6,1.2h0ZM369.5,868c0,1.2-.8,1.8-1.9,1.8h-1.8v2.7h-.5v-6.4h2.3c1.1,0,1.9.7,1.9,1.8h0ZM369,868c0-1-.6-1.4-1.5-1.4h-1.8v2.8h1.8c.9,0,1.5-.5,1.5-1.4h0ZM375,869.3c0,1.4,0,2-.6,2.6-.4.4-1,.7-1.6.7s-1.2-.2-1.6-.7c-.6-.6-.6-1.1-.6-2.6s0-2,.6-2.6c.4-.4,1-.7,1.6-.7s1.2.2,1.6.7c.6.6.6,1.1.6,2.6ZM374.5,869.3c0-1.4,0-1.9-.5-2.3-.3-.3-.7-.5-1.2-.5s-.9.2-1.2.5c-.5.5-.5,1-.5,2.3s0,1.9.5,2.3c.3.3.7.5,1.2.5s.9-.2,1.2-.5c.5-.5.5-.9.5-2.3ZM381,872.5h-.6l-1.5-2.9h-1.8v2.9h-.5v-6.4h2.4c1,0,1.8.6,1.8,1.7s-.6,1.6-1.5,1.7l1.5,2.9h.2ZM380.5,867.9c0-.9-.6-1.3-1.4-1.3h-1.9v2.6h1.9c.8,0,1.4-.4,1.4-1.3ZM386.1,866.6h-1.9v5.9h-.5v-5.9h-1.9v-.4h4.3v.4ZM391.3,872.5h-3.9v-6.4h3.9v.4h-3.4v2.5h2.9v.4h-2.9v2.6h3.4v.4h0Z"/>
            <g>
              <path class="cls-9" d="M264.1,880.2c-1.8-10.1,13-20,30.8-23.1s35,1.1,36.8,11.2c1.8,10.1-13,20-30.8,23.1s-35-1.1-36.8-11.2ZM329.2,868.7c-1.3-7.5-15.8-12.4-34-9.2s-30.1,12.7-28.8,20.3c1.3,7.5,15.8,12.4,34,9.2s30.1-12.7,28.8-20.3Z"/>
              <polygon class="cls-10" points="288.5 868.9 288.2 872.5 284.2 873 283.5 883.9 278.1 884.7 278.8 873.8 274.8 874.4 275.1 870.8 288.5 868.9"/>
              <path class="cls-10" d="M291.4,878.3h.2c2.5,1.2,5.8.7,6.4-.7,0-.2,0-.6-.9-.7-1,0-2.5-.3-3.4-.4-2.9-.5-4.3-2.8-2.4-5.7,2.3-3.5,7.1-4.3,11.9-3h.3l-2.4,3.6h-.2c-2.8-.9-4.7-.5-5.2.4-.2.5.2.9.9,1,.7,0,2.3.2,3.5.4,2.7.4,4.2,1.7,3.2,4.7-1.3,3.6-5.9,4.9-8.5,5.1-2.3,0-4-.2-5.6-.8h-.3l2.6-3.8h-.1Z"/>
              <polygon class="cls-10" points="319.2 864.5 318.9 868.1 314.9 868.7 314.2 879.6 308.8 880.3 309.5 869.4 305.5 870 305.7 866.4 319.2 864.5"/>
            </g>
          </g>
        </g>
        <path class="cls-8" d="M110.6,563.1h61.3c27.7,0,50.2,22.5,50.2,50.2h0c0,27.7-22.5,50.1-50.2,50.1h-61.3c-27.7,0-50.2-22.5-50.2-50.2h0c0-27.7,22.5-50.1,50.2-50.1Z"/>
        <g>
          <g>
            <path class="cls-6" d="M126.1,603.1c.2-.6.4-1.2.6-1.8.2-.7.6-1.3.9-2,.3-.6.6-1.3,1-2,.3-.6.8-1.3,1.2-1.9.5-.6.9-1.2,1.3-1.8.5-.6.9-1.1,1.4-1.7.2-.2.5-.6.8-.8l.4-.4.4-.4.4-.4.4-.4c.2-.2.6-.5.8-.7s.6-.5.9-.7l.4-.3.5-.3c1.2-.9,2.4-1.6,3.6-2.3.3-.2.6-.3.9-.5.3-.2.6-.3.9-.5l.5-.2.5-.2c.3-.2.6-.2.9-.4.3,0,.6-.2,1-.3.2,0,.3,0,.5-.2l.5-.2c.3,0,.6-.2,1-.3.3,0,.6-.2,1-.2s.6-.2,1-.2.6-.2,1-.2.7,0,1-.2h4.9c2.6,0,5.1.6,7.5,1.3.3,0,.6.2.9.3.3,0,.6.2.9.3.3,0,.6.2.9.3.3,0,.6.2.9.3.6.2,1.1.5,1.6.8s.6.2.8.4.5.3.8.4c2,1.2,3.8,2.4,5.3,3.9,1.6,1.4,2.9,2.9,4,4.5,1.1,1.5,2,3.1,2.8,4.6,0,.2.2.4.3.6,0,.2.2.4.2.6.2.4.3.7.5,1.1.2.4.3.7.4,1,0,.3.2.6.3,1h.2c-.2-.5-.3-.9-.5-1.3-1.3-3.5-3.2-6.8-5.7-9.6-2.4-2.8-5.4-5.2-8.7-7s-6.9-3-10.6-3.5c-7.5-1.1-15.3.7-21.6,4.9-3.1,2.1-6,4.7-8.2,7.8-2,2.7-3.5,5.7-4.5,8.8h.9Z"/>
            <path class="cls-6" d="M185,622.1c0,.2-.2.4-.2.6s0,.3-.2.6c0,.2-.2.3-.2.6-.2.3-.2.7-.4,1.1-.6,1.4-1.4,2.9-2.4,4.5-2,3.1-4.7,6.2-8.3,8.7-3.6,2.6-8.2,4.6-13.3,5.3-.6,0-1.3.2-1.9.2h-5.9c-2.7-.3-5.3-.9-7.9-2-.6-.2-1.3-.6-2-.9-.3-.2-.6-.3-.9-.5l-.5-.2-.5-.2c-1.3-.7-2.4-1.5-3.6-2.4-.3-.2-.6-.5-.9-.7-.3-.2-.6-.5-.8-.7s-.3-.2-.4-.4l-.4-.4c-.2-.2-.6-.5-.8-.8-1-1-2-2.2-2.8-3.3-.9-1.2-1.7-2.4-2.4-3.8s-1.3-2.7-1.8-4.1c-.2-.4-.2-.7-.4-1.1h-1c.5,1.7,1.1,3.2,1.9,4.8,3.3,6.9,9.3,12.6,16.4,15.6,3.5,1.5,7.4,2.4,11.2,2.5,2,0,3.9,0,5.8-.3,1.9-.3,3.9-.7,5.7-1.3,3.7-1.3,7.2-3.1,10.2-5.6s5.6-5.5,7.6-8.9c1-2.2,1.7-4.4,2.2-6.8h-1.2,0Z"/>
          </g>
          <g>
            <path class="cls-6" d="M179.6,635.2c-.2.2-.4.4-.6.6-.2.2-.4.4-.6.6s-.5.4-.7.6c-.2.2-.5.4-.7.6-.2,0-.2.2-.4.3-.2,0-.2.2-.4.3-.2.2-.6.5-.9.6-.3.2-.6.4-.9.6-.2,0-.3.2-.5.3-.2,0-.3.2-.5.3-.3.2-.6.4-1,.6-.3.2-.7.4-1,.6-.4.2-.7.4-1.1.6-.4.2-.8.4-1.2.6-1.6.7-3.3,1.3-5.1,1.8-3.7.9-7.9,1.3-12.2.9-4.3-.5-8.8-1.9-12.9-4.3-4.1-2.4-7.8-5.8-10.6-10-1.8-2.8-3.3-5.8-4.2-9h-.8v.2c.2.2.2.4.2.6.5,1.6,1.1,3.1,1.7,4.6,2.8,5.9,7.3,10.9,12.9,14.3,1.4.9,2.8,1.6,4.3,2.3,1.5.6,3.1,1.2,4.6,1.6s3.2.7,4.8.9h6.3c.4,0,.8,0,1.3-.2.8,0,1.7-.2,2.4-.3s1.6-.3,2.4-.5l1.2-.3c.2,0,.4,0,.6-.2l.6-.2.6-.2c.2,0,.4-.2.6-.2l1.2-.5c.4-.2.8-.3,1.1-.5l.6-.2.6-.3c1.5-.7,2.9-1.6,4.2-2.5,3.6-3.1,6.5-6.8,8.6-11,0,0-.3.6-1,1.5s-1.7,2.4-3.2,4l-.2.2v.3Z"/>
            <path class="cls-6" d="M124,603c0-.4.2-.8.4-1.2.2-.6.5-1.2.6-1.7,0-.3.2-.6.4-.9l.4-.9.4-.9c.2-.3.2-.6.5-.9.2-.2.3-.6.5-.8,0-.2.2-.2.2-.4l.2-.4c1.3-2.1,2.8-4,4.6-5.7,3.4-3.4,7.5-6,11.6-7.6s8.4-2.2,12.3-2.1c3.9,0,7.6.9,10.5,2,3.1,1.1,5.6,2.5,7.6,3.9,2,1.3,3.5,2.7,4.4,3.7.5.5.9.9,1.2,1.3.3.3.5.6.6.6-.5-.6-1-1.2-1.6-1.7s-1.1-1.1-1.7-1.7c-.6-.6-1.2-1-1.8-1.5s-1.3-.9-2-1.3c-.6-.5-1.3-.9-2-1.3-.7-.4-1.4-.8-2.1-1.1s-1.5-.6-2.2-.9c-.4-.2-.8-.2-1.1-.4-.2,0-.4-.2-.6-.2l-.6-.2c-6.1-1.8-12.7-1.9-18.9,0-.2,0-.4,0-.6.2l-.6.2-.6.2c-.2,0-.4.2-.6.2-.4.2-.8.3-1.1.5l-1.1.5-.2.2-.2.2-.6.2c-.4.2-.7.3-1.1.6l-1,.6-1,.6c-2.7,1.7-5.1,3.9-7.2,6.3s-3.9,5.2-5.2,8.1c-.2.4-.3.7-.5,1.1s-.3.7-.5,1.1l-.4,1.2-.2.4h.9Z"/>
          </g>
          <g>
            <path class="cls-6" d="M122,603c.8-2.8,2-5.4,3.3-7.8,2-3.5,4.6-6.6,7.6-9,1.4-1.3,2.9-2.3,4.5-3.2,1.5-.9,3.1-1.7,4.6-2.4,3.1-1.3,6.1-2,8.8-2.4s5.2-.4,7.2-.2c.5,0,1,0,1.4.2.5,0,.9,0,1.3.2h1.2c.3,0,.7,0,.9.2.6.2,1,.2,1.4.3.3,0,.6.2.7.2l-.5-.2c-.2,0-.3,0-.5-.2l-.9-.2c-.3,0-.6-.2-1-.2l-1-.2-1-.2h-.5c-.2,0-.3,0-.5-.2h-1l-.5-.2h-.5c-2.7-.2-5.3,0-8,.6-2.7.5-5.3,1.3-7.7,2.4s-4.8,2.4-7,4.1c-2.1,1.7-4.2,3.5-5.9,5.6s-3.2,4.4-4.5,6.8c-.9,1.9-1.7,3.9-2.3,5.9h.5v.2h-.1Z"/>
            <path class="cls-6" d="M174.3,642.1c-.2.2-.5.3-.7.5s-.6.3-.9.5c-.2,0-.3.2-.5.3-.2,0-.3.2-.6.3-.4.2-.8.4-1.2.6-.4.2-.9.4-1.3.6-.5.2-1,.4-1.5.6-.6.2-1.1.4-1.7.6-.6.2-1.2.3-1.8.6-2.5.6-5.5,1.1-8.7,1.1s-1.7,0-2.4,0h-1.3c-.4,0-.9,0-1.3-.2-1.7-.2-3.5-.6-5.3-1.2-3.5-1.1-7.1-2.8-10.3-5.3-3.2-2.4-6.2-5.4-8.5-9-1.9-2.9-3.5-6.2-4.4-9.7h-.6l.2.9c0,.3.2.6.3.9l.3.9.4.9c.2.3.2.6.4.9.3.6.6,1.3.9,1.9l.5.9.5.9c.3.6.7,1.2,1.1,1.7.2.3.4.6.6.9l.6.9c.2.2.4.6.6.8s.4.6.6.8c1.7,2.1,3.7,4,5.9,5.7,4.4,3.3,9.5,5.7,14.9,6.7,2.7.6,5.5.7,8.3.6,2.8,0,5.5-.6,8.2-1.3,1.9-.7,3.7-1.6,5.3-2.6,1.7-1,3.3-2.1,4.8-3.4l-.3.2c-.2.2-.6.3-.9.6l-.2-.2h0Z"/>
          </g>
          <g>
            <path class="cls-6" d="M120.2,603h0c.5-1.8,1.1-3.4,1.7-5,.2-.4.3-.8.6-1.2.2-.4.4-.8.6-1.1s.2-.4.3-.6c0-.2.2-.4.3-.6.2-.4.4-.7.6-1.1.5-.7.9-1.4,1.3-2,.5-.7.9-1.3,1.4-1.9,2-2.4,4.2-4.5,6.4-6.2s4.5-3,6.6-3.9,4-1.7,5.7-2c3.3-.9,5.4-1,5.8-1.1-4.5.4-8.9,1.7-12.9,3.8-4,2-7.7,4.8-10.7,8.2-3.1,3.4-5.4,7.2-7.1,11.5-.4,1.1-.8,2.2-1.1,3.3h.5Z"/>
            <path class="cls-6" d="M160.9,648.9c-.4,0-.9,0-1.6.2-.6,0-1.3,0-2.1.2-1.6,0-3.5,0-5.7-.2s-4.6-.7-7.2-1.5c-2.6-.9-5.3-2-7.9-3.6-.6-.4-1.3-.9-2-1.3-.3-.2-.6-.5-.9-.7-.3-.2-.6-.5-.9-.8-1.3-1-2.5-2.1-3.6-3.4l-.5-.5-.4-.5c-.3-.3-.6-.6-.9-.9-.2-.3-.6-.7-.8-1l-.2-.2-.2-.2-.4-.6-.4-.6c-.2-.2-.2-.4-.4-.6-.2-.4-.5-.7-.7-1.1s-.5-.8-.6-1.2l-.2-.3-.2-.3-.3-.6-.3-.6c0-.2-.2-.4-.3-.6-.2-.4-.4-.8-.6-1.3-.2-.4-.3-.9-.5-1.3,0-.2-.2-.4-.2-.6l-.2-.6-.2-.6c0-.2-.2-.5-.2-.6,0-.3-.2-.6-.2-.9h-.6c.4,1.5.9,2.9,1.4,4.3,1.7,4.2,4.1,8.2,7.2,11.6,3.1,3.4,6.8,6.2,10.9,8.3,4.1,2,8.7,3.3,13.2,3.7h3.7l1.3-.2c1.7-.2,3.2-.6,4.8-.9h-.3c-.2,0-.6,0-.9.2v.2-.4Z"/>
          </g>
          <g>
            <path class="cls-6" d="M117.5,603c.2-.6.3-1.3.6-2,1.4-4.5,3.5-8.4,5.8-11.6,1.2-1.6,2.3-2.9,3.4-4,1.1-1.2,2.1-2,3-2.8,1.8-1.5,3-2.3,3.2-2.4-2.6,1.7-5,3.8-7,6-2.1,2.3-3.9,4.8-5.4,7.5-1.7,2.9-2.9,6.1-3.7,9.3h.2,0Z"/>
            <path class="cls-6" d="M136.4,647c-.5-.3-1.3-.7-2.1-1.3-.2-.2-.5-.3-.7-.5s-.5-.3-.8-.6c-.2-.2-.6-.4-.8-.6-.3-.2-.6-.5-.9-.7-.6-.5-1.2-1-1.8-1.6s-.6-.6-.9-.9c-.2-.2-.3-.3-.5-.5s-.3-.3-.5-.5c-1.3-1.3-2.6-2.8-3.9-4.6s-2.4-3.7-3.4-5.7c-1-2.1-1.9-4.3-2.5-6.8,0-.2-.2-.6-.2-.9h-.4c.6,2.6,1.5,5.1,2.6,7.6,1.3,2.8,3,5.5,5,7.9.2.3.5.6.7.9l.8.9.8.9c.2.3.6.6.8.9l.9.8c.3.3.6.6.9.8s.6.6.9.8l.9.7c1.9,1.3,3.9,2.3,5.9,3.1h-.2c-.2,0-.3-.2-.6-.4v.2h0Z"/>
          </g>
          <g>
            <path class="cls-6" d="M118.7,603c.2-.8.5-1.6.7-2.4.9-2.8,2-5.3,3.5-7.5,1.3-2.3,2.8-4.2,4.4-6,1.6-1.7,3.1-3.1,4.6-4.3.2-.2.4-.3.6-.5l.2-.2s.2-.2.3-.2c.4-.2.7-.6,1.1-.8.3-.2.7-.5,1-.6.3-.2.6-.4.9-.6.3-.2.6-.3.9-.5.2,0,.2-.2.4-.2s.2-.2.4-.2c.5-.2.9-.5,1.3-.7.8-.3,1.3-.6,1.3-.6-3.5,1.5-6.7,3.5-9.6,5.8-1.4,1.2-2.8,2.5-4,3.9-.3.4-.6.7-.9,1.1l-.9,1.1c-.3.4-.6.8-.9,1.1-.2.2-.3.4-.4.6l-.4.6-.4.6-.2.3-.2.3-.7,1.2c-.5.9-.9,1.7-1.3,2.5-.4.9-.7,1.7-1.1,2.6-.3.9-.6,1.8-.9,2.7,0,.3-.2.6-.2.9h.5Z"/>
            <path class="cls-6" d="M147.8,650c-.2,0-.5,0-.7-.2-.5-.2-1.1-.2-1.7-.4-.3,0-.6-.2-1-.3-.3,0-.7-.2-1.1-.3-.4-.2-.8-.2-1.2-.4s-.8-.3-1.3-.5c-1.7-.7-3.5-1.7-5.4-2.8s-3.9-2.7-5.7-4.4c-1.9-1.7-3.7-3.8-5.3-6.1-2.6-3.6-4.6-7.9-5.7-12.5h-.4c.2.8.4,1.7.7,2.4,1.2,3.6,2.8,7.1,5,10.2,1,1.6,2.3,3.1,3.5,4.4.3.3.6.7,1,1l1,1c.3.3.7.6,1.1.9.2.2.3.3.6.5l.6.5c.7.6,1.5,1.2,2.3,1.7s1.6,1,2.4,1.5c.8.5,1.7.9,2.5,1.3l1.3.6.3.2.3.2.6.2c2.7.8,5.3,1.3,8,1.5,0,0-.4,0-1-.2h-.7Z"/>
          </g>
          <g>
            <path class="cls-7" d="M101.1,615.3h-6.5l-1.4,3.9h-4l6.7-18.4h3.9l6.7,18.4h-4l-1.4-3.9h0ZM95.7,612.1h4.2l-2.1-5.9-2,5.9h0Z"/>
            <path class="cls-7" d="M108.5,600.1h3.7v14.9c0,.8.3,1.3.9,1.3s.6,0,.9-.2l.6,3.1c-.9.2-1.7.5-2.6.5-2,0-3.4-.9-3.4-3.6v-15.8h0v-.2Z"/>
            <path class="cls-7" d="M118.7,606.1l2.7,7.8,2.8-7.8h3.9l-5.1,13.1h-3.1l-5.1-13.1h4,0Z"/>
            <path class="cls-6" d="M128.7,612.7c0-4.1,2.2-6.8,6.5-6.8s6.5,2.8,6.5,6.8-2.1,6.8-6.5,6.8-6.5-2.8-6.5-6.8ZM132.4,612.7c0,2.3.9,3.7,2.8,3.7s2.8-1.4,2.8-3.7-.9-3.7-2.8-3.7-2.8,1.4-2.8,3.7Z"/>
            <path class="cls-7" d="M151.5,609.5c-.6-.2-1-.2-1.4-.2-1.7,0-1.9,1.3-1.9,3.1v6.8h-3.7v-13.1h3.7v1.3c.6-1,1.5-1.5,2.5-1.5s.9,0,1.4.2l-.6,3.5h0Z"/>
            <path class="cls-7" d="M160.6,619.2c-.2-.4-.2-.8-.2-1.3-.9,1-2.2,1.6-3.5,1.6-2.8,0-4.3-1.5-4.3-4.2s2.5-3.9,5.4-3.9,1.7,0,2.4.2v-.9c0-1.1-.7-1.6-1.7-1.6s-1.4.5-1.6,1.2l-4-.5c.4-2.4,2.8-3.8,5.6-3.8s5.3,1.4,5.3,4.6v4.2c0,1.7,0,3.1.3,4.6h-3.8v-.2ZM158.7,613.9c-1.5,0-2.5.3-2.5,1.4s.6,1.1,1.4,1.1c1.5,0,2.8-1,2.8-2.5h-1.7Z"/>
            <path class="cls-7" d="M175.6,617.7c-1,1.2-2.3,1.8-3.8,1.8-2.9,0-5.1-2-5.1-6.6s2.2-7,5.6-7,2.3.5,3.1,1.4v-7.2h3.7v14.4c0,1.7,0,3.2.3,4.8h-3.3c-.2-.5-.4-1-.6-1.6h.1ZM175.5,612v-1.4c-.7-1-1.3-1.6-2.5-1.6s-2.5,1.5-2.5,3.9.9,3.5,2.4,3.5,2.7-1.5,2.7-4.4h0Z"/>
            <path class="cls-7" d="M189.4,619.2c-.2-.4-.2-.8-.2-1.3-.9,1-2.2,1.6-3.5,1.6-2.8,0-4.3-1.5-4.3-4.2s2.5-3.9,5.4-3.9,1.7,0,2.4.2v-.9c0-1.1-.7-1.6-1.7-1.6s-1.4.5-1.6,1.2l-4-.5c.4-2.4,2.8-3.8,5.6-3.8s5.3,1.4,5.3,4.6v4.2c0,1.7,0,3.1.3,4.6h-3.8v-.2ZM187.6,613.9c-1.5,0-2.5.3-2.5,1.4s.6,1.1,1.4,1.1c1.5,0,2.8-1,2.8-2.5h-1.7Z"/>
          </g>
        </g>
      </g>
    </g>
  </g>
</svg>