<?xml version="1.0" encoding="UTF-8"?>
<svg width="780px" height="220px" viewBox="0 0 780 220" version="1.1" xmlns="http://www.w3.org/2000/svg" xmlns:xlink="http://www.w3.org/1999/xlink">
    <title>Artboard@2x</title>
    <defs>
        <polygon id="path-1" points="0 0 20 0 20 20 0 20"></polygon>
        <polygon id="path-3" points="0 0 26 0 26 28 0 28"></polygon>
        <polygon id="path-5" points="0 0 27 0 27 29 0 29"></polygon>
    </defs>
    <g id="Artboard" stroke="none" stroke-width="1" fill="none" fill-rule="evenodd">
        <g id="Group" transform="translate(65, 38)">
            <g id="Group-48" transform="translate(331, 17)">
                <path d="M151.910534,63.0598532 L150.450536,66.6045818 C150.25587,67.1311608 149.866537,67.2269904 149.379871,67.0837299 C148.894188,66.9404695 148.310189,66.7488102 147.386016,66.7488102 C144.368687,66.7488102 142.422023,68.9519239 142.422023,71.8268129 L142.422023,84.2817617 C142.422023,84.7125111 142.131007,85 141.692516,85 L136.729507,85 C136.292,85 136,84.7125111 136,84.2817617 L136,62.2457853 C136,61.8140679 136.292,61.527547 136.729507,61.527547 L141.449675,61.527547 C141.887183,61.527547 142.131007,61.8140679 142.179182,62.2457853 L142.373848,64.8322175 C143.63918,62.580705 145.58486,61 148.455697,61 C149.818362,61 150.98636,61.527547 151.666709,62.1015568 C152.056042,62.3890457 152.056042,62.7239655 151.910534,63.0598532" id="Fill-1" fill="#000000"></path>
                <path d="M174.910534,63.0598532 L173.450536,66.6045818 C173.25587,67.1311608 172.866537,67.2269904 172.379871,67.0837299 C171.894188,66.9404695 171.310189,66.7488102 170.386016,66.7488102 C167.368687,66.7488102 165.422023,68.9519239 165.422023,71.8268129 L165.422023,84.2817617 C165.422023,84.7125111 165.131007,85 164.692516,85 L159.729507,85 C159.292,85 159,84.7125111 159,84.2817617 L159,62.2457853 C159,61.8140679 159.292,61.527547 159.729507,61.527547 L164.449675,61.527547 C164.887183,61.527547 165.131007,61.8140679 165.179182,62.2457853 L165.373848,64.8322175 C166.63918,62.580705 168.58486,61 171.455697,61 C172.818362,61 173.98636,61.527547 174.666709,62.1015568 C175.056042,62.3890457 175.056042,62.7239655 174.910534,63.0598532" id="Fill-3" fill="#000000"></path>
                <path d="M121.493218,73.4513504 C121.493218,69.8522625 118.900194,66.8369698 115.377911,66.8369698 C111.8062,66.8369698 109.213176,69.657664 109.213176,73.4513504 C109.213176,77.2941778 111.8062,80.1640131 115.377911,80.1640131 C118.900194,80.1640131 121.493218,77.0504383 121.493218,73.4513504 M128,62.2648897 L128,84.6387939 C128,85.0761489 127.706394,85.3680465 127.266479,85.3680465 L122.764522,85.3680465 C122.324608,85.3680465 122.08043,85.0761489 122.031002,84.6387939 L121.835264,82.5955105 C120.123057,84.5896529 117.72577,86 114.594962,86 C107.892443,86 103,80.4559107 103,73.4995086 C103,66.5440893 107.892443,61 114.594962,61 C117.627901,61 120.073629,62.4594881 121.884693,64.5017887 L122.031002,62.2648897 C122.08043,61.8265519 122.324608,61.5356371 122.764522,61.5356371 L127.266479,61.5356371 C127.706394,61.5356371 128,61.8265519 128,62.2648897" id="Fill-5" fill="#000000"></path>
                <path d="M183.796112,62 L189.204959,62 C189.681769,62 190,62.2939381 190,62.7353402 L190,85.2646598 C190,85.7060619 189.681769,86 189.204959,86 L183.796112,86 C183.319302,86 183,85.7060619 183,85.2646598 L183,62.7353402 C183,62.2939381 183.319302,62 183.796112,62" id="Fill-7" fill="#000000"></path>
                <path d="M215,78.7038289 C215,83.3248683 210.377838,86 206.090713,86 C202.087599,86 198.847946,84.0049532 197.180463,82.0108892 C196.894527,81.6708468 196.989839,81.3298215 197.180463,81.0379354 L199.03857,78.3628037 C199.324507,77.9746049 199.658581,78.0719003 200.087005,78.4119428 C201.992287,79.6767828 204.041981,80.6005975 205.900089,80.6005975 C207.424122,80.6005975 208.90098,80.1141206 208.90098,78.6065335 C208.90098,74.8129963 197.608887,76.2724271 197.608887,68.247032 C197.608887,63.6751317 201.516689,61 205.709464,61 C208.711318,61 211.760347,62.26484 213.713766,64.5999292 C213.999703,64.9399717 213.904391,65.3291532 213.665629,65.6210394 L211.855659,68.0524412 C211.569722,68.4416228 211.235648,68.3443274 210.807224,68.0033021 C208.996292,66.7876012 207.900683,66.1556726 206.2332,66.1556726 C204.756342,66.1556726 203.660732,66.982192 203.660732,68.1988757 C203.660732,72.0887255 215,69.9492098 215,78.7038289" id="Fill-9" fill="#000000"></path>
                <path d="M91.6577616,77.9261924 C92.052549,77.5860564 92.3984864,77.5860564 92.7434269,77.9261924 L95.752185,80.7475522 C96.0472786,81.0385356 96.0971255,81.4278243 95.8020319,81.7679604 C93.5330016,84.3465062 90.178306,86 86.3311232,86 C79.3764854,86 74,80.5037553 74,73.5004915 C74,66.4972278 79.3764854,61 86.3311232,61 C90.0796092,61 93.3844579,62.6534938 95.6534882,65.2320396 C95.9485818,65.5721757 95.8997318,65.9624474 95.6036413,66.2534309 L92.5948831,69.1229602 C92.2499427,69.4630962 91.9050022,69.4149267 91.5102149,69.0747906 C90.1294561,67.8587551 88.6978534,66.934686 86.47867,66.934686 C82.8288808,66.934686 80.26376,69.7550627 80.26376,73.5004915 C80.26376,77.2449373 82.8288808,80.066297 86.47867,80.066297 C88.7975472,80.066297 90.2760059,79.142228 91.6577616,77.9261924" id="Fill-11" fill="#000000"></path>
                <path d="M105,109.263171 L105,120.401059 C105,120.76002 104.766584,121 104.414983,121 L100.438048,121 C100.086447,121 99.8530309,120.76002 99.8530309,120.401059 L99.8530309,110.221074 C99.8530309,106.987396 98.1373745,105.869171 96.3045177,105.869171 C93.418827,105.869171 92.0931821,108.225611 92.0931821,109.622133 L92.0931821,120.401059 C92.0931821,120.76002 91.8597662,121 91.508165,121 L87.5312301,121 C87.1806138,121 86.946213,120.76002 86.946213,120.401059 L86.946213,110.221074 C86.946213,106.987396 85.2305566,105.869171 83.3592896,105.869171 C80.4735989,105.869171 79.1469691,108.78422 79.1469691,109.70179 L79.1469691,120.401059 C79.1469691,120.76002 78.9135532,121 78.5629368,121 L74.5850172,121 C74.2344008,121 74,120.76002 74,120.401059 L74,102.036552 C74,101.67759 74.2344008,101.438619 74.5850172,101.438619 L78.4063413,101.438619 C78.7579426,101.438619 78.9519634,101.67759 78.9913585,102.036552 L79.1469691,104.591631 L79.1469691,104.631964 C80.3948087,102.555836 82.4226712,101 85.1911615,101 C87.7262359,101 89.8703139,102.27754 91.0797433,104.631964 C92.4437984,102.516511 94.7060618,101 97.8251684,101 C101.997109,101 105,104.033022 105,109.263171" id="Fill-13" fill="#000000"></path>
                <path d="M115.837885,109.520885 L124.611997,109.520885 C124.274822,106.835872 122.512234,105.35774 120.299763,105.35774 C118.050355,105.35774 116.249882,106.835872 115.837885,109.520885 M127.687293,112.867322 L115.912707,112.867322 C116.400474,115.397052 118.274822,116.835872 121.162589,116.835872 C122.624941,116.835872 123.787056,116.446683 125.062826,115.513022 C125.4,115.280098 125.625414,115.280098 125.886819,115.552334 L127.537648,117.225061 C127.8,117.497297 127.8,117.770516 127.499763,118.081081 C125.737174,119.910074 123.337174,121 120.674822,121 C114.938122,121 111,116.602948 111,110.999017 C111,105.396069 114.938122,101 120.262826,101 C125.58753,101 129,105.396069 129,110.571499 C129,112.088943 128.81247,112.867322 127.687293,112.867322" id="Fill-15" fill="#000000"></path>
                <path d="M146,102.444865 L146,105.491673 C146,105.84391 145.761144,106.077749 145.403864,106.077749 L142.622899,106.077749 L142.622899,120.41491 C142.622899,120.766161 142.384043,121 142.026763,121 L137.973237,121 C137.615957,121 137.377101,120.766161 137.377101,120.41491 L137.377101,106.077749 L134.596136,106.077749 C134.238856,106.077749 134,105.84391 134,105.491673 L134,102.444865 C134,102.093614 134.238856,101.858789 134.596136,101.858789 L137.377101,101.858789 L137.377101,96.5850896 C137.377101,96.2338385 137.615957,96 137.973237,96 L142.026763,96 C142.384043,96 142.622899,96.2338385 142.622899,96.5850896 L142.622899,101.858789 L145.403864,101.858789 C145.761144,101.858789 146,102.093614 146,102.444865" id="Fill-17" fill="#000000"></path>
                <path d="M165.926869,102.716158 L164.740717,105.670532 C164.582962,106.110159 164.266455,106.189816 163.871071,106.069826 C163.475686,105.949836 163.001425,105.790522 162.250594,105.790522 C159.799411,105.790522 158.217874,107.62667 158.217874,110.021427 L158.217874,120.402067 C158.217874,120.761028 157.981243,121 157.625796,121 L153.593076,121 C153.23763,121 153,120.761028 153,120.402067 L153,102.03756 C153,101.678598 153.23763,101.438619 153.593076,101.438619 L157.428104,101.438619 C157.783551,101.438619 157.981243,101.678598 158.020182,102.03756 L158.178935,104.193345 C159.206335,102.316864 160.787872,101 163.12024,101 C164.226517,101 165.17504,101.438619 165.729177,101.91757 C166.045684,102.15755 166.045684,102.436854 165.926869,102.716158" id="Fill-19" fill="#000000"></path>
                <path d="M184.000249,111 C184.000249,107.925799 181.755929,105.746929 179.000497,105.746929 C176.20529,105.746929 174.000746,107.925799 174.000746,111 C174.000746,114.074201 176.20529,116.253071 179.000497,116.253071 C181.755929,116.253071 184.000249,114.074201 184.000249,111 M169,111 C169,105.397052 173.449858,101 179.000497,101 C184.551136,101 189,105.397052 189,111 C189,116.602948 184.551136,121 179.000497,121 C173.449858,121 169,116.602948 169,111" id="Fill-21" fill="#000000"></path>
                <path d="M211.02941,111.003363 C211.02941,107.955772 208.955366,105.68883 206.097375,105.68883 C203.279917,105.68883 201.204884,108.111704 201.204884,111.003363 C201.204884,113.894035 203.279917,116.394875 206.097375,116.394875 C208.955366,116.394875 211.02941,114.090431 211.02941,111.003363 M216,111.041852 C216,116.629761 212.086204,121.083705 206.724136,121.083705 C204.375266,121.083705 202.535515,120.107647 201.166329,118.661817 L201.166329,127.413773 C201.166329,127.765114 200.931046,128 200.579111,128 L196.587218,128 C196.234294,128 196,127.765114 196,127.413773 L196,102.015535 C196,101.664193 196.234294,101.430295 196.587218,101.430295 L200.187633,101.430295 C200.539568,101.430295 200.735307,101.664193 200.77485,102.015535 L200.892492,103.813693 C202.340764,102.172454 204.297168,101 206.724136,101 C212.086204,101 216,105.454931 216,111.041852" id="Fill-23" fill="#000000"></path>
                <path d="M236.000249,111 C236.000249,107.925799 233.755929,105.746929 231.000497,105.746929 C228.20529,105.746929 226.000746,107.925799 226.000746,111 C226.000746,114.074201 228.20529,116.253071 231.000497,116.253071 C233.755929,116.253071 236.000249,114.074201 236.000249,111 M221,111 C221,105.397052 225.449858,101 231.000497,101 C236.551136,101 241,105.397052 241,111 C241,116.602948 236.551136,121 231.000497,121 C225.449858,121 221,116.602948 221,111" id="Fill-25" fill="#000000"></path>
                <path d="M248.568312,92 L252.432644,92 C252.773249,92 253,92.2378036 253,92.5960141 L253,120.404989 C253,120.762196 252.773249,121 252.432644,121 L248.568312,121 C248.227708,121 248,120.762196 248,120.404989 L248,92.5960141 C248,92.2378036 248.227708,92 248.568312,92" id="Fill-27" fill="#000000"></path>
                <path d="M259.910294,101.507241 L264.130465,101.507241 C264.503571,101.507241 264.751263,101.745375 264.751263,102.104081 L264.751263,120.40316 C264.751263,120.761867 264.503571,121 264.130465,121 L259.910294,121 C259.538234,121 259.289497,120.761867 259.289497,120.40316 L259.289497,102.104081 C259.289497,101.745375 259.538234,101.507241 259.910294,101.507241 M259,94.9038182 C259,93.3122445 260.32416,92 262.02038,92 C263.67584,92 265,93.3122445 265,94.9038182 C265,96.4943871 263.67584,97.8076363 262.02038,97.8076363 C260.32416,97.8076363 259,96.4943871 259,94.9038182" id="Fill-29" fill="#000000"></path>
                <path d="M283,102.444865 L283,105.491673 C283,105.84391 282.761144,106.077749 282.403864,106.077749 L279.622899,106.077749 L279.622899,120.41491 C279.622899,120.766161 279.384043,121 279.026763,121 L274.973237,121 C274.615957,121 274.377101,120.766161 274.377101,120.41491 L274.377101,106.077749 L271.596136,106.077749 C271.238856,106.077749 271,105.84391 271,105.491673 L271,102.444865 C271,102.093614 271.238856,101.858789 271.596136,101.858789 L274.377101,101.858789 L274.377101,96.5850896 C274.377101,96.2338385 274.615957,96 274.973237,96 L279.026763,96 C279.384043,96 279.622899,96.2338385 279.622899,96.5850896 L279.622899,101.858789 L282.403864,101.858789 C282.761144,101.858789 283,102.093614 283,102.444865" id="Fill-31" fill="#000000"></path>
                <path d="M302.794385,110.961671 C302.794385,108.082064 300.720443,105.669287 297.902135,105.669287 C295.045275,105.669287 292.970344,107.926781 292.970344,110.961671 C292.970344,114.035872 295.045275,116.330713 297.902135,116.330713 C300.720443,116.330713 302.794385,113.840295 302.794385,110.961671 M308,102.011302 L308,119.911057 C308,120.260934 307.764729,120.49484 307.412811,120.49484 L303.811586,120.49484 C303.459668,120.49484 303.263938,120.260934 303.224397,119.911057 L303.068209,118.276658 C301.699091,119.871744 299.780348,121 297.276394,121 C291.914591,121 288,116.564619 288,111 C288,105.436364 291.914591,101 297.276394,101 C299.702254,101 301.659549,102.167568 303.10775,103.801966 L303.224397,102.011302 C303.263938,101.661425 303.459668,101.428501 303.811586,101.428501 L307.412811,101.428501 C307.764729,101.428501 308,101.661425 308,102.011302" id="Fill-33" fill="#000000"></path>
                <path d="M333,109.263171 L333,120.401059 C333,120.76002 332.767786,121 332.417996,121 L328.461543,121 C328.112732,121 327.879538,120.76002 327.879538,120.401059 L327.879538,110.221074 C327.879538,106.987396 326.172718,105.869171 324.310108,105.869171 C321.440259,105.869171 320.120462,108.78422 320.120462,109.70179 L320.120462,120.401059 C320.120462,120.76002 319.888248,121 319.539437,121 L315.582004,121 C315.233194,121 315,120.76002 315,120.401059 L315,102.036552 C315,101.67759 315.233194,101.438619 315.582004,101.438619 L319.383648,101.438619 C319.733439,101.438619 319.92646,101.67759 319.965652,102.036552 L320.120462,104.591631 L320.120462,104.631964 C321.361875,102.555836 323.379293,101 326.133526,101 C330.012574,101 333,104.033022 333,109.263171" id="Fill-35" fill="#000000"></path>
                <g id="Group-39" transform="translate(339, 101)">
                    <mask id="mask-2" fill="white">
                        <use xlink:href="#path-1"></use>
                    </mask>
                    <g id="Clip-38"></g>
                    <path d="M14.7947508,9.96167076 C14.7947508,7.08206388 12.7207572,4.66928747 9.90237995,4.66928747 C7.04544893,4.66928747 4.97046685,6.92678133 4.97046685,9.96167076 C4.97046685,13.0358722 7.04544893,15.3307125 9.90237995,15.3307125 C12.7207572,15.3307125 14.7947508,12.8402948 14.7947508,9.96167076 M20.0004943,1.01130221 L20.0004943,18.9110565 C20.0004943,19.2609337 19.7652176,19.4948403 19.4132912,19.4948403 L15.8119764,19.4948403 C15.4600499,19.4948403 15.2643155,19.2609337 15.2247732,18.9110565 L15.0685812,17.2766585 C13.6984406,18.8717445 11.7806391,20 9.27662309,20 C3.91468749,20 0,15.5646192 0,10 C0,4.43636364 3.91468749,0 9.27662309,0 C11.7025431,0 13.6598868,1.16756757 15.1081235,2.8019656 L15.2247732,1.01130221 C15.2643155,0.661425061 15.4600499,0.428501229 15.8119764,0.428501229 L19.4132912,0.428501229 C19.7652176,0.428501229 20.0004943,0.661425061 20.0004943,1.01130221" id="Fill-37" fill="#000000" mask="url(#mask-2)"></path>
                </g>
                <path d="M177.503,42.6315 C177.499,42.5445 177.5,42.4555 177.497,42.3685 C177.497,42.3755 177.497,42.3825 177.497,42.3905 C177.497,42.4715 177.501,42.5505 177.503,42.6315" id="Fill-40" fill="#FFDD00"></path>
                <path d="M195.659302,32.673808 C195.052623,28.1490181 193.611883,23.7468113 191.430191,19.7388321 C187.117771,11.8140754 179.966996,5.56919849 171.523474,2.39478477 C167.305144,0.808068244 162.806506,0 158.300028,0 C147.809087,0 137.642558,4.49242794 130.546667,12.2200709 C118.798264,-0.660968442 99.1355914,-3.69024369 84.0460433,5.04160054 C80.10606,7.32164746 76.5865376,10.3175801 73.7011369,13.8381687 C66.528799,5.98598126 56.5122245,0.999297986 45.9046525,0.139254479 C36.5398413,-0.620761163 27.0583989,1.79265625 19.2058749,6.95487862 C11.6856032,11.8993933 5.81777231,19.2210408 2.66480555,27.6577047 C-0.612633323,36.4287756 -0.874318783,46.235429 1.92091317,55.1722323 C4.60147397,63.7403054 10.0419833,71.3404618 17.2505846,76.679204 C24.7287122,82.2180018 33.9376882,85.1599979 43.2387931,84.9932848 C46.4927097,84.9354255 49.8005315,84.5961153 52.9564385,83.7988344 C53.9149718,83.5556294 54.8323411,83.2673138 55.6977653,82.8917189 C54.5530139,83.3536123 53.3033923,83.6105466 51.9939849,83.6105466 C46.5201523,83.6105466 42.0822806,79.1700939 42.0822806,73.693078 C42.0822806,68.7740606 45.663549,64.6925315 50.3591859,63.9129025 C49.1232856,64.0776543 47.8981664,64.3796992 46.5858187,64.6199622 C41.6686803,65.5182517 36.5114186,64.9808471 32.0715866,62.6821675 C23.7995818,58.3986213 18.8824434,49.2411683 19.9125236,39.9738808 C20.9308427,30.8085825 27.676839,22.965221 36.5731646,20.5684749 C41.4648205,19.2504607 46.7573354,19.6221329 51.3980869,21.6658395 C56.3642301,23.8527232 60.5119936,27.9891696 63.2709621,32.6218327 C63.9629094,33.7839211 64.5578273,35.0038688 65.0419944,36.2669658 C65.521261,37.5192754 65.8054887,38.830425 66.4552919,40.0121267 C67.7597988,42.3804335 70.0277395,44.1515151 72.6445941,44.8311162 C77.8155772,46.1726664 82.9375555,43.1080872 84.5282503,38.1145393 C84.967333,36.7367045 85.0241785,35.3333724 85.3191872,33.9261176 C85.8347174,31.4685702 86.879499,29.1316447 88.3653236,27.1075515 C91.2909082,23.1221275 95.8444312,20.4782537 100.752749,19.9114292 C110.168525,18.8238713 118.991343,25.5924235 120.432083,34.9646422 C120.81138,37.4261122 121.183817,39.6129959 122.848999,41.5978626 C124.601409,43.6866798 127.189841,44.978216 129.912546,45.1174705 C132.690136,45.2586863 135.442244,44.2064324 137.411255,42.2392177 C139.234233,40.4161609 140.02909,38.1557272 140.324099,35.6520886 C141.443368,26.1327701 150.335773,19.0455017 159.836817,19.8565119 C169.250633,20.6606575 176.386707,29.0227909 176.012311,38.4587528 C175.969187,39.5531753 175.913321,40.5818933 175.942724,41.5919786 C175.954485,36.093388 180.412939,31.639206 185.911274,31.639206 C191.41745,31.639206 195.879824,36.105156 195.879824,41.6135532 C195.879824,41.6282632 195.878844,41.6419925 195.878844,41.6557218 C195.912167,41.2546297 195.936669,40.8496149 195.953331,40.4406775 C196.055261,37.848779 196.004296,35.2470738 195.659302,32.673808" id="Fill-42" fill="#FFDD00"></path>
                <path d="M196,41.9995084 C196,47.5227843 191.522784,52 186.000492,52 C180.477216,52 176,47.5227843 176,41.9995084 C176,36.4772157 180.477216,32 186.000492,32 C191.522784,32 196,36.4772157 196,41.9995084" id="Fill-44" fill="#000000"></path>
                <path d="M62,74 C62,79.5225947 57.5233622,84 51.9995056,84 C46.4766378,84 42,79.5225947 42,74 C42,68.4774053 46.4766378,64 51.9995056,64 C57.5233622,64 62,68.4774053 62,74" id="Fill-46" fill="#000000"></path>
            </g>
            <g id="Group-31">
                <path d="M109.5,129.290356 C78.1353163,129.290356 52.7096445,103.864684 52.7096445,72.5 C52.7096445,41.1362418 78.1353163,15.7096445 109.5,15.7096445 C140.864684,15.7096445 166.290356,41.1362418 166.290356,72.5 C166.290356,103.864684 140.864684,129.290356 109.5,129.290356 M109.5,0 C69.4595647,0 37,32.4595647 37,72.5 C37,112.541361 69.4595647,145 109.5,145 C149.540435,145 182,112.541361 182,72.5 C182,32.4595647 149.540435,0 109.5,0" id="Fill-1" fill="#FFDD00"></path>
                <path d="M188.132088,57.8164474 L182.805842,57.8164474 C182.284908,57.8164474 181.994981,58.1643494 181.937931,58.6852672 L181.937931,59.2884843 C179.633476,57.8463745 176.918446,57 173.999532,57 C165.715092,57 159,63.7158177 159,72 C159,80.2841823 165.715092,87 173.999532,87 C176.918446,87 179.633476,86.1526903 181.937931,84.7105805 L181.937931,85.3147328 C181.994981,85.8356506 182.284908,86.1835526 182.805842,86.1835526 L188.132088,86.1835526 C188.653022,86.1835526 189,85.8356506 189,85.3147328 L189,58.6852672 C189,58.1643494 188.653022,57.8164474 188.132088,57.8164474" id="Fill-3" fill="#222221"></path>
                <path d="M86.3534901,58 L92.2367145,58 C92.8651647,58 93.1500621,58.3427811 92.9219579,58.9715236 L82.4692027,85.3144378 C82.2988229,85.7717898 81.8984768,86 81.4413376,86 L75.6158374,86 C75.1586982,86 74.7592832,85.7717898 74.5879723,85.3144378 L64.0784238,58.9715236 C63.8493886,58.3427811 64.1352171,58 64.7636672,58 L70.6468916,58 C71.1040309,58 71.5034459,58.2291417 71.6747567,58.6864937 L78.528122,77.2003992 L85.325625,58.6864937 C85.4969358,58.2291417 85.8963508,58 86.3534901,58" id="Fill-5" fill="#222221"></path>
                <path d="M101.256359,70.3561779 L114.418481,70.3561779 C113.912351,66.4630851 111.268924,64.319263 107.94974,64.319263 C104.574626,64.319263 101.875267,66.4630851 101.256359,70.3561779 M119.031412,75.2085183 L101.369138,75.2085183 C102.099908,78.8753647 104.912045,80.9630851 109.243488,80.9630851 C111.437634,80.9630851 113.180664,80.3993086 115.09332,79.0445896 C115.59945,78.7061398 115.93687,78.7061398 116.331137,79.1016111 L118.805855,81.5277813 C119.200122,81.9223329 119.200122,82.3168844 118.749924,82.7684574 C116.106496,85.420874 112.505824,87 108.512718,87 C99.9066798,87 94,80.6246353 94,72.5 C94,64.3762844 99.9066798,58 107.893809,58 C115.880939,58 121,64.3762844 121,71.8801218 C121,74.0800457 120.718511,75.2085183 119.031412,75.2085183" id="Fill-7" fill="#222221"></path>
                <path d="M146.452118,72.363471 C146.452118,68.4148691 143.444622,64.8664443 139.35846,64.8664443 C135.214942,64.8664443 132.207445,68.1853968 132.207445,72.363471 C132.207445,76.5984469 135.214942,79.974301 139.35846,79.974301 C143.444622,79.974301 146.452118,76.3120729 146.452118,72.363471 M154,59.4878384 L154,86.3836664 C154,95.310697 145.771245,98 139.414891,98 C134.647856,98 130.335045,96.5690632 127.440411,94.5663114 C127.042618,94.2808703 126.986187,93.8797603 127.212837,93.4217486 L129.086162,89.98806 C129.370167,89.5309811 129.710604,89.3593433 130.221258,89.6457172 C132.775456,91.0757212 135.386085,91.7622723 138.790449,91.7622723 C142.195738,91.7622723 147.07656,90.4460717 147.07656,85.8109186 L147.07656,82.7214384 C145.033016,85.1243674 142.195738,86.8416781 138.450013,86.8416781 C130.675482,86.8416781 125,80.3175765 125,72.4203727 C125,64.5231688 130.675482,58 138.450013,58 C141.969089,58 144.862798,59.6594762 146.906342,62.0055036 L147.07656,59.4878384 C147.132991,58.9729251 147.416996,58.6287167 147.927651,58.6287167 L153.148909,58.6287167 C153.659564,58.6287167 154,58.9729251 154,59.4878384" id="Fill-9" fill="#222221"></path>
                <path d="M220,69.5689605 L220,85.1618676 C220,85.664747 219.663868,86 219.15967,86 L213.444511,86 C212.939399,86 212.603267,85.664747 212.603267,85.1618676 L212.603267,70.9099723 C212.603267,66.3831463 210.137994,64.8180251 207.448024,64.8180251 C203.30209,64.8180251 201.396733,68.8984545 201.396733,70.1838946 L201.396733,85.1618676 C201.396733,85.664747 201.060601,86 200.556403,86 L194.84033,86 C194.336132,86 194,85.664747 194,85.1618676 L194,59.4530665 C194,58.9501871 194.336132,58.6149341 194.84033,58.6149341 L200.331706,58.6149341 C200.836817,58.6149341 201.116318,58.9501871 201.172949,59.4530665 L201.396733,63.0306166 L201.396733,63.0861884 C203.189742,60.1791443 206.103496,58 210.082276,58 C215.685087,58 220,62.2471449 220,69.5689605" id="Fill-11" fill="#222221"></path>
                <g id="Group-15" transform="translate(0, 58)">
                    <mask id="mask-4" fill="white">
                        <use xlink:href="#path-3"></use>
                    </mask>
                    <g id="Clip-14"></g>
                    <path d="M26,11.5689605 L26,27.1618676 C26,27.664747 25.6638655,28 25.1596639,28 L19.4444647,28 C18.9393497,28 18.6032152,27.664747 18.6032152,27.1618676 L18.6032152,12.9099723 C18.6032152,8.38314625 16.1379247,6.81802505 13.4479357,6.81802505 C9.30197296,6.81802505 7.39660212,10.8984545 7.39660212,12.1838946 L7.39660212,27.1618676 C7.39660212,27.664747 7.06046767,28 6.55626598,28 L0.840153453,28 C0.335951772,28 -0.000182681768,27.664747 -0.000182681768,27.1618676 L-0.000182681768,1.45306654 C-0.000182681768,0.950187083 0.335951772,0.614934114 0.840153453,0.614934114 L6.33156741,0.614934114 C6.8366825,0.614934114 7.1161856,0.950187083 7.17281695,1.45306654 L7.39660212,5.03061656 L7.39660212,5.08618838 C9.18962368,2.1791443 12.1033979,0 16.0822068,0 C21.6850566,0 26,4.24714495 26,11.5689605" id="Fill-13" fill="#222221" mask="url(#mask-4)"></path>
                </g>
                <path d="M241,59.2812715 L241,63.6688317 C241,64.1749828 240.662331,64.5124169 240.155827,64.5124169 L236.214822,64.5124169 L236.214822,85.1564148 C236.214822,85.6625659 235.877152,86 235.370648,86 L229.629352,86 C229.122848,86 228.785178,85.6625659 228.785178,85.1564148 L228.785178,64.5124169 L224.844173,64.5124169 C224.337669,64.5124169 224,64.1749828 224,63.6688317 L224,59.2812715 C224,58.7751203 224.337669,58.4367693 224.844173,58.4367693 L228.785178,58.4367693 L228.785178,50.8435852 C228.785178,50.3374341 229.122848,50 229.629352,50 L235.370648,50 C235.877152,50 236.214822,50.3374341 236.214822,50.8435852 L236.214822,58.4367693 L240.155827,58.4367693 C240.662331,58.4367693 241,58.7751203 241,59.2812715" id="Fill-16" fill="#222221"></path>
                <g id="Group-20" transform="translate(244, 58)">
                    <mask id="mask-6" fill="white">
                        <use xlink:href="#path-5"></use>
                    </mask>
                    <g id="Clip-19"></g>
                    <path d="M7.25645745,12.3561779 L20.418758,12.3561779 C19.9126215,8.46308512 17.2691584,6.31926297 13.9499297,6.31926297 C10.5747692,6.31926297 7.87537441,8.46308512 7.25645745,12.3561779 M25.0317524,17.2085183 L7.36923787,17.2085183 C8.10001834,20.8753647 10.9121936,22.9630851 15.2436954,22.9630851 C17.4378706,22.9630851 19.1809241,22.3993086 21.0936067,21.0445896 C21.5997433,20.7061398 21.9371676,20.7061398 22.3314406,21.1016111 L24.8061915,23.5277813 C25.2004646,23.9223329 25.2004646,24.3168844 24.7502598,24.7684574 C22.1067967,27.420874 18.5060754,29 14.5129149,29 C5.90676003,29 0,22.6246353 0,14.5 C0,6.37628441 5.90676003,0 13.8939979,0 C21.8812359,0 27.0003668,6.37628441 27.0003668,13.8801218 C27.0003668,16.0800457 26.7188742,17.2085183 25.0317524,17.2085183" id="Fill-18" fill="#222221" mask="url(#mask-6)"></path>
                </g>
                <path d="M59.1320884,57.8164474 L53.8058422,57.8164474 C53.2849082,57.8164474 52.9959161,58.1643494 52.9379306,58.6852672 L52.9379306,59.2884843 C50.6334757,57.8473097 47.9184462,57 45.0004676,57 C36.7160271,57 30,63.7158177 30,72 C30,80.2841823 36.7160271,87 45.0004676,87 C47.9184462,87 50.6334757,86.1526903 52.9379306,84.7105805 L52.9379306,85.3147328 C52.9959161,85.8356506 53.2849082,86.1835526 53.8058422,86.1835526 L59.1320884,86.1835526 C59.6530224,86.1835526 60,85.8356506 60,85.3147328 L60,58.6852672 C60,58.1643494 59.6530224,57.8164474 59.1320884,57.8164474" id="Fill-21" fill="#222221"></path>
                <path d="M182,72 C182,76.4180511 178.418051,80 174,80 C169.581006,80 166,76.4180511 166,72 C166,67.5819489 169.581006,64 174,64 C178.418051,64 182,67.5819489 182,72" id="Fill-23" fill="#FFDD00"></path>
                <path d="M53,72 C53,76.4180511 49.4180511,80 45,80 C40.5810062,80 37,76.4180511 37,72 C37,67.5819489 40.5810062,64 45,64 C49.4180511,64 53,67.5819489 53,72" id="Fill-25" fill="#FFDD00"></path>
                <path d="M147,27 C147,22.5819489 150.581949,19 155,19 C159.418994,19 163,22.5819489 163,27 C163,31.4180511 159.418994,35 155,35 C150.581949,35 147,31.4180511 147,27" id="Fill-27" fill="#222221"></path>
                <path d="M72,118 C72,122.418051 68.4180511,126 64,126 C59.5810062,126 56,122.418051 56,118 C56,113.581949 59.5810062,110 64,110 C68.4180511,110 72,113.581949 72,118" id="Fill-29" fill="#222221"></path>
            </g>
        </g>
    </g>
</svg>