<?xml version="1.0" encoding="UTF-8"?>
<svg width="512px" height="512px" viewBox="0 0 512 512" version="1.1" xmlns="http://www.w3.org/2000/svg" xmlns:xlink="http://www.w3.org/1999/xlink">
    <title>PWA-Icon</title>
    <g id="PWA-Icon" stroke="none" stroke-width="1" fill="none" fill-rule="evenodd">
        <rect id="Rectangle" fill="#FFFFFF" x="0" y="0" width="512" height="512"></rect>
        <g id="Group" transform="translate(47.104, 164.864)">
            <path d="M417.065772,70.064945 C415.77258,60.362092 412.70151,50.9221035 408.051032,42.327487 C398.858714,25.3338253 383.616179,11.9424582 365.618037,5.13532012 C356.626279,1.73280253 347.037019,0 337.431047,0 C315.068643,0 293.397753,9.63345678 278.272211,26.2044324 C253.229411,-1.41736518 211.316617,-7.91327174 179.15186,10.8110896 C170.753424,15.7003685 163.251238,22.124776 157.100742,29.6742433 C141.812245,12.8361974 120.460996,2.14287109 97.8499825,0.298614028 C77.8880275,-1.33114563 57.6774621,3.84412988 40.9390861,14.9138781 C24.9089364,25.516779 12.401116,41.2171475 5.68027775,59.3085312 C-1.30588419,78.1170092 -1.86369078,99.1461661 4.09460284,118.310037 C9.80846435,136.683211 21.4054096,152.980808 36.7712054,164.429081 C52.7115211,176.306349 72.3412991,182.615096 92.1674584,182.2576 C99.1034804,182.133528 106.154406,181.405919 112.881512,179.696249 C114.924714,179.174726 116.880171,178.556468 118.724902,177.751052 C116.284759,178.741525 113.621076,179.292489 110.829954,179.292489 C99.161977,179.292489 89.7022457,169.770487 89.7022457,158.025702 C89.7022457,147.477477 97.3360483,138.725142 107.345229,137.053324 C104.710795,137.406614 102.099341,138.054312 99.3019509,138.569527 C88.8206188,140.495797 77.8274418,139.343399 68.3635322,134.414165 C50.7309943,125.228629 40.2496622,105.591603 42.4453728,85.7190494 C44.6160134,66.0651993 58.9957241,49.2460796 77.9590591,44.1065537 C88.3860729,41.280235 99.6675545,42.0772401 109.559743,46.4597164 C120.145533,51.1492183 128.986872,60.0193167 134.867866,69.9534905 C136.342816,72.4454455 137.610938,75.0614727 138.642984,77.7700281 C139.664585,80.4554514 140.270442,83.2670497 141.655558,85.8010631 C144.436234,90.8796045 149.270558,94.6774702 154.848624,96.1347908 C165.871049,99.0115795 176.789016,92.4399679 180.179728,81.7319212 C181.115673,78.7773247 181.236845,75.7680523 181.865683,72.7503683 C182.964583,67.4804616 185.191631,62.4692135 188.358802,58.1287955 C194.594955,49.5825462 204.301207,43.9130855 214.763737,42.6976002 C234.834328,40.3654667 253.640976,54.8797908 256.712046,74.977356 C257.520552,80.2556744 258.314434,84.9451764 261.863923,89.2014778 C265.599346,93.6806882 271.116827,96.4502282 276.920522,96.7488422 C282.841211,97.051662 288.707581,94.7952335 292.90471,90.5767846 C296.790554,86.6674644 298.484865,81.8202437 299.113703,76.4514999 C301.499528,56.0384973 320.454506,40.8407256 340.706855,42.5798369 C360.773268,44.3042278 375.984466,62.2357899 375.186405,82.4700446 C375.094482,84.8168986 374.9754,87.0228571 375.038075,89.1888603 C375.063145,77.397812 384.566748,67.8463689 396.286954,67.8463689 C408.023873,67.8463689 417.535834,77.423047 417.535834,89.2351244 C417.535834,89.2666682 417.533745,89.296109 417.533745,89.3255498 C417.604776,88.4654573 417.657005,87.5969531 417.692521,86.7200373 C417.909794,81.1620311 417.801157,75.5829958 417.065772,70.064945" id="Fill-42" fill="#FFDD00"></path>
            <path d="M417.792,87.0389429 C417.792,98.9161953 408.164195,108.544 396.289057,108.544 C384.411805,108.544 374.784,98.9161953 374.784,87.0389429 C374.784,75.1638047 384.411805,65.536 396.289057,65.536 C408.164195,65.536 417.792,75.1638047 417.792,87.0389429" id="Fill-44" fill="#000000"></path>
            <path d="M132.096,157.696 C132.096,169.571788 122.469438,179.2 110.590937,179.2 C98.714562,179.2 89.088,169.571788 89.088,157.696 C89.088,145.820212 98.714562,136.192 110.590937,136.192 C122.469438,136.192 132.096,145.820212 132.096,157.696" id="Fill-46" fill="#000000"></path>
        </g>
    </g>
</svg>