<?xml version="1.0" encoding="UTF-8"?>
<svg id="_4414" data-name="4414" xmlns="http://www.w3.org/2000/svg" viewBox="0 0 1797.1 2210.35">
  <defs>
    <style>
      .cls-1 {
        fill: #fff;
      }

      .cls-2 {
        fill: none;
        stroke: #c61d23;
        stroke-linecap: round;
        stroke-linejoin: round;
        stroke-width: 4px;
      }
    </style>
  </defs>
  <g id="_4414-2" data-name="4414">
    <path class="cls-2" d="M1025.3,1225.92l1.07-8.37c.27-2.08,1.09-4.04,2.39-5.69l2.82-3.57c4.67-5.9,7.21-13.21,7.21-20.74v-1.02c0-5.21,1.22-10.35,3.56-15.01l16.39-32.63c1.63-3.24,2.72-6.72,3.23-10.31l5.83-41.07c.51-3.63,3.2-6.56,6.77-7.4l2.77-.65c3.71-.87,6.46-4.01,6.82-7.8l1.38-14.5h0s-12.66-17.38-12.66-17.38h0s-9.77-5.06-17.21-8.89c-4.55-2.34-6.3-7.95-3.9-12.47h0c2.35-4.41,7.79-6.12,12.24-3.86l.26.13c14.41,7.33,31.68,6.11,44.92-3.15l30.67-21.47c4.76-3.33,10.29-5.38,16.07-5.94l29.35-2.87c10.38-1.02,20.18-5.25,28.03-12.11l6.87-5.99"/>
    <circle class="cls-1" cx="1025.3" cy="1225.92" r="2"/>
    <circle class="cls-1" cx="1027.31" cy="1213.64" r="2"/>
    <circle class="cls-1" cx="1036.81" cy="1199.17" r="2"/>
    <circle class="cls-1" cx="1055.51" cy="1030.84" r="2"/>
    <circle class="cls-1" cx="1064.65" cy="1109.51" r="2"/>
    <polyline class="cls-2" points="1220.18 963.17 1233.94 951.15 1240.15 945.88 1283.91 907.41 1325.47 873.15"/>
    <circle class="cls-1" cx="1220.18" cy="963.17" r="2"/>
    <circle class="cls-1" cx="1233.94" cy="951.15" r="2"/>
    <circle class="cls-1" cx="1240.15" cy="945.88" r="2"/>
    <circle class="cls-1" cx="1283.91" cy="907.41" r="2"/>
    <polyline class="cls-2" points="1325.47 873.15 1378.41 837.21 1423.74 832.05 1423.74 831.79 1423.74 825.74 1424.08 796.47"/>
    <circle class="cls-1" cx="1414.3" cy="833.21" r="2"/>
    <circle class="cls-1" cx="1424.08" cy="800.51" r="2"/>
    <circle class="cls-1" cx="1342.11" cy="861.92" r="2"/>
    <circle class="cls-1" cx="1381.68" cy="836.84" r="2"/>
    <polyline class="cls-2" points="1530.95 721.49 1520.52 741.35 1514.06 745.82 1507.61 796.47 1424.08 796.47"/>
    <circle class="cls-1" cx="1480.66" cy="796.47" r="2"/>
    <circle class="cls-1" cx="1511.79" cy="763.17" r="2"/>
    <circle class="cls-1" cx="1530.95" cy="721.49" r="2"/>
    <path class="cls-2" d="M1070.11,1080.64h0c-1.21-5-6.44-7.89-11.32-6.24l-1.75.59c-1.96.66-3.75,1.77-5.2,3.24l-8.37,8.44c-3.61,3.65-9,4.89-13.84,3.2l-102.77-35.9c-3.61-1.26-7.59-.92-10.93.92l-19.85,10.97c-3.37,1.86-7.38,2.19-11,.9l-42.71-15.18c-5.76-2.05-9.88-7.16-10.65-13.23l-3.24-25.51"/>
    <circle class="cls-1" cx="1068.86" cy="1077.64" r="2"/>
    <circle class="cls-1" cx="1051.04" cy="1078.91" r="2"/>
    <circle class="cls-1" cx="1045.54" cy="1084.46" r="2"/>
    <circle class="cls-1" cx="1023.3" cy="1087.44" r="2"/>
    <circle class="cls-1" cx="955.5" cy="1063.81" r="2"/>
    <circle class="cls-1" cx="926.7" cy="1053.73" r="2"/>
    <circle class="cls-1" cx="880.8" cy="1065.08" r="2"/>
    <circle class="cls-1" cx="832.43" cy="1041.3" r="2"/>
    <circle class="cls-1" cx="828.46" cy="1012.84" r="2"/>
  </g>
</svg>