<svg xmlns="http://www.w3.org/2000/svg" width="24" height="24" viewBox="0 0 24 24"><defs><style>.a{fill:#ccc;}</style></defs><path class="a" d="M560,41.419a2.857,2.857,0,1,0,2.859,2.857A2.857,2.857,0,0,0,560,41.419Zm6.681-2.2a2.893,2.893,0,0,0-1.629-1.629c-1.125-.444-3.8-.344-5.052-.344s-3.924-.1-5.052.344a2.892,2.892,0,0,0-1.629,1.629c-.444,1.125-.345,3.806-.345,5.053s-.1,3.925.347,5.054a2.893,2.893,0,0,0,1.629,1.629c1.125.444,3.8.344,5.052.344s3.924.1,5.052-.344a2.893,2.893,0,0,0,1.629-1.629c.447-1.125.344-3.806.344-5.053s.1-3.925-.344-5.053ZM560,48.669a4.387,4.387,0,1,1,.011,0Zm4.574-7.945A1.025,1.025,0,1,1,565.6,39.7h0a1.023,1.023,0,0,1-1.019,1.027h0Zm4.855-8.448H550.571A2.571,2.571,0,0,0,548,34.847V53.7a2.571,2.571,0,0,0,2.571,2.571h18.857A2.572,2.572,0,0,0,572,53.7V34.847A2.571,2.571,0,0,0,569.429,32.276Zm-.917,15.536a4.747,4.747,0,0,1-4.974,4.974c-1.415.08-5.657.08-7.071,0a4.747,4.747,0,0,1-4.974-4.974c-.08-1.415-.08-5.658,0-7.071a4.742,4.742,0,0,1,4.974-4.97c1.415-.08,5.657-.08,7.071,0a4.748,4.748,0,0,1,4.974,4.977C568.591,42.157,568.591,46.4,568.511,47.812Z" transform="translate(-548 -32.276)"/></svg>