<svg width="24" height="24" viewBox="0 0 24 24" fill="none" xmlns="http://www.w3.org/2000/svg">
<g clip-path="url(#clip0_58_9813)">
<rect width="24" height="24" rx="12" fill="white"/>
<path fill-rule="evenodd" clip-rule="evenodd" d="M9.37161 6.5C10.3251 6.5 11.2187 6.75558 11.9975 7.20539C11.3685 7.56831 10.8193 8.05901 10.38 8.63662C10.0605 8.53438 9.72106 8.48327 9.37161 8.48327C7.47956 8.48327 5.93697 10.0627 5.93697 12C5.93697 13.9373 7.47956 15.5167 9.37161 15.5167C9.72106 15.5167 10.0605 15.4605 10.38 15.3634C10.8193 15.941 11.3685 16.4317 11.9975 16.7946C11.2187 17.2444 10.3251 17.5 9.37161 17.5C6.41123 17.5051 4 15.0311 4 12C4 8.96886 6.41123 6.5 9.37161 6.5ZM13.62 8.63662C14.3239 9.56691 14.7482 10.7375 14.7482 12C14.7482 13.2625 14.3289 14.4331 13.62 15.3634C12.981 15.164 12.4218 14.7756 12.0025 14.2644C12.5067 13.651 12.8112 12.8638 12.8112 12C12.8112 11.1361 12.5067 10.349 12.0025 9.73559C12.4218 9.22444 12.981 8.83596 13.62 8.63662Z" fill="#FFD400"/>
<path fill-rule="evenodd" clip-rule="evenodd" d="M14.6284 6.5C17.5888 6.5 20 8.96886 20 12C20 15.0311 17.5838 17.5 14.6284 17.5C13.6749 17.5 12.7763 17.2444 12.0025 16.7946C12.6315 16.4317 13.1807 15.941 13.62 15.3634C13.9395 15.4656 14.2789 15.5167 14.6284 15.5167C16.5204 15.5167 18.063 13.9373 18.063 12C18.063 10.0627 16.5204 8.48327 14.6284 8.48327C14.2789 8.48327 13.9395 8.5395 13.62 8.63662C13.1807 8.0539 12.6315 7.56831 12.0025 7.20539C12.7813 6.75558 13.6749 6.5 14.6284 6.5Z" fill="#19478E"/>
<path fill-rule="evenodd" clip-rule="evenodd" d="M10.38 15.3634C9.67611 14.4331 9.25177 13.2625 9.25177 12C9.25177 10.7374 9.67111 9.56689 10.38 8.6366C11.019 8.83595 11.5781 9.22442 11.9975 9.73557C11.4933 10.349 11.1887 11.1412 11.1887 12C11.1887 12.8587 11.4933 13.651 11.9975 14.2644C11.5781 14.7755 11.019 15.164 10.38 15.3634Z" fill="#19478E"/>
</g>
<defs>
<clipPath id="clip0_58_9813">
<rect width="24" height="24" fill="white"/>
</clipPath>
</defs>
</svg>
