<svg width="24" height="24" viewBox="0 0 24 24" fill="none" xmlns="http://www.w3.org/2000/svg">
<g clip-path="url(#clip0_58_9800)">
<rect width="24" height="24" rx="12" fill="white"/>
<path fill-rule="evenodd" clip-rule="evenodd" d="M7.21499 10.5825C6.47999 10.5825 5.87999 11.175 5.87999 11.9025C5.87999 12.63 6.47999 13.2225 7.21499 13.2225H9.23998C9.59248 13.2225 10.0275 12.975 10.2075 12.6675L12.18 9.2925C12.4425 8.835 13.1025 8.4675 13.635 8.4675H16.7325C18.66 8.4675 20.2275 10.0125 20.2275 11.9175C20.2275 13.8225 18.6675 15.3675 16.7325 15.3675H15.5475C15.195 15.3675 14.76 15.615 14.58 15.915L13.965 16.965H11.4375L13.1475 14.04C13.41 13.5825 14.0625 13.215 14.6025 13.215H16.74C17.475 13.215 18.075 12.6225 18.075 11.895C18.075 11.1675 17.475 10.575 16.74 10.575H14.31C13.9575 10.575 13.5225 10.8225 13.3425 11.1225L11.355 14.5275C11.0925 14.985 10.44 15.3525 9.90749 15.3525H7.22999C5.30249 15.3525 3.73499 13.8075 3.73499 11.9025C3.73499 9.9975 5.29499 8.4525 7.22249 8.4525H10.875L9.63749 10.5675H7.22249L7.21499 10.5825Z" fill="#2A9057"/>
</g>
<defs>
<clipPath id="clip0_58_9800">
<rect width="24" height="24" fill="white"/>
</clipPath>
</defs>
</svg>
