<svg width="24" height="24" viewBox="0 0 24 24" fill="none" xmlns="http://www.w3.org/2000/svg">
<g clip-path="url(#clip0_58_9812)">
<rect width="24" height="24" rx="12" fill="white"/>
<path fill-rule="evenodd" clip-rule="evenodd" d="M8.23715 17.6486L16.7963 17.3771C17.1272 17.3771 17.475 17.0887 17.4241 16.7409C17.3308 16.0878 15.965 13.967 15.2694 14.1113L10.1034 14.7559H10.0694C9.96765 14.7559 9.88282 14.6711 9.88282 14.5693C9.88282 14.476 9.95069 14.3997 10.0355 14.3827L15.3034 13.5853C15.4136 13.5599 15.5324 13.5599 15.6512 13.5684L17.7719 13.9501C18.4929 14.0773 19.8841 16.215 19.9944 17.0039C20.0537 17.4365 19.6296 17.954 19.2224 17.9794L17.3901 18.1321H8.23715C8.10991 18.1236 8.00812 18.0218 8.00812 17.8946C8.00812 17.7674 8.10991 17.6656 8.23715 17.6571" fill="#003764"/>
<path d="M13.7341 8.95368L12.4616 9.97162L13.9377 11.3543L13.7256 8.95368H13.7341ZM8.34747 6.12041L11.5709 9.1403L13.6153 7.60491L13.5305 6.62938C13.4711 5.91682 14.4975 5.80654 14.5654 6.52758L15.2016 12.6352C15.2271 12.9321 15.015 13.1866 14.7181 13.2121C14.5399 13.2205 14.3618 13.1612 14.2261 13.0424L11.5709 10.6757L7.83002 13.6701L7.55009 17.674C7.52464 18.0303 7.15988 18.3018 6.81208 18.2763C6.4558 18.2509 6.18435 17.9455 6.20132 17.5892L7.23622 4.77164C7.2956 3.93184 8.50016 4.01667 8.44078 4.86495L8.34747 6.12889V6.12041ZM7.94878 11.8633L10.6294 9.84437L8.2372 7.72366L7.94878 11.8633Z" fill="#E2231A"/>
</g>
<defs>
<clipPath id="clip0_58_9812">
<rect width="24" height="24" fill="white"/>
</clipPath>
</defs>
</svg>
