<svg width="24" height="24" viewBox="0 0 24 24" fill="none" xmlns="http://www.w3.org/2000/svg">
<g clip-path="url(#clip0_58_9816)">
<rect width="24" height="24" rx="12" fill="white"/>
<g clip-path="url(#clip1_58_9816)">
<path d="M17.9906 11.0957H9.13916V18.9912H17.9906V11.0957Z" fill="white"/>
<path d="M17.6538 7.74132H6.42572V11.4811H17.6538V7.74132Z" fill="white"/>
<path d="M12.4936 15.1858V19H18V14.7654L15.1275 16.4776C15.1275 16.4776 13.4854 15.6106 12.4936 15.1902" fill="#E43C2F"/>
<path d="M16.1567 9.0244C15.8667 9.0244 15.6749 9.26087 15.6749 9.65937C15.6749 10.0185 15.8714 10.2549 16.1521 10.2549C16.4328 10.2549 16.6199 10.0228 16.6199 9.64623C16.6199 9.26087 16.4281 9.0244 16.1567 9.0244Z" fill="#E43C2F"/>
<path d="M6 7.33406V19H10.3977V12.1511C12.2363 12.786 15.1275 14.2749 15.1275 14.2749L18 12.5627V5C18 5 11.6515 5.18392 6 7.33406ZM9.82222 10.6096H9.36842V9.56741C9.36842 9.401 9.36374 9.3178 9.35439 9.24335C9.33099 9.11636 9.21871 9.03754 9.05965 9.03754C8.9614 9.03754 8.85848 9.05943 8.70409 9.12074C8.72749 9.1908 8.7462 9.22146 8.7462 9.42728V10.6096H8.30175V9.46231C8.30175 9.28714 8.28772 9.20394 8.23158 9.1295C8.18012 9.06819 8.09591 9.03754 7.96959 9.03754C7.8807 9.03754 7.8152 9.04629 7.67953 9.08571V10.6096H7.22573V8.8361C7.49708 8.70034 7.74971 8.63904 7.9883 8.63904C8.20819 8.63904 8.38129 8.69159 8.54035 8.80106C8.74152 8.68283 8.91462 8.63904 9.11579 8.63904C9.34035 8.63904 9.5462 8.71348 9.66784 8.8361C9.77544 8.95433 9.8269 9.10322 9.8269 9.38348V10.6009L9.82222 10.6096ZM11.9368 9.75571H10.6737C10.6971 10.0754 10.8749 10.2549 11.1556 10.2549C11.3053 10.2549 11.483 10.2024 11.6374 10.0885L11.8573 10.3644C11.6561 10.5483 11.3988 10.6447 11.1228 10.6447C10.5661 10.6447 10.2152 10.2549 10.2152 9.65061C10.2152 9.04629 10.5708 8.64342 11.1368 8.64342C11.6515 8.64342 11.9462 9.01126 11.9462 9.58492C11.9462 9.62434 11.9415 9.65937 11.9368 9.75571ZM13.0924 10.6403C12.9099 10.6403 12.7696 10.6009 12.6667 10.5133C12.5123 10.3775 12.5029 10.163 12.5029 9.9878V9.0244H12.1801V8.66531H12.5029V8.17485L12.9567 8.07413V8.66531H13.4994L13.4012 9.0244H12.9567V9.85205C12.9567 10.1017 12.9708 10.163 13.0175 10.2111C13.0503 10.2505 13.1158 10.2768 13.2281 10.2768C13.2982 10.2768 13.331 10.2768 13.4386 10.2462L13.5181 10.5702C13.3684 10.6228 13.2468 10.6447 13.0971 10.6447M15.0339 9.07257C14.9029 9.04191 14.8421 9.03316 14.7485 9.03316C14.6409 9.03316 14.524 9.06819 14.4678 9.09446V10.6053H14.0094V8.82296C14.2901 8.70034 14.538 8.64342 14.7813 8.64342C14.9029 8.64342 14.9871 8.65217 15.1368 8.69159L15.0386 9.07257H15.0339ZM16.1567 10.6403C15.5766 10.6403 15.1977 10.2374 15.1977 9.63747C15.1977 9.03754 15.5719 8.64342 16.1474 8.64342C16.7228 8.64342 17.0971 9.04629 17.0971 9.62871C17.0971 10.233 16.7228 10.6403 16.1567 10.6403Z" fill="#E43C2F"/>
<path d="M11.1088 9.00688C10.9076 9.00688 10.7392 9.16015 10.7018 9.39224H11.4644C11.4456 9.14701 11.3146 9.00688 11.1088 9.00688Z" fill="#E43C2F"/>
</g>
</g>
<defs>
<clipPath id="clip0_58_9816">
<rect width="24" height="24" fill="white"/>
</clipPath>
<clipPath id="clip1_58_9816">
<rect width="12" height="14" fill="white" transform="translate(6 5)"/>
</clipPath>
</defs>
</svg>
