<svg width="24" height="24" viewBox="0 0 24 24" fill="none" xmlns="http://www.w3.org/2000/svg">
<g clip-path="url(#clip0_93_299)">
<path d="M21.8175 0H2.1825C0.977139 0 0 0.977139 0 2.1825V21.8175C0 23.0229 0.977139 24 2.1825 24H21.8175C23.0229 24 24 23.0229 24 21.8175V2.1825C24 0.977139 23.0229 0 21.8175 0Z" fill="#286FB7"/>
<path d="M17.535 9.18C17.535 12.0075 15.66 14.01 12.18 14.01H10.3875V18.8175C10.3875 19.005 10.26 19.1325 10.0725 19.1325H7.815C7.6275 19.1325 7.5 19.005 7.5 18.8175V4.6875C7.5 4.5 7.6275 4.3725 7.815 4.3725H12.18C15.66 4.3725 17.535 6.375 17.535 9.18ZM14.7675 9.18C14.7675 7.47 13.4625 6.9225 12.1125 6.9225H10.3875V11.43H12.1125C13.4625 11.43 14.7675 10.905 14.7675 9.1725V9.18Z" fill="white"/>
</g>
<defs>
<clipPath id="clip0_93_299">
<rect width="24" height="24" fill="white"/>
</clipPath>
</defs>
</svg>
