<svg width="24" height="24" viewBox="0 0 24 24" fill="none" xmlns="http://www.w3.org/2000/svg">
<g clip-path="url(#clip0_87_281)">
<path d="M11.9775 23.955C18.5925 23.955 23.955 18.5925 23.955 11.9775C23.955 5.36251 18.5925 0 11.9775 0C5.36251 0 0 5.36251 0 11.9775C0 18.5925 5.36251 23.955 11.9775 23.955Z" fill="#FFDD00"/>
<path d="M15.7125 6.7275H8.24248C7.81998 6.7275 7.47748 7.07 7.47748 7.4925V15.7125C7.47748 16.135 7.81998 16.4775 8.24248 16.4775H15.7125C16.135 16.4775 16.4775 16.135 16.4775 15.7125V7.4925C16.4775 7.07 16.135 6.7275 15.7125 6.7275Z" stroke="black" stroke-width="2" stroke-linecap="round" stroke-linejoin="round"/>
<path d="M8.97748 17.2275V17.9775" stroke="black" stroke-width="2" stroke-linecap="round" stroke-linejoin="round"/>
<path d="M14.9775 17.2275V17.9775" stroke="black" stroke-width="2" stroke-linecap="round" stroke-linejoin="round"/>
<path d="M16.8525 12.7275H7.10248V16.4775H16.8525V12.7275Z" fill="black"/>
<path d="M5.78248 8.2275H6.72748V9.7275H5.78248C5.47498 9.7275 5.22748 9.48 5.22748 9.1725V8.7825C5.22748 8.475 5.47498 8.2275 5.78248 8.2275Z" fill="black"/>
<path d="M18.165 9.72H17.22V8.22H18.165C18.4725 8.22 18.72 8.4675 18.72 8.775V9.165C18.72 9.4725 18.4725 9.72 18.165 9.72Z" fill="black"/>
<path d="M8.97748 15.7275C9.39169 15.7275 9.72748 15.3917 9.72748 14.9775C9.72748 14.5633 9.39169 14.2275 8.97748 14.2275C8.56326 14.2275 8.22748 14.5633 8.22748 14.9775C8.22748 15.3917 8.56326 15.7275 8.97748 15.7275Z" fill="#FFDD00"/>
<path d="M14.9775 15.7275C15.3917 15.7275 15.7275 15.3917 15.7275 14.9775C15.7275 14.5633 15.3917 14.2275 14.9775 14.2275C14.5633 14.2275 14.2275 14.5633 14.2275 14.9775C14.2275 15.3917 14.5633 15.7275 14.9775 15.7275Z" fill="#FFDD00"/>
<path d="M10.4775 7.4775H13.4775V8.37C13.4775 8.7075 13.2075 8.9775 12.87 8.9775H11.085C10.7475 8.9775 10.4775 8.7075 10.4775 8.37V7.4775Z" fill="black"/>
</g>
<defs>
<clipPath id="clip0_87_281">
<rect width="24" height="24" fill="white"/>
</clipPath>
</defs>
</svg>
