<svg width="24" height="24" viewBox="0 0 24 24" fill="none" xmlns="http://www.w3.org/2000/svg">
<g clip-path="url(#clip0_87_279)">
<path d="M11.9775 23.955C18.5925 23.955 23.955 18.5925 23.955 11.9775C23.955 5.36251 18.5925 0 11.9775 0C5.36251 0 0 5.36251 0 11.9775C0 18.5925 5.36251 23.955 11.9775 23.955Z" fill="#FFDD00"/>
<path d="M15.12 8.9775H8.83498C8.49946 8.9775 8.22748 9.24949 8.22748 9.585V15.87C8.22748 16.2055 8.49946 16.4775 8.83498 16.4775H15.12C15.4555 16.4775 15.7275 16.2055 15.7275 15.87V9.585C15.7275 9.24949 15.4555 8.9775 15.12 8.9775Z" stroke="black" stroke-width="2" stroke-linecap="round" stroke-linejoin="round"/>
<path d="M8.22748 18.7275L9.95248 16.7625" stroke="black" stroke-width="2" stroke-linecap="round" stroke-linejoin="round"/>
<path d="M13.995 16.7625L15.7275 18.7275" stroke="black" stroke-width="2" stroke-linecap="round" stroke-linejoin="round"/>
<path d="M8.22748 12.7275H15.7275V15.6225C15.7275 16.095 15.4725 16.4775 15.1575 16.4775H8.79748C8.48248 16.4775 8.22748 16.095 8.22748 15.6225V12.7275Z" fill="black"/>
<path d="M9.72748 15.7275C10.1417 15.7275 10.4775 15.3917 10.4775 14.9775C10.4775 14.5633 10.1417 14.2275 9.72748 14.2275C9.31326 14.2275 8.97748 14.5633 8.97748 14.9775C8.97748 15.3917 9.31326 15.7275 9.72748 15.7275Z" fill="#FFDD00"/>
<path d="M14.2275 15.7275C14.6417 15.7275 14.9775 15.3917 14.9775 14.9775C14.9775 14.5633 14.6417 14.2275 14.2275 14.2275C13.8133 14.2275 13.4775 14.5633 13.4775 14.9775C13.4775 15.3917 13.8133 15.7275 14.2275 15.7275Z" fill="#FFDD00"/>
<path d="M10.4775 9.7275H13.4775V10.38C13.4775 10.7175 13.2 10.995 12.8625 10.995H11.1C10.7625 10.995 10.485 10.7175 10.485 10.38V9.7275H10.4775Z" fill="black"/>
<path d="M7.47748 6.7275V6.2775C7.47748 5.7 7.94998 5.2275 8.52748 5.2275H15.435C16.0125 5.2275 16.485 5.7 16.485 6.2775V6.7275" stroke="black" stroke-width="2" stroke-linecap="round" stroke-linejoin="round"/>
<path d="M11.9775 8.9775V5.2275" stroke="black" stroke-width="2" stroke-linecap="round" stroke-linejoin="round"/>
</g>
<defs>
<clipPath id="clip0_87_279">
<rect width="24" height="24" fill="white"/>
</clipPath>
</defs>
</svg>
