<svg width="24" height="24" viewBox="0 0 24 24" fill="none" xmlns="http://www.w3.org/2000/svg">
<g clip-path="url(#clip0_87_282)">
<path d="M11.9775 23.955C18.5925 23.955 23.955 18.5925 23.955 11.9775C23.955 5.36251 18.5925 0 11.9775 0C5.36251 0 0 5.36251 0 11.9775C0 18.5925 5.36251 23.955 11.9775 23.955Z" fill="#FFDD00"/>
<path d="M15.12 8.6025H8.83498C8.49946 8.6025 8.22748 8.87449 8.22748 9.21V15.495C8.22748 15.8305 8.49946 16.1025 8.83498 16.1025H15.12C15.4555 16.1025 15.7275 15.8305 15.7275 15.495V9.21C15.7275 8.87449 15.4555 8.6025 15.12 8.6025Z" stroke="black" stroke-width="2" stroke-linecap="round" stroke-linejoin="round"/>
<path d="M8.22748 19.1025L9.95248 16.3875" stroke="black" stroke-width="2" stroke-linecap="round" stroke-linejoin="round"/>
<path d="M13.995 16.3875L15.7275 19.1025" stroke="black" stroke-width="2" stroke-linecap="round" stroke-linejoin="round"/>
<path d="M8.22748 12.3525H15.7275V15.4725C15.7275 15.9825 15.4725 16.395 15.1575 16.395H8.79748C8.48248 16.395 8.22748 15.9825 8.22748 15.4725V12.3525Z" fill="black"/>
<path d="M9.72748 15.3525C10.1417 15.3525 10.4775 15.0167 10.4775 14.6025C10.4775 14.1883 10.1417 13.8525 9.72748 13.8525C9.31326 13.8525 8.97748 14.1883 8.97748 14.6025C8.97748 15.0167 9.31326 15.3525 9.72748 15.3525Z" fill="#FFDD00"/>
<path d="M14.2275 15.3525C14.6417 15.3525 14.9775 15.0167 14.9775 14.6025C14.9775 14.1883 14.6417 13.8525 14.2275 13.8525C13.8133 13.8525 13.4775 14.1883 13.4775 14.6025C13.4775 15.0167 13.8133 15.3525 14.2275 15.3525Z" fill="#FFDD00"/>
<path d="M10.53 9.3525H13.4175V10.0125C13.4175 10.35 13.1475 10.62 12.81 10.62H11.1375C10.8 10.62 10.53 10.35 10.53 10.0125V9.3525Z" fill="black"/>
<path d="M5.22748 16.4775V11.055C5.22748 7.4175 8.24998 4.4775 11.9775 4.4775C15.705 4.4775 18.7275 7.425 18.7275 11.055V16.4775" stroke="black" stroke-width="2" stroke-miterlimit="10" stroke-linecap="round"/>
</g>
<defs>
<clipPath id="clip0_87_282">
<rect width="24" height="24" fill="white"/>
</clipPath>
</defs>
</svg>
