<svg width="182" height="172" viewBox="0 0 182 172" fill="none" xmlns="http://www.w3.org/2000/svg">
<path d="M133.964 140.802C133.736 140.203 133.722 139.543 133.925 138.935L134.649 136.766L135.952 133.061C136.074 132.715 136.009 132.331 135.779 132.045C135.458 131.644 135.47 131.072 135.806 130.685L135.895 130.582C136.349 130.058 136.28 129.264 135.743 128.827L135.211 128.394C134.35 127.694 133.074 127.879 132.449 128.795L132.231 129.114C132.002 129.449 131.687 129.716 131.318 129.887L125.142 132.747C124.373 133.103 123.482 133.091 122.724 132.712L121.406 132.054C120.535 131.619 119.5 131.67 118.676 132.188L118.067 132.571C117.326 133.037 116.408 133.127 115.59 132.815L112.706 131.716C111.59 131.29 110.364 131.992 110.168 133.168C109.995 134.2 109.016 134.895 107.984 134.718L106.649 134.49C106.108 134.397 105.551 134.466 105.05 134.688L98.6222 137.532C97.4889 138.033 96.16 137.726 95.362 136.779L93.5254 134.598C92.8716 133.821 91.809 133.522 90.8449 133.843C89.9216 134.15 88.9035 133.889 88.2424 133.176L87.4716 132.345C85.8899 130.639 83.0346 131.509 82.676 133.806L81.6785 140.192C81.628 140.516 81.5204 140.828 81.3613 141.114L79.6459 144.198C79.4161 144.611 79.2957 145.075 79.2957 145.548V147.447C79.2957 148.269 79.6595 149.048 80.2893 149.576L81.6691 150.734C82.004 151.015 82.2679 151.371 82.4396 151.772L84.4882 156.569C85.0685 157.928 86.6116 158.597 88.0022 158.092L88.9955 157.732C89.2134 157.652 89.4063 157.516 89.5536 157.337L93.2834 152.807C93.4843 152.563 93.7681 152.401 94.0804 152.351L101.174 151.221C101.421 151.182 101.651 151.072 101.837 150.905L104.696 148.336C104.901 148.152 105.161 148.037 105.436 148.01L111.059 147.458C111.641 147.401 112.19 147.741 112.398 148.287L115.035 155.247C115.185 155.645 115.523 155.944 115.937 156.045L128.881 159.226C129.431 159.361 130.006 159.124 130.299 158.64L136.397 148.591C136.604 148.251 136.642 147.835 136.5 147.462L133.964 140.802Z" fill="#FFDD00" stroke="white" stroke-width="2" stroke-linejoin="round"/>
<path d="M86.7916 124.703C86.7916 125.194 86.5712 125.66 86.1906 125.972L85.7962 126.295C84.5846 127.289 84.461 129.097 85.5263 130.246L88.2424 133.175C88.9035 133.888 89.9215 134.149 90.8449 133.842C91.8089 133.521 92.8715 133.82 93.5257 134.597L95.3619 136.778C96.1599 137.725 97.4889 138.032 98.6221 137.531L105.05 134.687C105.552 134.465 106.108 134.396 106.649 134.488L107.984 134.717C109.016 134.894 109.995 134.199 110.168 133.167C110.364 131.991 111.59 131.289 112.706 131.714L115.59 132.814C116.408 133.126 117.326 133.036 118.067 132.569L118.676 132.187C119.5 131.669 120.535 131.618 121.406 132.053L122.724 132.71C123.483 133.089 124.373 133.102 125.142 132.746L131.319 129.885C131.687 129.715 132.002 129.448 132.231 129.113L132.449 128.794C133.074 127.878 134.351 127.693 135.211 128.393L135.743 128.826C136.28 129.263 136.349 130.057 135.896 130.58L135.806 130.683C135.47 131.071 135.458 131.643 135.779 132.043C136.009 132.33 136.074 132.714 135.952 133.06L134.649 136.765L134.215 138.066C133.851 139.156 134.196 140.357 135.082 141.089L138.805 144.163C139.274 144.55 139.949 144.56 140.429 144.186L152.256 134.965C152.571 134.72 152.754 134.344 152.754 133.946V129.849C152.754 129.701 152.729 129.553 152.679 129.414L150.102 122.21C149.958 121.806 150.024 121.356 150.279 121.01L157.862 110.719C158.466 109.9 158.496 108.792 157.937 107.942C157.141 106.73 155.466 106.478 154.347 107.401L152.899 108.595C151.876 109.44 150.398 109.446 149.369 108.61L146.238 106.07C145.186 105.216 145.522 103.535 146.821 103.15L147.125 103.059C147.66 102.901 148.026 102.41 148.026 101.854C148.026 101.259 147.61 100.746 147.028 100.623L139.587 99.0494C138.729 98.8679 137.836 99.1005 137.176 99.6773L134.399 102.103C133.891 102.547 133.239 102.792 132.564 102.792H131.472C129.772 102.792 128.494 101.243 128.819 99.5761C129.002 98.6423 129.663 97.8733 130.56 97.5524L134.675 96.0794C135.038 95.9491 135.37 95.7454 135.651 95.4801L136.603 94.579C137.093 94.1149 137.819 93.9995 138.43 94.2884C139.119 94.6145 139.943 94.4219 140.416 93.8239L142.19 91.5788C142.705 90.928 142.706 90.0099 142.193 89.358C141.938 89.034 141.579 88.8073 141.177 88.7163L134.649 87.2388L126.738 85.448C125.439 85.1539 124.112 85.82 123.574 87.0371L120.677 93.5896C120.612 93.7356 120.535 93.8761 120.447 94.0089L118.741 96.5634C118.436 97.0202 118.274 97.557 118.274 98.1059V98.9284C118.274 100.342 117.212 101.531 115.805 101.692L107.516 102.638C106.746 102.725 106.165 103.376 106.165 104.149C106.165 104.99 105.483 105.671 104.641 105.671H103.458C103.113 105.671 102.772 105.736 102.452 105.864L100.72 106.556C99.3679 107.096 98.6608 108.585 99.097 109.972L99.378 110.865C99.5176 111.308 99.5228 111.782 99.3937 112.228L99.2293 112.795C98.8143 114.227 97.0328 114.717 95.9416 113.701C95.3007 113.103 94.345 112.992 93.5835 113.426L93.509 113.469C92.8492 113.845 92.4419 114.546 92.4419 115.305V118.37C92.4419 119.168 91.9082 119.868 91.1377 120.079L89.2158 120.608C88.672 120.758 88.5139 121.452 88.9397 121.821C89.4331 122.25 89.1295 123.06 88.4756 123.06H87.7643C87.2271 123.06 86.7916 123.495 86.7916 124.032V124.703Z" fill="#FFDD00" stroke="white" stroke-width="2" stroke-linejoin="round"/>
<path d="M154.048 107.651C155.327 106.596 157.24 106.884 158.15 108.269L158.609 108.967C158.779 109.226 158.992 109.456 159.239 109.645L159.317 109.705C159.893 110.147 160.719 110.031 161.15 109.448L163.688 106.016C163.852 105.794 163.94 105.525 163.94 105.249V103.028C163.94 102.475 164.293 101.983 164.817 101.805L173.185 98.9539C173.539 98.8333 173.824 98.5656 173.965 98.2193L180.789 81.5517C181.043 80.9304 180.778 80.2181 180.18 79.9122L177.325 78.4538C176.791 78.1805 176.14 78.4753 175.995 79.0569C175.891 79.4713 175.517 79.762 175.09 79.762H171.668C171.59 79.762 171.513 79.755 171.437 79.7411L164.376 78.4593C164.094 78.4079 163.836 78.2647 163.644 78.0519L160.218 74.2504C159.948 73.9503 159.833 73.5408 159.909 73.1438L162.296 60.657C162.472 59.734 161.634 58.9375 160.718 59.1583L159.779 59.3846C159.487 59.4551 159.229 59.6241 159.048 59.8633L154.412 66.0034C154.167 66.3278 153.783 66.5183 153.377 66.5183H151.43C150.798 66.5183 150.256 66.0615 150.152 65.4378L150.052 64.835C149.948 64.2117 149.407 63.7545 148.774 63.7545H147.477C146.762 63.7545 146.181 63.1757 146.181 62.4616V61.4517C146.181 61.0199 145.965 60.6163 145.605 60.3764L144.379 59.5605C143.7 59.1085 142.776 59.388 142.463 60.1407L137.557 71.9406C137.465 72.1603 137.315 72.3508 137.122 72.4906L134.145 74.6533C133.81 74.8966 133.611 75.285 133.611 75.6983V76.3804C133.611 76.7037 133.733 77.0152 133.951 77.2537L136.844 80.4044C137.192 80.7837 137.282 81.333 137.072 81.8027L136.027 84.1476C135.314 85.7492 136.244 87.6028 137.957 87.9901L141.177 88.7191C141.579 88.8102 141.938 89.0369 142.193 89.3609C142.706 90.0127 142.705 90.9309 142.191 91.5817L140.416 93.8268C139.943 94.4247 139.119 94.6173 138.43 94.2912C137.819 94.0023 137.094 94.1178 136.603 94.5819L135.651 95.483C135.37 95.7479 135.038 95.952 134.675 96.082L130.56 97.5553C129.663 97.8762 129.002 98.6452 128.82 99.579C128.494 101.246 129.772 102.795 131.472 102.795H132.565C133.239 102.795 133.891 102.55 134.399 102.106L137.176 99.6801C137.836 99.1034 138.729 98.8708 139.587 99.0523L147.028 100.626C147.61 100.749 148.026 101.262 148.026 101.856C148.026 102.413 147.66 102.904 147.125 103.062L146.821 103.152C145.522 103.538 145.186 105.219 146.238 106.073L149.369 108.613C150.399 109.448 151.876 109.442 152.899 108.598L154.048 107.651Z" fill="#FFDD00" stroke="white" stroke-width="2" stroke-linejoin="round"/>
<path d="M120.447 94.0108C120.536 93.878 120.613 93.7376 120.677 93.5916L123.753 86.6362C124.206 85.611 123.999 84.414 123.227 83.6002L118.935 79.0762C118.542 78.6622 117.925 78.5537 117.414 78.8085L112.482 81.2713C112.201 81.4114 111.981 81.6485 111.863 81.9384L111.29 83.3367C111.116 83.7611 110.729 84.0622 110.273 84.1272L109.259 84.2718C108.479 84.3831 107.78 83.7789 107.78 82.9921V82.3208C107.78 81.6068 107.2 81.0279 106.484 81.0279H105.396C105.168 81.0279 104.965 81.176 104.896 81.394C104.736 81.9019 104.007 81.8741 103.885 81.3554L103.657 80.3782C103.573 80.017 103.25 79.7614 102.878 79.7614H96.0326C95.6566 79.7614 95.299 79.9241 95.0529 80.2078L92.6861 82.9351C92.5266 83.1187 92.3187 83.2539 92.0862 83.3252L87.5256 84.7192C87.073 84.8576 86.7321 85.231 86.636 85.6937L86.3161 87.2394C86.1768 87.9114 86.2914 88.6112 86.6374 89.2043L86.8143 89.5064C87.3627 90.4454 88.4085 90.9794 89.492 90.8733L92.9019 90.5392C93.3573 90.4947 93.7946 90.339 94.1752 90.0855L94.5536 89.8335C95.4477 89.2383 96.6046 89.2095 97.5273 89.7598L103.266 93.1827C103.938 93.5832 104.41 94.2469 104.567 95.0117L105.653 100.3C105.943 101.712 107.264 102.668 108.698 102.505L115.805 101.694C117.212 101.533 118.274 100.344 118.274 98.9304V98.1079C118.274 97.5589 118.437 97.0222 118.741 96.5654L120.447 94.0108Z" fill="#FFDD00" stroke="white" stroke-width="2" stroke-linejoin="round"/>
<path d="M103.548 105.67C104.993 105.67 106.165 104.5 106.165 103.057C106.165 102.881 106.147 102.704 106.112 102.532L104.567 95.0095C104.41 94.2447 103.938 93.581 103.266 93.1805L97.5272 89.7576C96.6045 89.2072 95.4476 89.2361 94.5535 89.8313L94.1751 90.0833C93.7945 90.3367 93.3572 90.4925 92.9018 90.537L89.2395 90.8958C88.3099 90.9865 87.4123 90.5287 86.942 89.7231C86.4361 88.8572 85.4421 88.3993 84.4544 88.577L81.3996 89.1259C80.7826 89.2368 80.3335 89.7725 80.3335 90.3983V91.0446C80.3335 91.3428 80.2301 91.6317 80.0411 91.8626L79.8262 92.1247C79.5035 92.5189 79.4422 93.0654 79.6703 93.5209L79.8997 93.9791C80.157 94.4925 80.7224 94.7755 81.2889 94.6737L85.9271 93.84C86.0416 93.8195 86.1583 93.8143 86.2742 93.8247L90.784 94.2342C91.6244 94.3104 92.1693 95.1569 91.8883 95.9516C91.7995 96.2026 91.8103 96.478 91.9179 96.7217L93.7761 100.921C93.8857 101.168 93.9585 101.431 93.9919 101.7L94.2416 103.694C94.3436 104.509 94.8014 105.237 95.4922 105.684L97.1135 106.731C97.8725 107.222 98.8223 107.314 99.6614 106.979L102.452 105.864C102.772 105.736 103.113 105.67 103.458 105.67H103.548Z" fill="#FFDD00" stroke="white" stroke-width="2" stroke-linejoin="round"/>
<path d="M82.7321 110.387C83.2704 110.691 83.692 111.165 83.9308 111.735L87.6784 120.675C87.7018 120.731 87.738 120.781 87.7839 120.821C87.8842 120.908 88.0217 120.939 88.1498 120.904L90.3965 120.286C91.605 119.954 92.442 118.856 92.442 117.605V115.308C92.442 114.549 92.8493 113.848 93.5091 113.472L93.5836 113.429C94.3451 112.995 95.3008 113.106 95.9417 113.703C97.0329 114.72 98.8144 114.23 99.2294 112.798L99.3938 112.231C99.5229 111.785 99.5177 111.311 99.3781 110.868L98.6243 108.473C98.43 107.855 98.0255 107.324 97.4806 106.972L95.4922 105.687C94.8015 105.24 94.3437 104.512 94.2416 103.697L93.992 101.703C93.9582 101.434 93.8855 101.172 93.7762 100.924L92.4197 97.8589C92.0071 96.9265 91.1165 96.2941 90.0989 96.211L86.8181 95.9437C86.431 95.912 86.0995 96.2169 86.0995 96.6042C86.0995 96.9703 85.8018 97.2668 85.4352 97.2668H85.0296C83.9722 97.2668 83.1795 98.2329 83.3866 99.2682C83.4967 99.8165 83.3247 100.383 82.9285 100.779L81.7259 101.98C81.2037 102.502 80.9102 103.209 80.9102 103.947V107.736C80.9102 108.739 81.4509 109.664 82.3247 110.158L82.7321 110.387Z" fill="#FFDD00" stroke="white" stroke-width="2" stroke-linejoin="round"/>
<path d="M82.584 128.025C83.2097 128.092 83.8364 127.905 84.3227 127.506L86.1906 125.974C86.5708 125.662 86.7912 125.196 86.7912 124.705V124.034C86.7912 123.497 87.2271 123.062 87.7643 123.062C88.6643 123.062 89.0821 121.947 88.4029 121.358L87.9443 120.96C87.7929 120.828 87.6735 120.663 87.5958 120.478L83.9307 111.734C83.6919 111.164 83.2702 110.69 82.732 110.387L82.3246 110.157C81.4504 109.663 80.9101 108.738 80.9101 107.735V103.946C80.9101 103.208 81.2036 102.501 81.7258 101.979L83.0568 100.65C83.3726 100.335 83.5098 99.8823 83.422 99.445C83.2243 98.4577 82.0447 98.0363 81.2645 98.6746L75.0411 103.767C74.8092 103.957 74.5188 104.061 74.2194 104.061H72.7495C72.034 104.061 71.4536 104.64 71.4536 105.353C71.4536 106.263 72.1252 107.033 73.0273 107.158L73.5294 107.227C74.7194 107.393 75.6055 108.408 75.6055 109.608V110.088C75.6055 110.59 75.7416 111.083 75.9996 111.514L80.4606 118.971C80.753 119.46 80.8881 120.028 80.8474 120.596L80.4947 125.53C80.4045 126.788 81.3282 127.891 82.584 128.025Z" fill="#FFDD00" stroke="white" stroke-width="2" stroke-linejoin="round"/>
<path d="M75.6055 109.935C75.6055 108.547 74.5802 107.371 73.2032 107.18L71.454 106.938H66.3221H63.0365C61.9175 106.938 60.9071 107.606 60.4712 108.635L57.8987 114.707C57.5735 115.475 57.6104 116.348 57.9993 117.086L58.1013 117.28C58.3847 117.817 58.4839 118.433 58.384 119.032L58.103 120.714C58.0108 121.267 58.0881 121.835 58.3252 122.344L59.5187 124.907C59.9758 125.888 60.9608 126.515 62.0442 126.515H65.6035C66.5213 126.515 67.3081 127.169 67.4752 128.07L67.6016 128.751C67.6956 129.257 68.1381 129.625 68.6538 129.625C69.2449 129.625 69.724 130.103 69.724 130.693V131.404C69.724 132.078 70.1052 132.694 70.709 132.995L71.595 133.438C72.1517 133.716 72.8136 133.683 73.34 133.352L73.4876 133.259C74.4942 132.627 75.8214 133.221 76.0167 134.393C76.1706 135.314 77.0546 135.928 77.9734 135.752L78.0594 135.735C78.7978 135.593 79.3632 134.996 79.4632 134.252L80.3336 127.782L80.8478 120.593C80.8882 120.025 80.7531 119.458 80.4606 118.969L75.9996 111.512C75.7416 111.081 75.6055 110.588 75.6055 110.086V109.935Z" fill="#FFDD00" stroke="white" stroke-width="2" stroke-linejoin="round"/>
<path d="M52.672 129.66C53.4551 131.162 55.3888 131.622 56.7661 130.636L58.7663 129.203C59.2189 128.878 59.5636 128.426 59.7561 127.904L59.8675 127.602C60.1238 126.907 60.0921 126.139 59.7794 125.468L58.3252 122.346C58.0884 121.837 58.0111 121.269 58.1034 120.716L58.384 119.034C58.4839 118.435 58.3847 117.819 58.1013 117.281L57.9993 117.088C57.6104 116.35 57.5735 115.477 57.899 114.709L60.677 108.151C60.9883 107.417 61.7096 106.939 62.5087 106.939C64.1165 106.939 65.06 105.133 64.1398 103.817L62.6918 101.745C62.5404 101.528 62.4589 101.27 62.4589 101.005V100.656C62.4589 99.89 61.7946 99.2917 61.0304 99.3702L47.1972 100.792C46.9232 100.821 46.6655 100.935 46.4612 101.119L43.7894 103.529C43.428 103.855 42.9141 103.951 42.4591 103.778L41.5416 103.429C40.4282 103.006 39.3806 104.179 39.9307 105.234L52.672 129.66Z" fill="#FFDD00" stroke="white" stroke-width="2" stroke-linejoin="round"/>
<path d="M31.4201 95.4275C31.0631 96.014 30.9592 96.7201 31.1322 97.3841C31.6496 99.3716 34.1936 99.9546 35.5272 98.3912L37.2774 96.3394C37.5235 96.0508 37.8846 95.8843 38.2641 95.8843H41.854C42.2655 95.8843 42.653 96.0797 42.8974 96.4107L43.4071 97.1014C43.8103 97.6483 44.5693 97.7905 45.1441 97.4268L47.1443 96.1617C47.4343 95.9785 47.6878 95.7432 47.8921 95.4678L49.3422 93.5127C49.6977 93.0336 49.8896 92.4534 49.8896 91.8572V90.3612C49.8896 89.6899 49.6462 89.0412 49.2044 88.535L47.6084 86.7047C47.0795 86.0984 46.3132 85.75 45.5079 85.75H44.6998H44.2305C43.1752 85.75 42.2108 85.1549 41.7391 84.2127L41.3373 83.41C40.9171 82.5708 40.1013 81.9996 39.1679 81.8911L37.1705 81.6592C36.2538 81.5529 35.344 81.9068 34.7407 82.6042L34.3425 83.0648C33.8161 83.6732 33.5794 84.4797 33.6932 85.2758L34.2955 89.4855C34.3867 90.1231 34.2534 90.7728 33.9183 91.3232L31.4201 95.4275Z" fill="#FFDD00" stroke="white" stroke-width="2" stroke-linejoin="round"/>
<path d="M50.3007 88.6482C50.0316 89.0862 49.8892 89.5896 49.8892 90.1035V91.8549C49.8892 92.4511 49.6974 93.0314 49.3422 93.5104L48.9495 94.0395C48.1693 95.0915 48.297 96.5596 49.2475 97.4614C49.6343 97.8286 50.2074 97.9214 50.6907 97.6951L53.4415 96.4074C53.5331 96.3646 53.6295 96.3323 53.7287 96.3118L62.7865 94.4365C62.9509 94.4025 63.1072 94.3368 63.2468 94.2433L69.2766 90.1942C69.5632 90.0019 69.7606 89.7033 69.8257 89.3651L72.1681 77.1817C72.3143 76.4218 71.594 75.7814 70.8548 76.0147C70.5112 76.1231 70.1359 76.0428 69.8664 75.804L67.7934 73.9635C67.3976 73.6121 66.9095 73.3805 66.3862 73.2964L63.9334 72.9015C63.7199 72.8671 63.5114 72.808 63.3119 72.7256L62.4237 72.3584C61.1902 71.8488 59.7693 72.331 59.1023 73.4855L59.0452 73.5843C58.721 74.145 58.1828 74.5507 57.5536 74.7075C56.7341 74.9123 56.0837 75.5332 55.8421 76.3415L54.0299 82.4044C53.9606 82.6363 53.861 82.8581 53.7343 83.0643L50.3007 88.6482Z" fill="#FFDD00" stroke="white" stroke-width="2" stroke-linejoin="round"/>
<path d="M74.5426 55.3719C75.0328 54.8821 75.8677 55.0754 76.0919 55.7307C76.3931 56.6095 77.6538 56.5609 77.8863 55.6619L77.9184 55.5374C77.989 55.2645 78.1471 55.0218 78.3689 54.8466L85.2622 49.4011C85.5727 49.156 85.7538 48.7826 85.7538 48.3877V41.2491C85.7538 40.9108 85.8868 40.5857 86.1239 40.3441L88.7824 37.6384C89.5094 36.8986 90.7388 37.6478 90.4104 38.6309C90.3105 38.9309 90.362 39.2605 90.5487 39.5157L91.659 41.0328C92.0882 41.6196 91.9486 42.4443 91.3505 42.858L90.8933 43.174C90.1744 43.6711 90.1451 44.721 90.8352 45.2567L93.1421 47.0485C93.4308 47.2728 93.6111 47.6082 93.6383 47.9722L93.8788 51.1765C93.9161 51.6695 93.6243 52.1291 93.162 52.3064C92.7285 52.4732 92.4423 52.889 92.4423 53.3528V56.7333C92.4423 56.9568 92.5001 57.1766 92.6108 57.3709L93.9523 59.7314C94.3955 60.5112 95.4807 60.6151 96.0643 59.9334L102.155 52.8219C102.289 52.6648 102.384 52.4781 102.431 52.2772L104.91 41.7292C104.976 41.449 105.134 41.199 105.358 41.0182L108.029 38.8677C108.376 38.5878 108.555 38.1494 108.501 37.7069L107.955 33.1861C107.862 32.4164 108.464 31.7385 109.241 31.7385H110.505C110.829 31.7385 111.141 31.6176 111.38 31.3995L113.638 29.3379C114.313 28.7217 114.152 27.6205 113.33 27.2214L111.738 26.4493C111.292 26.2331 111.009 25.7815 111.009 25.2866V25.0373C111.009 24.4967 111.346 24.013 111.854 23.8252L113.277 23.2989C113.785 23.1109 114.122 22.6273 114.122 22.0867V19.099C114.122 18.8548 114.192 18.6155 114.322 18.409L116.345 15.2097C116.665 14.7047 116.596 14.0473 116.179 13.619L113.235 10.5952C112.992 10.3445 112.656 10.2031 112.306 10.2031H105.448C105.165 10.2031 104.89 10.2954 104.665 10.4658L101.661 12.7383C101.371 12.9574 101.187 13.2878 101.154 13.6489L100.953 15.8022C100.861 16.7939 99.7266 17.313 98.9129 16.7368L95.7036 14.464C95.0326 13.9891 94.094 14.2498 93.7657 15.0021L92.8347 17.1348C92.6025 17.6666 92.0437 17.9789 91.4685 17.8992L89.4081 17.6134C88.7678 17.5246 88.2905 16.9781 88.2905 16.3329V16.0783C88.2905 15.7107 88.1338 15.3605 87.8595 15.1153L87.0134 14.3594C86.5009 13.9014 85.719 13.9231 85.2326 14.4088L83.8002 15.8392C83.3873 16.2513 83.302 16.8879 83.5917 17.3939L86.5497 22.5634C86.7053 22.8359 86.7568 23.1558 86.6938 23.4632L86.1308 26.2116C85.955 27.0705 84.945 27.4565 84.2389 26.9354C83.6429 26.4954 82.7937 26.6937 82.4553 27.3519L81.5236 29.1638C81.1883 29.8156 80.3781 30.0594 79.7379 29.7017L74.8368 26.9643C74.3922 26.7159 73.8431 26.7506 73.4333 27.053L72.9052 27.4429C72.1925 27.9689 72.2078 29.0377 72.9355 29.5431L73.6697 30.0534C73.9493 30.2475 74.1412 30.5441 74.2035 30.8784L74.8559 34.3873L75.4301 37.4753C75.5366 38.0469 75.9746 38.4999 76.5428 38.626C77.5674 38.8534 78.0131 40.066 77.3906 40.9094C77.2057 41.1601 77.1047 41.4649 77.1047 41.7761V42.1515C77.1047 43.5877 75.9387 44.752 74.5005 44.752H73.9688C71.9944 44.752 70.6909 46.8031 71.5313 48.5872L71.5992 48.7308C72.1155 49.8269 71.7709 51.1351 70.7807 51.8356C70.1181 52.3043 69.724 53.0649 69.724 53.876V55.0969C69.724 55.7943 69.2721 56.4117 68.6064 56.6235C67.806 56.8776 67.3377 57.7053 67.532 58.5209L67.5504 58.5984C67.6834 59.1561 68.0908 59.608 68.6322 59.7989L68.6726 59.8131C69.3153 60.0394 70.0307 59.8774 70.5126 59.3963L74.5426 55.3719Z" fill="#FFDD00" stroke="white" stroke-width="2" stroke-linejoin="round"/>
<path d="M46.409 72.4338C46.3501 73.0492 45.9713 73.5887 45.4118 73.8533C44.6608 74.2086 44.2615 75.0405 44.4547 75.8477L45.2774 79.2828C45.353 79.5989 45.3728 79.9257 45.3352 80.2483L44.869 84.2841C44.7789 85.0642 45.3899 85.7488 46.1764 85.7488C46.5573 85.7488 46.919 85.9132 47.169 86.2L47.5558 86.6433C48.7128 87.9699 50.8265 87.7947 51.7484 86.2956L53.7959 82.9651C53.8819 82.8254 53.9491 82.6752 53.9961 82.5181L55.3439 78.0091C55.5691 77.2561 54.6287 76.7096 54.0842 77.2769C53.8032 77.5696 53.3398 77.586 53.039 77.3134L50.8042 75.2908C50.2213 74.7638 49.8892 74.0153 49.8892 73.2299V71.7855C49.8892 71.5748 49.8652 71.3652 49.8178 71.16L49.243 68.6726C49.2127 68.5409 49.1974 68.4063 49.1974 68.2711V67.3109C49.1974 66.4943 48.366 65.9398 47.6105 66.2526C47.2184 66.415 46.9483 66.7804 46.9079 67.2024L46.409 72.4338Z" fill="#FFDD00" stroke="white" stroke-width="2" stroke-linejoin="round"/>
<path d="M50.1903 61.7676C49.604 61.5114 48.9181 61.6779 48.5153 62.175L47.5053 63.421C47.3302 63.6369 47.2229 63.8994 47.1965 64.1761L47.0934 65.2563C47.0391 65.8274 47.6129 66.2509 48.1435 66.0312C48.6452 65.8233 49.1974 66.1914 49.1974 66.7338V68.2704C49.1974 68.4053 49.2127 68.5401 49.243 68.6719L49.8178 71.1593C49.8651 71.3644 49.8892 71.5741 49.8892 71.7847V73.2292C49.8892 74.0142 50.2217 74.7627 50.8041 75.2901L51.5722 75.9854C52.6898 76.9967 54.4104 76.9362 55.4538 75.8488L55.676 75.6172C56.0391 75.2386 56.5022 74.9706 57.0112 74.8434L57.3917 74.7484C58.1243 74.5656 58.7513 74.0931 59.1287 73.4399L59.9514 72.0156C60.1589 71.6568 60.2679 71.2497 60.2679 70.8357V69.913C60.2679 69.1179 59.6227 68.4737 58.8265 68.4737C58.0302 68.4737 57.3851 67.8292 57.3851 67.0341V66.4379C57.3851 65.898 57.1703 65.38 56.788 64.9983L56.3556 64.5669C55.8333 64.045 55.1248 63.752 54.386 63.752H52.0185C51.4796 63.752 51.0423 63.3157 51.0423 62.7772C51.0423 62.3899 50.8128 62.0395 50.4574 61.8841L50.1903 61.7676Z" fill="#FFDD00" stroke="white" stroke-width="2" stroke-linejoin="round"/>
<path d="M48.3542 52.3407C47.6864 52.4856 47.1861 53.0398 47.1105 53.7177L46.7773 56.7127C46.7018 57.391 46.8786 58.073 47.2742 58.6293L48.8499 60.8473C49.0773 61.1668 49.3872 61.4185 49.7468 61.5756L50.4574 61.8861C50.8129 62.0415 51.0423 62.3919 51.0423 62.7792C51.0423 63.3177 51.4793 63.754 52.0186 63.754H54.3861C55.1249 63.754 55.8334 64.047 56.3556 64.5689L56.7877 65.0003C57.17 65.382 57.3848 65.9 57.3848 66.4399V67.0365C57.3848 67.8312 58.0303 68.4757 58.8265 68.4757C59.6224 68.4757 60.2679 69.1203 60.2679 69.915V70.2703C60.2679 70.9965 60.7059 71.6511 61.3779 71.9286L63.3116 72.7278C63.5114 72.8102 63.72 72.8693 63.9334 72.9037L66.3862 73.2986C66.9091 73.3828 67.3973 73.6143 67.7935 73.9658L69.458 75.4433C69.9806 75.9074 70.709 76.0628 71.3761 75.8525C72.0647 75.6352 72.581 75.0623 72.7245 74.3555L75.5279 60.5653C75.5784 60.3168 75.7013 60.088 75.8813 59.9086L76.188 59.6024C76.7489 59.0419 76.9418 58.2118 76.6848 57.4622C76.187 56.0084 74.3351 55.5794 73.2471 56.6661L70.5126 59.3965C70.0308 59.8777 69.3153 60.0397 68.6726 59.8134L68.6318 59.7991C68.0908 59.6083 67.6834 59.156 67.5504 58.5987L67.532 58.5212C67.3374 57.7056 67.806 56.8778 68.6064 56.6237C69.2721 56.412 69.724 55.7946 69.724 55.0972V53.8762C69.724 53.0652 70.1181 52.3045 70.7807 51.8359C71.7709 51.1354 72.1156 49.8272 71.5989 48.731L71.5313 48.5875C70.6905 46.8033 71.9944 44.7522 73.9688 44.7522H74.5005C75.9387 44.7522 77.1047 43.5879 77.1047 42.1518V41.7763C77.1047 41.4652 77.2057 41.1603 77.3906 40.9096C78.0131 40.0663 77.5671 38.8537 76.5428 38.6263C75.9742 38.5001 75.5356 38.0429 75.4294 37.4714C75.2013 36.2453 73.6454 35.8215 72.8404 36.7754L72.4682 37.2162C71.9429 37.8389 70.9785 37.8281 70.4673 37.1933L67.721 33.7838C67.3969 33.3814 66.8642 33.21 66.3653 33.3477L62.7468 34.3472C62.1142 34.522 61.5634 34.9145 61.1923 35.455L57.8834 40.2741C56.9841 41.5837 55.1712 41.8772 53.9039 40.9183L53.413 40.5467C52.7849 40.0715 51.9841 39.8841 51.2098 40.0315L50.3547 40.1942C48.8297 40.4841 47.8364 41.9634 48.147 43.4822L49.5752 50.4703C49.7492 51.3224 49.2051 52.1561 48.3542 52.3407Z" fill="#FFDD00" stroke="white" stroke-width="2" stroke-linejoin="round"/>
<path d="M28.7587 102.101C30.5815 102.101 31.913 100.382 31.4544 98.6201L31.158 97.4819C30.9685 96.754 31.0823 95.9805 31.4735 95.3377L33.9182 91.3213C34.2533 90.7706 34.3865 90.1212 34.2953 89.4836L33.65 84.9725C33.5618 84.3558 33.2689 83.7867 32.8181 83.356L32.4919 83.0445C31.5414 82.1364 30.0842 82.0165 28.9974 82.7563L27.7343 83.6163C26.6105 84.3815 25.0976 84.2244 24.1557 83.2447L23.3364 82.3923C23.1267 82.1743 22.8828 81.9918 22.6143 81.852L15.2406 78.0147C14.9701 77.8739 14.6783 77.7783 14.3768 77.732L3.78688 76.1051C2.62257 75.926 1.94007 77.3708 2.81875 78.1541C2.98312 78.3008 3.10739 78.4868 3.17961 78.6947L4.88572 83.6056C4.9792 83.8746 4.98101 84.1674 4.8908 84.4375L3.1806 89.5611C3.10784 89.7791 2.9781 89.9738 2.80493 90.125L1.66641 91.12C1.38548 91.3654 1.22437 91.72 1.22437 92.0927V92.9535C1.22437 93.4725 1.5355 93.9412 2.01448 94.1435L12.2236 98.4606C13.0779 98.8218 14.0248 98.196 14.0248 97.2702V96.6066C14.0248 95.7336 14.8743 95.112 15.7084 95.3731L21.4841 97.1809C21.6601 97.2358 21.8224 97.3279 21.96 97.4507L26.8024 101.772C27.04 101.984 27.3475 102.101 27.6662 102.101H28.7587Z" fill="#FFDD00" stroke="white" stroke-width="2" stroke-linejoin="round"/>
<path d="M29.5424 82.385C30.3114 81.8615 31.3425 81.9463 32.0152 82.5888C32.8302 83.3675 34.1321 83.3056 34.8695 82.4532L34.9711 82.3353C35.43 81.8045 36.1225 81.5354 36.8199 81.6164L39.1675 81.8889C40.101 81.9974 40.917 82.5686 41.3373 83.4078L42.1074 84.9465C42.3536 85.4377 42.856 85.7478 43.4061 85.7478C44.1435 85.7478 44.7635 85.1958 44.8481 84.4643L45.3352 80.2473C45.3728 79.9247 45.353 79.5979 45.2774 79.2819L44.4547 75.8465C44.2615 75.0396 44.6608 74.2076 45.4118 73.8524C45.9713 73.5878 46.3501 73.0482 46.409 72.4329L46.9733 66.5156L47.1572 64.5865C47.209 64.0421 47.4207 63.5251 47.7651 63.1003L47.8685 62.9727C48.6543 62.0035 48.6978 60.6306 47.975 59.6134L47.2741 58.6271C46.8786 58.0709 46.7021 57.3888 46.7773 56.7105L47.0976 53.832C47.1861 53.0369 46.9274 52.2422 46.3877 51.6512L41.8634 46.6955C40.8669 45.6042 39.1902 45.4808 38.0444 46.4142L36.6239 47.5715C36.0365 48.0499 35.2799 48.2686 34.5277 48.1775L28.9759 47.5055C28.4021 47.4359 27.8641 47.1902 27.4366 46.8015L17.3576 37.6437C15.8263 36.2525 13.364 36.9564 12.8023 38.9464L7.91288 56.2662L1.2183 72.216C0.518226 73.8836 1.57345 75.7648 3.36354 76.0398L14.3768 77.7318C14.6782 77.778 14.97 77.8736 15.2405 78.0144L22.6143 81.8517C22.8828 81.9915 23.1267 82.174 23.3363 82.392L24.1556 83.2444C25.0976 84.2241 26.6105 84.3812 27.7342 83.6161L29.5424 82.385Z" fill="#FFDD00" stroke="white" stroke-width="2" stroke-linejoin="round"/>
<path d="M13.9468 33.5044C13.9969 34.2183 14.3207 34.8855 14.8507 35.367L27.4366 46.8025C27.8641 47.1912 28.4021 47.437 28.976 47.5065L34.5278 48.1785C35.28 48.2696 36.0369 48.0509 36.6239 47.5726L38.0444 46.4152C39.1902 45.4818 40.8669 45.6052 41.8634 46.6965L46.5629 51.8438C46.98 52.3009 47.6094 52.5012 48.2145 52.3698C49.1427 52.1681 49.7364 51.259 49.5466 50.3294L48.147 43.4811C47.8368 41.9622 48.8297 40.483 50.355 40.193L51.2098 40.0303C51.9844 39.8829 52.7849 40.0703 53.4133 40.5456L53.9042 40.9172C55.1715 41.876 56.9841 41.5826 57.8834 40.273L61.1028 35.5843C61.5276 34.9658 61.6839 34.2018 61.5366 33.4663L60.9148 30.3614C60.8045 29.8093 60.3484 29.3921 59.7875 29.3299L53.2908 28.609C52.7678 28.551 52.2619 28.8143 52.0099 29.2752L51.4107 30.3725L51.4096 30.3746C51.1833 30.7889 50.7457 31.0467 50.2729 31.0467H49.455C48.7403 31.0467 48.1595 30.4679 48.1595 29.7539V27.2645C48.1595 26.6004 48.6644 26.0442 49.3262 25.9782L51.5552 25.7556C52.2383 25.6873 52.7497 25.0992 52.7208 24.4147L52.4405 17.7969C52.4311 17.5744 52.3643 17.3581 52.2466 17.1689L51.0207 15.2018C50.4146 14.2286 48.9185 14.5584 48.7796 15.696C48.694 16.3978 48.0272 16.8783 47.333 16.7396L46.739 16.621C46.4636 16.566 46.2133 16.4229 46.026 16.2134L42.8953 12.7079C42.6495 12.4326 42.2975 12.2751 41.9278 12.2751H39.4328C38.8629 12.2751 38.3591 11.903 38.1934 11.3585L37.9082 10.423C37.7641 9.94983 37.3265 9.62641 36.831 9.62641C36.2092 9.62641 35.7051 10.1294 35.7051 10.7498V14.0674C35.7051 14.8336 35.0415 15.4317 34.278 15.3535L34.2769 15.3534L32.1449 15.1351L32.1443 15.135C31.5867 15.0779 31.1279 14.6683 31.0105 14.1209L31.0102 14.1197L30.2546 10.5984C30.1993 10.3404 30.0662 10.1056 29.8732 9.92532L27.0048 7.24565L27.004 7.24492C26.7429 7.00097 26.5947 6.65902 26.5947 6.30192V4.47009C26.5947 3.75609 26.0146 3.17729 25.299 3.17729H22.946C22.6227 3.17729 22.3108 3.05657 22.072 2.83883L20.4265 1.33849C20.0414 0.987324 19.4827 0.900892 19.0091 1.1192L16.0148 2.49927C15.5722 2.7033 15.2818 3.13802 15.2634 3.62419L14.8559 14.4093C14.8409 14.8068 14.6431 15.1754 14.3202 15.4083L13.3401 16.1151C12.9771 16.3769 12.7754 16.8073 12.8066 17.2531L13.9468 33.5044Z" fill="#FFDD00" stroke="white" stroke-width="2" stroke-linejoin="round"/>
<path d="M83.2699 129.68C83.4113 128.775 82.7665 127.937 81.8547 127.839C80.9898 127.747 80.2082 128.359 80.0926 129.22L79.4304 134.143C79.3301 134.887 78.7647 135.484 78.0263 135.626L77.9403 135.643C77.0215 135.819 76.1375 135.205 75.9839 134.284C75.7883 133.112 74.4611 132.518 73.4545 133.15L73.3073 133.243C72.7805 133.574 72.1187 133.607 71.5619 133.329L70.6762 132.886C70.0725 132.585 69.6913 131.969 69.6913 131.295V130.584C69.6913 129.994 69.2118 129.516 68.621 129.516C68.105 129.516 67.6625 129.148 67.5685 128.642L67.4425 127.961C67.2754 127.06 66.4882 126.406 65.5708 126.406H61.8566C60.8821 126.406 60.0113 127.013 59.6743 127.925C59.5134 128.361 59.2258 128.739 58.8477 129.01L55.4619 131.435C54.636 132.027 54.1984 133.021 54.3202 134.028L56.0506 148.36C56.0722 148.54 56.0558 148.722 56.0022 148.895L51.3546 163.924C51.2797 164.166 51.1356 164.381 50.9403 164.541L49.751 165.519C49.4526 165.765 49.2795 166.131 49.2795 166.517V168.46C49.2795 168.943 49.5494 169.386 49.9797 169.608L52.163 170.736C52.459 170.889 52.8022 170.922 53.1219 170.829L75.437 164.334C75.5272 164.308 75.6139 164.272 75.696 164.227L83.2724 160.092C84.5303 159.406 85.0609 157.878 84.4986 156.561L82.4065 151.662C82.2352 151.26 81.971 150.905 81.636 150.623L80.2563 149.466C79.6264 148.938 79.2626 148.158 79.2626 147.337V145.438C79.2626 144.965 79.3834 144.5 79.6132 144.087L81.3282 141.004C81.4874 140.718 81.5949 140.406 81.6454 140.082L83.2699 129.68Z" fill="#FFDD00" stroke="white" stroke-width="2" stroke-linejoin="round"/>
</svg>
