<svg width="106" height="106" viewBox="0 0 106 106" fill="none" xmlns="http://www.w3.org/2000/svg">
<g filter="url(#filter0_d_0_299)">
<rect x="10" y="10" width="80" height="80" rx="18" fill="white"/>
</g>
<path fill-rule="evenodd" clip-rule="evenodd" d="M20 49.75C20 33.311 33.311 20 49.75 20C66.189 20 79.5 33.311 79.5 49.75C79.5 66.189 66.189 79.5 49.75 79.5C33.311 79.5 20 66.189 20 49.75ZM26.46 49.835C26.46 62.7246 36.8786 73.21 49.835 73.21C62.7246 73.21 73.21 62.7246 73.21 49.835C73.21 36.9454 62.7914 26.46 49.835 26.46C36.9454 26.46 26.46 36.8786 26.46 49.835Z" fill="#FDDA2D"/>
<path d="M65.4751 31.1363C65.4751 29.3194 66.9555 27.9062 68.7051 27.9062C70.522 27.9062 71.9351 29.3867 71.9351 31.1363C71.9351 32.9531 70.4547 34.3663 68.7051 34.3663C66.8882 34.3663 65.4751 32.9531 65.4751 31.1363Z" fill="#131718"/>
<path d="M27.7349 68.5347C27.7349 66.7178 29.2153 65.3047 30.9649 65.3047C32.7817 65.3047 34.1949 66.7851 34.1949 68.5347C34.1949 70.3516 32.7144 71.7647 30.9649 71.7647C29.148 71.7647 27.7349 70.3516 27.7349 68.5347Z" fill="#131718"/>
<g filter="url(#filter1_d_0_299)">
<circle cx="80" cy="80" r="20" fill="white"/>
<circle cx="80" cy="80" r="19.5" stroke="#E64B23"/>
</g>
<path fill-rule="evenodd" clip-rule="evenodd" d="M88.75 71.25C88.75 69.1789 87.0711 67.5 85 67.5H75C72.9289 67.5 71.25 69.1789 71.25 71.25V88.75C71.25 90.8211 72.9289 92.5 75 92.5H85C87.0711 92.5 88.75 90.8211 88.75 88.75V71.25ZM75 70H85C85.6904 70 86.25 70.5596 86.25 71.25V88.75C86.25 89.4404 85.6904 90 85 90H75C74.3096 90 73.75 89.4404 73.75 88.75V71.25C73.75 70.5596 74.3096 70 75 70Z" fill="#E64B23"/>
<path d="M81.25 68.75C81.9404 68.75 82.5 69.3096 82.5 70C82.5 70.6904 81.9404 71.25 81.25 71.25H78.75C78.0596 71.25 77.5 70.6904 77.5 70C77.5 69.3096 78.0596 68.75 78.75 68.75H81.25Z" fill="#E64B23"/>
<path d="M80 85C80.6904 85 81.25 85.5596 81.25 86.25V86.2625C81.25 86.9529 80.6904 87.5125 80 87.5125C79.3096 87.5125 78.75 86.9529 78.75 86.2625V86.25C78.75 85.5596 79.3096 85 80 85Z" fill="#E64B23"/>
<defs>
<filter id="filter0_d_0_299" x="0" y="0" width="100" height="100" filterUnits="userSpaceOnUse" color-interpolation-filters="sRGB">
<feFlood flood-opacity="0" result="BackgroundImageFix"/>
<feColorMatrix in="SourceAlpha" type="matrix" values="0 0 0 0 0 0 0 0 0 0 0 0 0 0 0 0 0 0 127 0" result="hardAlpha"/>
<feOffset/>
<feGaussianBlur stdDeviation="5"/>
<feColorMatrix type="matrix" values="0 0 0 0 0 0 0 0 0 0 0 0 0 0 0 0 0 0 0.1 0"/>
<feBlend mode="normal" in2="BackgroundImageFix" result="effect1_dropShadow_0_299"/>
<feBlend mode="normal" in="SourceGraphic" in2="effect1_dropShadow_0_299" result="shape"/>
</filter>
<filter id="filter1_d_0_299" x="54" y="54" width="52" height="52" filterUnits="userSpaceOnUse" color-interpolation-filters="sRGB">
<feFlood flood-opacity="0" result="BackgroundImageFix"/>
<feColorMatrix in="SourceAlpha" type="matrix" values="0 0 0 0 0 0 0 0 0 0 0 0 0 0 0 0 0 0 127 0" result="hardAlpha"/>
<feOffset/>
<feGaussianBlur stdDeviation="3"/>
<feColorMatrix type="matrix" values="0 0 0 0 0 0 0 0 0 0 0 0 0 0 0 0 0 0 0.1 0"/>
<feBlend mode="normal" in2="BackgroundImageFix" result="effect1_dropShadow_0_299"/>
<feBlend mode="normal" in="SourceGraphic" in2="effect1_dropShadow_0_299" result="shape"/>
</filter>
</defs>
</svg>
