<?xml version="1.0" encoding="UTF-8"?>
<svg id="Camada_1" xmlns="http://www.w3.org/2000/svg" viewBox="0 0 113.4 114.52">
  <defs>
    <style>
      .cls-1 {
        fill: #fd0;
      }

      .cls-2 {
        fill: #fff;
      }
    </style>
  </defs>
  <circle class="cls-1" cx="56.7" cy="57.26" r="47.06"/>
  <g>
    <circle class="cls-1" cx="27.1" cy="49.9" r="1.68"/>
    <polygon class="cls-1" points="28.75 71.63 56.24 71.63 67.45 71.63 70.9 71.63 70.9 63.52 28.75 63.52 28.75 71.63"/>
    <path class="cls-2" d="M90.79,60.77l-2.01-8.91h-3.66s0,9.62,0,9.62l5.86,1.35v-.37c0-.57-.06-1.14-.19-1.69Z"/>
    <path class="cls-1" d="M85.13,71.63h3.72c1.18,0,2.13-.96,2.13-2.13v-4.34l-5.86-1.35v7.82Z"/>
    <polygon class="cls-2" points="73.18 71.63 76.88 71.63 76.88 56.08 79.15 56.08 79.15 71.63 82.85 71.63 82.85 51.85 73.18 51.85 73.18 71.63"/>
    <path class="cls-1" d="M87.82,47.59c-.18-.82-.91-1.4-1.75-1.4h-15.98c-.54,0-1.07-.22-1.45-.6l-.76-.76h-24.12l-1.04.88c-.37.31-.84.48-1.32.48h-23.2c-.95,0-1.71.78-1.69,1.72h0c.02.92.77,1.66,1.69,1.66h70.07l-.45-1.99Z"/>
    <path d="M64.45,61.64s0-.03,0-.05h0s0,.03,0,.05"/>
    <path d="M37.24,71.63c-.63,0-1.14.51-1.14,1.14h0c0,.63.51,1.14,1.14,1.14h19.65s9.9,0,9.9,0h22.05c2.43,0,4.41-1.97,4.41-4.41v-7.04c0-.74-.08-1.47-.24-2.19l-1.9-8.41h1.38c.58,0,1.1.39,1.25.96l1.32,4.77h2.36l-1.49-5.37c-.42-1.55-1.83-2.64-3.44-2.64h-1.89l-.56-2.49c-.42-1.85-2.06-3.17-3.96-3.17h-15.89l-1.36-1.36h-25.89l-1.62,1.36h-22.13c-.63,0-1.14.52-1.12,1.16v.02c.02.61.52,1.09,1.13,1.09h22.21c.48,0,.95-.17,1.32-.48l1.04-.88h24.12l.76.76c.38.38.91.6,1.45.6h15.98c.84,0,1.56.58,1.75,1.4l.45,1.99H28.75c-1.14,0-2.07.93-2.07,2.07v9.8c0,1.14.93,2.07,2.07,2.07h0s42.15,0,42.15,0v8.11h-33.66ZM70.9,61.25H28.75v-9.39h42.15v9.39ZM82.85,71.63h-3.7v-15.55h-2.27v15.55h-3.7v-19.78h9.68v19.78ZM90.98,69.5c0,1.18-.96,2.13-2.13,2.13h-3.72v-7.82l5.86,1.35v4.34ZM90.98,62.83l-5.86-1.35v-9.62h3.66l2.01,8.91c.13.56.19,1.13.19,1.69v.37Z"/>
    <path class="cls-2" d="M70.9,51.85H28.75v9.39h7.19c.45.89,1.11,1.68,1.92,2.27,1.1.82,2.46,1.26,3.84,1.26.04,0,.08,0,.11,0,.53,0,1.03-.07,1.47-.18.19-.05.35-.1.5-.17h0c.83-.35,1.39-1.17,1.39-2.08,0-.4-.11-.78-.3-1.11h26.03v-9.39Z"/>
    <path class="cls-1" d="M61.47,57.06c-.08-.58-.26-1.15-.55-1.67-.56-1.02-1.48-1.83-2.57-2.24-.54-.2-1.13-.31-1.71-.31-1.35,0-2.67.58-3.58,1.58-1.52-1.66-4.05-2.05-6-.93-.51.29-.96.68-1.34,1.13-.93-1.01-2.22-1.66-3.59-1.77-1.21-.1-2.43.21-3.45.88-.97.64-1.73,1.58-2.14,2.67-.42,1.13-.46,2.4-.1,3.55.35,1.11,1.05,2.09,1.98,2.77.97.71,2.15,1.09,3.35,1.07.42,0,.85-.05,1.25-.15.12-.03.24-.07.35-.12-.15.06-.31.09-.48.09-.71,0-1.28-.57-1.28-1.28,0-.63.46-1.16,1.07-1.26-.16.02-.32.06-.49.09-.63.12-1.3.05-1.87-.25-1.07-.55-1.7-1.73-1.57-2.93.13-1.18,1-2.19,2.15-2.5.63-.17,1.31-.12,1.91.14.64.28,1.18.82,1.53,1.41.09.15.17.31.23.47.06.16.1.33.18.48.17.31.46.53.8.62.67.17,1.33-.22,1.53-.87.06-.18.06-.36.1-.54.07-.32.2-.62.39-.88.38-.51.97-.86,1.6-.93,1.22-.14,2.35.73,2.54,1.94.05.32.1.6.31.86.23.27.56.44.91.45.36.02.71-.12.97-.37.24-.23.34-.53.38-.85.14-1.23,1.29-2.14,2.52-2.04,1.22.1,2.14,1.18,2.09,2.4,0,.14-.01.27,0,.4,0-.71.58-1.28,1.29-1.28s1.29.58,1.29,1.29c0,0,0,0,0,0,0-.05,0-.1,0-.16.01-.33,0-.67-.04-1"/>
    <path d="M61.5,58.21c0,.71-.58,1.29-1.29,1.29s-1.29-.58-1.29-1.29.58-1.29,1.29-1.29,1.29.58,1.29,1.29"/>
    <path d="M44.2,62.35c0,.71-.57,1.28-1.28,1.28s-1.28-.57-1.28-1.28.57-1.28,1.28-1.28,1.28.57,1.28,1.28"/>
    <g>
      <path class="cls-2" d="M61.84,67.89c-1.85,0-3.36,1.51-3.36,3.36s1.51,3.36,3.36,3.36,3.36-1.51,3.36-3.36-1.51-3.36-3.36-3.36Z"/>
      <path d="M61.84,76.87c-3.1,0-5.63-2.52-5.63-5.63s2.52-5.63,5.63-5.63,5.63,2.52,5.63,5.63-2.52,5.63-5.63,5.63ZM61.84,67.89c-1.85,0-3.36,1.51-3.36,3.36s1.51,3.36,3.36,3.36,3.36-1.51,3.36-3.36-1.51-3.36-3.36-3.36Z"/>
      <rect x="60.46" y="69.86" width="2.76" height="2.76" rx="1.38" ry="1.38"/>
    </g>
  </g>
</svg>