<svg width="80" height="80" viewBox="0 0 80 80" fill="none" xmlns="http://www.w3.org/2000/svg">
<path fill-rule="evenodd" clip-rule="evenodd" d="M73.3333 46.6654C73.3333 38.673 62.6514 33.332 50 33.332C37.3486 33.332 26.6667 38.673 26.6667 46.6654C26.6667 54.6577 37.3486 59.9987 50 59.9987C62.6514 59.9987 73.3333 54.6577 73.3333 46.6654ZM33.3333 46.6654C33.3333 43.6111 40.5581 39.9987 50 39.9987C59.4419 39.9987 66.6667 43.6111 66.6667 46.6654C66.6667 49.7197 59.4419 53.332 50 53.332C40.5581 53.332 33.3333 49.7197 33.3333 46.6654Z" fill="#5A5A64"/>
<path d="M70 43.332C71.8409 43.332 73.3333 44.8244 73.3333 46.6654V59.9987C73.3333 67.9887 62.6491 73.332 50 73.332C37.3509 73.332 26.6667 67.9887 26.6667 59.9987V46.6654C26.6667 44.8244 28.159 43.332 30 43.332C31.8409 43.332 33.3333 44.8244 33.3333 46.6654V59.9987C33.3333 63.051 40.5603 66.6654 50 66.6654C59.4397 66.6654 66.6667 63.051 66.6667 59.9987V46.6654C66.6667 44.8244 68.159 43.332 70 43.332Z" fill="#5A5A64"/>
<path fill-rule="evenodd" clip-rule="evenodd" d="M40.9248 8.13884C34.134 6.17768 25.866 6.17768 19.0751 8.13884C11.6264 10.29 6.66666 14.5843 6.66666 20.0013C6.66666 25.4183 11.6264 29.7126 19.0751 31.8638C25.866 33.8249 34.134 33.8249 40.9248 31.8638C48.3736 29.7126 53.3333 25.4183 53.3333 20.0013C53.3333 14.5843 48.3736 10.29 40.9248 8.13884ZM20.9248 14.5438C26.5073 12.9316 33.4927 12.9316 39.0751 14.5438C44.0026 15.9668 46.6667 18.2734 46.6667 20.0013C46.6667 21.7292 44.0026 24.0358 39.0751 25.4588C33.4927 27.071 26.5073 27.071 20.9248 25.4588C15.9973 24.0358 13.3333 21.7292 13.3333 20.0013C13.3333 18.2734 15.9973 15.9668 20.9248 14.5438Z" fill="#5A5A64"/>
<path d="M9.99999 16.668C11.8409 16.668 13.3333 18.1604 13.3333 20.0013V53.3346C13.3333 54.3013 14.4977 55.3775 18.0292 56.9592C19.7093 57.7117 20.4613 59.6837 19.7088 61.3638C18.9563 63.044 16.9843 63.796 15.3041 63.0434C9.58871 60.4836 6.66666 57.7829 6.66666 53.3346V20.0013C6.66666 18.1604 8.15904 16.668 9.99999 16.668Z" fill="#5A5A64"/>
<path d="M9.99999 33.332C11.8409 33.332 13.3333 34.8244 13.3333 36.6654C13.3333 37.632 14.4977 38.7082 18.0292 40.2899C19.7093 41.0424 20.4613 43.0144 19.7088 44.6946C18.9563 46.3747 16.9843 47.1267 15.3041 46.3742C9.58871 43.8143 6.66666 41.1137 6.66666 36.6654C6.66666 34.8244 8.15904 33.332 9.99999 33.332Z" fill="#5A5A64"/>
</svg>
