<svg width="80" height="80" viewBox="0 0 80 80" fill="none" xmlns="http://www.w3.org/2000/svg">
<path fill-rule="evenodd" clip-rule="evenodd" d="M45.553 4.76121C42.1332 2.87408 38.0867 2.87408 34.7505 4.71353L12.1669 18.0279C8.80829 19.8722 6.66663 23.4733 6.66663 27.3892V51.6726C6.67452 55.6024 8.81888 59.2096 12.2615 61.091L34.5779 75.2163C38.0219 77.1144 41.978 77.1144 45.2442 75.3212L67.922 60.9829C71.1914 59.1931 73.3334 55.5888 73.3334 51.6726V27.3926L73.316 26.7129C73.1343 23.5566 71.5587 20.6396 69.0356 18.7474L68.6833 18.5006L68.655 18.4714C68.4783 18.3094 68.2779 18.1605 68.053 18.0279L45.553 4.76121ZM38.053 10.5039C39.3019 9.81694 40.918 9.81694 42.2505 10.5516L64.03 23.3939L64.2776 23.5896C64.3798 23.6626 64.488 23.7319 64.6024 23.7969C65.8866 24.5271 66.6759 25.894 66.6668 27.372L66.6668 51.6726C66.6668 53.1514 65.8537 54.5196 64.5343 55.2448L41.8579 69.5822C40.7678 70.1735 39.2321 70.1735 37.9642 69.4773L15.642 55.3489C14.1508 54.5262 13.3363 53.156 13.3333 51.6659L13.3333 27.3892C13.3333 25.9114 14.1453 24.5461 15.4656 23.8204L38.053 10.5039Z" fill="#5A5A64"/>
<path d="M40 50C41.8409 50 43.3333 51.4924 43.3333 53.3333V53.3667C43.3333 55.2076 41.8409 56.7 40 56.7C38.159 56.7 36.6666 55.2076 36.6666 53.3667V53.3333C36.6666 51.4924 38.159 50 40 50Z" fill="#5A5A64"/>
<path d="M32.4558 30.185C35.4389 26.6608 40.457 25.6568 44.56 27.7586C48.6847 29.8602 50.8277 34.5181 49.7402 39.0177C48.6528 43.5174 44.6192 46.6825 39.99 46.6686C38.1491 46.6631 36.6612 45.1663 36.6667 43.3253C36.6722 41.4844 38.1691 39.9965 40.01 40.002C41.5531 40.0066 42.8976 38.9515 43.2601 37.4517C43.6226 35.9518 42.9083 34.3992 41.527 33.6953C40.1755 33.0031 38.5253 33.3332 37.5443 34.4922C36.3549 35.8973 34.2516 36.0722 32.8464 34.8828C31.4413 33.6934 31.2664 31.5901 32.4558 30.185Z" fill="#5A5A64"/>
</svg>
