<svg width="80" height="80" viewBox="0 0 80 80" fill="none" xmlns="http://www.w3.org/2000/svg">
<path fill-rule="evenodd" clip-rule="evenodd" d="M66.6667 16.668C66.6667 11.1451 62.1895 6.66797 56.6667 6.66797H23.3333C17.8105 6.66797 13.3333 11.1451 13.3333 16.668V70.0013L13.36 70.4146L13.3619 70.4427L13.3967 70.618L13.4313 70.8071C13.4613 70.9278 13.4983 71.0475 13.5425 71.1655L13.62 71.3346L13.6962 71.5144L13.7533 71.608L13.8523 71.7883L13.88 71.8246L13.8932 71.8503L13.96 71.9346L14.0656 72.0861L14.1033 72.1246L14.1275 72.1613L14.1933 72.228L14.3096 72.3583L14.3767 72.418L14.3904 72.4374L14.43 72.4646L14.5818 72.6023L14.6467 72.648L14.6784 72.6779L14.7533 72.7246L14.8797 72.8157L14.94 72.848L14.9882 72.8821L15.1067 72.9413L15.2007 72.9958L15.2433 73.0113L15.3162 73.0493L15.4467 73.098L15.5425 73.1403L15.5933 73.1546L15.6589 73.1788L15.79 73.2113L15.9024 73.2466L15.9633 73.2546L16.0129 73.2699L16.14 73.288L16.2779 73.3122L16.33 73.3146L16.3748 73.322L16.5033 73.3246L16.6667 73.3346L16.741 73.3342L16.8267 73.3246L17.08 73.308L17.108 73.306L17.2967 73.268L17.4725 73.2367L17.67 73.1746L17.8 73.1346L17.8309 73.1255L18 73.048L18.1798 72.9718L18.2733 72.9146L18.4536 72.8157L18.49 72.788L18.5157 72.7748L26.24 67.6246L30.9763 72.3583L31.2903 72.6356C32.598 73.6524 34.4887 73.5599 35.6903 72.3583L40 68.0513L44.3096 72.3583L44.6237 72.6356C45.9313 73.6524 47.8221 73.5599 49.0237 72.3583L53.7567 67.6246L61.4843 72.7748C63.6995 74.2516 66.6667 72.6636 66.6667 70.0013V16.668ZM23.3333 13.3346H56.6667L57.0554 13.3571C58.7132 13.5496 60 14.9585 60 16.668V63.7713L55.1823 60.5611L54.8117 60.3469C53.5454 59.7193 51.9977 59.9562 50.9763 60.9776L46.6667 65.2846L42.357 60.9776L42.043 60.7003C40.7354 59.6836 38.8446 59.776 37.643 60.9776L33.3333 65.2846L29.0237 60.9776L28.7023 60.6948C27.5837 59.8311 26.0195 59.7599 24.8177 60.5611L20 63.7713V16.668C20 14.827 21.4924 13.3346 23.3333 13.3346Z" fill="#5A5A64"/>
<path d="M50 20C51.841 20 53.3333 21.4924 53.3333 23.3333C53.3333 25.1743 51.841 26.6667 50 26.6667H30C28.1591 26.6667 26.6667 25.1743 26.6667 23.3333C26.6667 21.4924 28.1591 20 30 20H50Z" fill="#5A5A64"/>
<path d="M50 33.332C51.841 33.332 53.3333 34.8244 53.3333 36.6654C53.3333 38.5063 51.841 39.9987 50 39.9987H30C28.1591 39.9987 26.6667 38.5063 26.6667 36.6654C26.6667 34.8244 28.1591 33.332 30 33.332H50Z" fill="#5A5A64"/>
<path d="M50 46.668C51.8409 46.668 53.3333 48.1604 53.3333 50.0013C53.3333 51.8422 51.8409 53.3346 50 53.3346H43.3333C41.4924 53.3346 40 51.8422 40 50.0013C40 48.1604 41.4924 46.668 43.3333 46.668H50Z" fill="#5A5A64"/>
</svg>
