<?xml version="1.0" standalone="no"?>
<!DOCTYPE svg PUBLIC "-//W3C//DTD SVG 20010904//EN"
 "http://www.w3.org/TR/2001/REC-SVG-20010904/DTD/svg10.dtd">
<svg version="1.0" xmlns="http://www.w3.org/2000/svg"
 width="700.000000pt" height="700.000000pt" viewBox="0 0 700.000000 700.000000"
 preserveAspectRatio="xMidYMid meet">
<metadata>
Created by potrace 1.14, written by Peter Selinger 2001-2017
</metadata>
<g transform="translate(0.000000,700.000000) scale(0.100000,-0.100000)"
fill="#000000" stroke="none">
<path d="M5555 4999 c-237 -17 -436 -88 -662 -236 -68 -45 -88 -61 -162 -130
-31 -29 -60 -52 -66 -52 -5 0 -35 23 -65 51 -65 61 -199 162 -249 187 -123 63
-164 81 -236 105 -174 58 -285 75 -485 71 -346 -7 -638 -131 -900 -384 -19
-18 -49 -44 -67 -58 -37 -29 -33 -30 -134 59 -106 93 -175 142 -311 216 -61
34 -214 99 -245 105 -10 2 -25 7 -33 10 -8 3 -55 16 -105 28 -126 31 -419 35
-578 8 -474 -81 -887 -392 -1103 -832 -23 -48 -44 -91 -45 -95 -4 -18 -12 -39
-20 -57 -15 -34 -51 -154 -53 -179 -2 -12 -5 -27 -8 -32 -12 -19 -20 -125 -20
-274 0 -240 15 -333 83 -527 83 -235 210 -424 412 -613 101 -95 165 -140 295
-208 276 -144 450 -185 767 -182 172 2 172 2 103 34 -58 27 -150 123 -184 192
-27 55 -29 67 -29 174 0 111 1 117 34 175 18 32 46 76 63 97 l30 38 -74 1
c-40 1 -83 3 -95 4 -169 18 -325 91 -450 212 -166 160 -252 355 -252 574 0
171 40 307 131 446 223 342 657 464 1023 288 201 -96 380 -300 466 -530 71
-190 190 -286 354 -286 83 0 163 31 226 88 71 66 94 111 129 257 17 71 38 145
47 165 112 239 330 384 578 384 177 0 321 -59 446 -183 110 -109 156 -201 203
-405 26 -113 66 -183 131 -230 72 -52 135 -74 211 -75 177 -1 320 124 350 305
39 233 155 406 344 512 274 154 640 68 818 -193 46 -67 97 -181 105 -232 3
-19 8 -36 11 -39 2 -3 29 18 58 46 114 110 241 153 381 127 35 -6 146 -57 168
-77 8 -8 37 -34 63 -59 l48 -45 -6 50 c-4 28 -11 73 -16 100 -6 28 -12 59 -14
71 -26 135 -137 371 -235 499 -57 75 -184 201 -265 263 -196 151 -437 245
-681 267 -110 10 -132 11 -230 4z"/>
<path d="M6559 3866 c-102 -26 -185 -96 -231 -194 -119 -249 68 -522 342 -499
139 12 261 104 306 230 20 55 19 180 -1 236 -58 165 -249 269 -416 227z"/>
<path d="M1755 2711 c-265 -87 -333 -412 -126 -599 151 -136 403 -103 520 68
38 56 51 97 56 176 8 127 -39 225 -148 308 -80 60 -203 80 -302 47z"/>
</g>
</svg>
