<svg width="80" height="80" viewBox="0 0 80 80" fill="none" xmlns="http://www.w3.org/2000/svg">
<path d="M50 13.332C51.8409 13.332 53.3333 14.8244 53.3333 16.6654V23.332C53.3333 25.173 51.8409 26.6654 50 26.6654C48.159 26.6654 46.6666 25.173 46.6666 23.332V16.6654C46.6666 14.8244 48.159 13.332 50 13.332Z" fill="#5A5A64"/>
<path d="M50 33.332C51.8409 33.332 53.3333 34.8244 53.3333 36.6654V43.332C53.3333 45.173 51.8409 46.6654 50 46.6654C48.159 46.6654 46.6666 45.173 46.6666 43.332V36.6654C46.6666 34.8244 48.159 33.332 50 33.332Z" fill="#5A5A64"/>
<path d="M50 53.332C51.8409 53.332 53.3333 54.8244 53.3333 56.6654V63.332C53.3333 65.173 51.8409 66.6654 50 66.6654C48.159 66.6654 46.6666 65.173 46.6666 63.332V56.6654C46.6666 54.8244 48.159 53.332 50 53.332Z" fill="#5A5A64"/>
<path fill-rule="evenodd" clip-rule="evenodd" d="M73.3333 23.332C73.3333 17.8092 68.8561 13.332 63.3333 13.332H16.6666C11.1438 13.332 6.66663 17.8092 6.66663 23.332V33.332C6.66663 35.173 8.15901 36.6654 9.99996 36.6654C11.8409 36.6654 13.3333 38.1577 13.3333 39.9987C13.3333 41.8396 11.8409 43.332 9.99996 43.332C8.15901 43.332 6.66663 44.8244 6.66663 46.6654V56.6654C6.66663 62.1882 11.1438 66.6654 16.6666 66.6654H63.3333C68.8561 66.6654 73.3333 62.1882 73.3333 56.6654V46.6654C73.3333 44.8244 71.8409 43.332 70 43.332C68.159 43.332 66.6666 41.8396 66.6666 39.9987C66.6666 38.1577 68.159 36.6654 70 36.6654C71.8409 36.6654 73.3333 35.173 73.3333 33.332V23.332ZM13.3333 23.332C13.3333 21.6226 14.6201 20.2137 16.2779 20.0211L16.6666 19.9987H63.3333L63.722 20.0211C65.3798 20.2137 66.6666 21.6226 66.6666 23.332V30.5654L66.6274 30.5817C62.7639 31.9655 60 35.6593 60 39.9987L60.0169 40.5863C60.2535 44.6691 62.9395 48.0948 66.6274 49.4157L66.6666 49.4287V56.6654C66.6666 58.5063 65.1742 59.9987 63.3333 59.9987H16.6666L16.2779 59.9763C14.6201 59.7837 13.3333 58.3748 13.3333 56.6654V49.4287L13.3725 49.4157C17.236 48.0319 20 44.3381 20 39.9987L19.983 39.4111C19.7464 35.3283 17.0604 31.9026 13.3725 30.5817L13.3333 30.5654V23.332Z" fill="#5A5A64"/>
</svg>
