<?xml version="1.0" encoding="utf-8"?>
<!-- Generator: Adobe Illustrator 28.0.0, SVG Export Plug-In . SVG Version: 6.00 Build 0)  -->
<svg version="1.1" id="Camada_1" xmlns="http://www.w3.org/2000/svg" xmlns:xlink="http://www.w3.org/1999/xlink" x="0px" y="0px"
	 viewBox="0 0 100 100" style="enable-background:new 0 0 100 100;" xml:space="preserve">
<style type="text/css">
	.st0{fill:#CCCCCC;}
</style>
<g>
	<g>
		<path class="st0" d="M-0.2,81.7C11,82.8,21,79.9,29.9,73.2c0,0,0-0.1,0-0.1c-0.3,0-0.5-0.1-0.8-0.1c-4.4-0.3-8.3-1.8-11.7-4.5
			c-3.1-2.5-5.2-5.6-6.5-9.3c0-0.1-0.1-0.2-0.1-0.3c0,0,0-0.1,0-0.1c3.1,0.5,6.1,0.5,9.1-0.4c-0.2-0.1-0.4-0.1-0.6-0.2
			C11.9,56.5,5.8,50.5,4,42.6c-0.3-1.3-0.4-2.7-0.5-4c0-0.2,0-0.3,0-0.6c2.9,1.6,6,2.4,9.2,2.5c0-0.2-0.1-0.2-0.2-0.3
			c-1.4-1-2.7-2.2-3.9-3.5c-2.4-2.8-3.9-6.1-4.6-9.7c-0.4-1.9-0.4-3.9-0.2-5.9c0.3-2.8,1.1-5.4,2.5-7.9c0-0.1,0.1-0.1,0.2-0.2
			c5.3,6.4,11.6,11.5,19,15.3c7.4,3.7,15.2,5.8,23.5,6.2c0-0.2,0-0.4-0.1-0.5c-0.3-1.5-0.5-3.1-0.4-4.6c0.2-7.9,4.7-14.8,11.9-18.2
			c1.8-0.8,3.6-1.4,5.6-1.7c1.5-0.2,3-0.3,4.5-0.2c2.5,0.2,5,0.8,7.3,1.9c2.2,1,4.2,2.4,6,4.2c0.3,0.3,0.5,0.4,0.9,0.3
			c3.5-0.7,6.9-1.9,10.1-3.5c0.7-0.4,1.5-0.8,2.2-1.2c0.1,0,0.1-0.1,0.3-0.1c-0.8,2.4-1.9,4.5-3.5,6.4c-1.5,1.9-3.3,3.5-5.4,4.8
			c0.5,0.1,3.3-0.4,5.9-1c1.9-0.5,3.8-1.2,5.7-1.9c-0.1,0.1-0.1,0.2-0.2,0.4c-2.3,3.3-4.9,6.1-8,8.6c-0.5,0.4-1.1,0.9-1.6,1.3
			c-0.2,0.1-0.3,0.3-0.3,0.5c0.1,2,0.1,4.1-0.1,6.1c-1,12.8-5.5,24.2-13.6,34.2c-7.4,9.1-16.8,15.2-28,18.4
			c-2.1,0.6-4.3,1.1-6.5,1.4c-1.4,0.2-2.8,0.4-4.1,0.5c-1.3,0.1-2.6,0.2-4,0.3c-1.7,0.1-3.4,0-5.2,0c-1.4,0-2.8-0.2-4.2-0.4
			c-2.5-0.3-5-0.8-7.4-1.4c-5.9-1.5-11.3-3.9-16.5-7.1C0,81.9-0.1,81.8-0.2,81.7C-0.2,81.8-0.2,81.7-0.2,81.7z"/>
	</g>
</g>
</svg>
