<?xml version="1.0" encoding="UTF-8"?>
<svg width="900px" height="180px" viewBox="0 0 900 180" version="1.1" xmlns="http://www.w3.org/2000/svg" xmlns:xlink="http://www.w3.org/1999/xlink">
    <title>Artboard Copy 7@2x</title>
    <g id="Artboard-Copy-7" stroke="none" stroke-width="1" fill="none" fill-rule="evenodd">
        <path d="M862.120573,2.50087366 C874.348903,2.53815147 878.905581,3.76847299 883.473688,6.21152355 C887.920462,8.58968409 891.410316,12.079538 893.788476,16.5263116 C896.2697,21.1657956 897.5,25.79349 897.5,38.458278 L897.5,141.541722 C897.5,154.20651 896.2697,158.834204 893.788476,163.473688 C891.410316,167.920462 887.920462,171.410316 883.473688,173.788476 C878.834204,176.2697 874.20651,177.5 861.541722,177.5 L38.458278,177.5 C25.79349,177.5 21.1657956,176.2697 16.5263116,173.788476 C12.079538,171.410316 8.58968409,167.920462 6.21152355,163.473688 C3.76992084,158.908288 2.53961878,154.354778 2.50092996,142.134813 L2.5,38.458278 C2.5,25.79349 3.73030033,21.1657956 6.21152355,16.5263116 C8.58968409,12.079538 12.079538,8.58968409 16.5263116,6.21152355 C21.0917117,3.76992084 25.6452223,2.53961878 37.8651674,2.50092996 Z" id="Rectangle" stroke-opacity="0.103228802" stroke="#000000" stroke-width="5" fill="#FFFFFF"></path>
        <g id="Group" transform="translate(85, 42)">
            <g id="Login-com-Google" transform="translate(164.118, 24.0313)" fill="#000000" fill-rule="nonzero">
                <polygon id="Path" points="0 49.9686779 0 2.69595059 9.98998469 2.69595059 9.98998469 41.7329545 30.2469427 41.7329545 30.2469427 49.9686779"></polygon>
                <path d="M52.7200127,50.6517722 C49.1314229,50.6517722 46.0337546,49.8877693 43.4270078,48.3597634 C40.8202611,46.8317575 38.8090278,44.6959155 37.3933081,41.9522372 C35.9775884,39.208559 35.2697286,36.014654 35.2697286,32.3705222 C35.2697286,28.7143684 35.9775884,25.5113266 37.3933081,22.7613969 C38.8090278,20.0114672 40.8202611,17.8724994 43.4270078,16.3444935 C46.0337546,14.8164876 49.1314229,14.0524847 52.7200127,14.0524847 C56.3086024,14.0524847 59.4062707,14.8164876 62.0130175,16.3444935 C64.6197643,17.8724994 66.6309975,20.0114672 68.0467172,22.7613969 C69.4624369,25.5113266 70.1702968,28.7143684 70.1702968,32.3705222 C70.1702968,36.014654 69.4624369,39.208559 68.0467172,41.9522372 C66.6309975,44.6959155 64.6197643,46.8317575 62.0130175,48.3597634 C59.4062707,49.8877693 56.3086024,50.6517722 52.7200127,50.6517722 Z M52.7755547,43.043962 C54.394207,43.043962 55.7529421,42.5776857 56.8517598,41.6451333 C57.9505776,40.7125808 58.7800407,39.4384211 59.3401493,37.822654 C59.9002578,36.206887 60.1803121,34.3711159 60.1803121,32.3153409 C60.1803121,30.2501887 59.9002578,28.4089476 59.3401493,26.7916177 C58.7800407,25.1742877 57.9505776,23.8962809 56.8517598,22.9575972 C55.7529421,22.0189135 54.394207,21.5495716 52.7755547,21.5495716 C51.1196339,21.5495716 49.7330677,22.0189135 48.6158562,22.9575972 C47.4986446,23.8962809 46.6599846,25.1742877 46.0998761,26.7916177 C45.5397675,28.4089476 45.2597133,30.2501887 45.2597133,32.3153409 C45.2597133,34.3711159 45.5397675,36.206887 46.0998761,37.822654 C46.6599846,39.4384211 47.4986446,40.7125808 48.6158562,41.6451333 C49.7330677,42.5776857 51.1196339,43.043962 52.7755547,43.043962 Z" id="Shape"></path>
                <path d="M92.5695437,64.0027688 C89.3841743,64.0027688 86.6535401,63.5664876 84.3776408,62.6939253 C82.1017416,61.821363 80.2951241,60.6395328 78.9577883,59.1484347 C77.6204525,57.6573366 76.7533002,55.9823608 76.3563312,54.1235074 L85.459808,52.9048295 C85.7307856,53.6158151 86.1647826,54.2775102 86.7617989,54.8899148 C87.3588152,55.5023193 88.1535946,55.995525 89.1461372,56.3695318 C90.1386799,56.7435386 91.3536309,56.930542 92.7909903,56.930542 C94.9237066,56.930542 96.6879463,56.4134725 98.0837094,55.3793335 C99.4794724,54.3451945 100.177354,52.6093269 100.177354,50.1717307 L100.177354,43.6902688 L99.7712482,43.6902688 C99.3341255,44.6688658 98.6831902,45.5990739 97.8184423,46.4808932 C96.9536943,47.3627125 95.8473026,48.0813922 94.4992672,48.6369324 C93.1512318,49.1924725 91.5354047,49.4702426 89.6517858,49.4702426 C86.9927429,49.4702426 84.5745023,48.8485209 82.3970639,47.6050776 C80.2196254,46.3616342 78.4868836,44.4611844 77.1988383,41.9037281 C75.9107931,39.3462719 75.2667704,36.1008523 75.2667704,32.1674694 C75.2667704,28.1480084 75.9215528,24.7949311 77.2311176,22.1082375 C78.5406824,19.4215439 80.2857468,17.4072451 82.466311,16.0653409 C84.6468752,14.7234368 87.0359022,14.0524847 89.633392,14.0524847 C91.6093404,14.0524847 93.2667039,14.3871793 94.6054823,15.0565685 C95.9442607,15.7259577 97.02757,16.5553607 97.8554101,17.5447776 C98.6832503,18.5341945 99.3157317,19.5121904 99.7528544,20.4787653 L100.140566,20.4787653 L100.140566,14.5141324 L109.89035,14.5141324 L109.89035,50.3196023 C109.89035,53.3388265 109.150932,55.8617193 107.672097,57.8882807 C106.193261,59.9148421 104.15047,61.4405638 101.543723,62.4654458 C98.9369762,63.4903278 95.9455831,64.0027688 92.5695437,64.0027688 Z M92.7725965,42.083879 C94.3482098,42.083879 95.6892724,41.6876313 96.7957843,40.8951361 C97.9022962,40.1026408 98.7487105,38.9639097 99.3350272,37.4789429 C99.9213438,35.993976 100.214502,34.2112223 100.214502,32.1306818 C100.214502,30.0561523 99.9244095,28.251819 99.3442241,26.7176819 C98.7640387,25.1835447 97.9207501,23.9940204 96.8143585,23.1491089 C95.7079668,22.3041974 94.3607128,21.8817416 92.7725965,21.8817416 C91.1474523,21.8817416 89.7816843,22.31652 88.6752926,23.1860768 C87.5689009,24.0556335 86.7318038,25.2606062 86.1640011,26.8009949 C85.5961985,28.3413835 85.3122971,30.1179458 85.3122971,32.1306818 C85.3122971,34.1679429 85.5992641,35.9306197 86.173198,37.4187123 C86.7471319,38.9068049 87.5872947,40.0563558 88.6936864,40.8673651 C89.8000781,41.6783743 91.1597148,42.083879 92.7725965,42.083879 Z" id="Shape"></path>
                <path d="M117.756981,49.9686779 L117.756981,14.5141324 L127.5807,14.5141324 L127.5807,49.9686779 L117.756981,49.9686779 Z M122.694087,9.93444269 C121.230759,9.93444269 119.977398,9.44802949 118.934002,8.47520308 C117.890606,7.50237667 117.368908,6.3328691 117.368908,4.96668035 C117.368908,3.60049161 117.891267,2.43116437 118.935986,1.45869862 C119.980704,0.486232873 121.23112,0 122.687234,0 C124.15513,0 125.408431,0.486413204 126.447138,1.45923961 C127.485846,2.43206602 128.005199,3.6015736 128.005199,4.96776234 C128.005199,6.33395108 127.485846,7.50327833 126.447138,8.47574407 C125.408431,9.44820982 124.157414,9.93444269 122.694087,9.93444269 Z" id="Shape"></path>
                <path d="M145.270948,29.4715188 L145.270948,49.9686779 L135.447229,49.9686779 L135.447229,14.5141324 L144.809301,14.5141324 L144.809301,20.7741477 L145.215406,20.7741477 C146.009344,18.7058697 147.328887,17.0685231 149.174036,15.8621077 C151.019184,14.6556924 153.257454,14.0524847 155.888846,14.0524847 C158.353853,14.0524847 160.502739,14.5918551 162.335504,15.670596 C164.16827,16.7493369 165.591684,18.2843156 166.605746,20.2755321 C167.619808,22.2667486 168.12227,24.6364802 168.113256,27.3847268 L168.113256,49.9686779 L158.289414,49.9686779 L158.289414,29.1389881 C158.298551,26.9723696 157.743792,25.2765956 156.625138,24.0516663 C155.506484,22.8267369 153.962308,22.2142722 151.992611,22.2142722 C150.669221,22.2142722 149.501998,22.5012392 148.490941,23.0751731 C147.479885,23.649107 146.692739,24.4770073 146.129505,25.558874 C145.566271,26.6407406 145.280085,27.9449555 145.270948,29.4715188 Z" id="Path"></path>
                <path d="M206.947119,50.6517722 C203.309238,50.6517722 200.188488,49.8785123 197.584867,48.3319924 C194.981246,46.7854725 192.982335,44.6373078 191.588135,41.8874983 C190.193935,39.1376888 189.496834,35.9653635 189.496834,32.3705222 C189.496834,28.7513964 190.201629,25.5653058 191.611217,22.8122503 C193.020806,20.0591949 195.025908,17.9109701 197.626523,16.3675759 C200.227139,14.8241818 203.321741,14.0524847 206.910331,14.0524847 C209.993994,14.0524847 212.699923,14.6133747 215.028118,15.7351546 C217.356313,16.8569345 219.195991,18.4357337 220.547152,20.4715521 C221.898314,22.5073705 222.640016,24.8918291 222.772258,27.6249279 L213.502516,27.6249279 C213.234905,25.8612893 212.54634,24.4355312 211.436823,23.3476535 C210.327306,22.2597758 208.867645,21.715837 207.057842,21.715837 C205.543541,21.715837 204.218588,22.1274728 203.082983,22.9507446 C201.947378,23.7740164 201.064116,24.969672 200.433197,26.5377114 C199.802278,28.1057508 199.486819,30.0069821 199.486819,32.2414051 C199.486819,34.5003533 199.799213,36.4216013 200.424,38.0051491 C201.048787,39.588697 201.928984,40.7967354 203.064589,41.6292641 C204.200194,42.4617929 205.531279,42.8780573 207.057842,42.8780573 C208.187436,42.8780573 209.199996,42.6479548 210.09552,42.1877497 C210.991044,41.7275446 211.735091,41.0565925 212.327659,40.1748935 C212.920227,39.2931944 213.311846,38.2244318 213.502516,36.9686057 L222.772258,36.9686057 C222.621502,39.6800648 221.889057,42.0645234 220.574923,44.1219815 C219.26079,46.1794397 217.448823,47.7821026 215.139021,48.9299705 C212.82922,50.0778383 210.098586,50.6517722 206.947119,50.6517722 Z" id="Path"></path>
                <path d="M245.116076,50.6517722 C241.527486,50.6517722 238.429818,49.8877693 235.823071,48.3597634 C233.216324,46.8317575 231.205091,44.6959155 229.789371,41.9522372 C228.373652,39.208559 227.665792,36.014654 227.665792,32.3705222 C227.665792,28.7143684 228.373652,25.5113266 229.789371,22.7613969 C231.205091,20.0114672 233.216324,17.8724994 235.823071,16.3444935 C238.429818,14.8164876 241.527486,14.0524847 245.116076,14.0524847 C248.704666,14.0524847 251.802334,14.8164876 254.409081,16.3444935 C257.015828,17.8724994 259.027061,20.0114672 260.442781,22.7613969 C261.8585,25.5113266 262.56636,28.7143684 262.56636,32.3705222 C262.56636,36.014654 261.8585,39.208559 260.442781,41.9522372 C259.027061,44.6959155 257.015828,46.8317575 254.409081,48.3597634 C251.802334,49.8877693 248.704666,50.6517722 245.116076,50.6517722 Z M245.171618,43.043962 C246.79027,43.043962 248.149005,42.5776857 249.247823,41.6451333 C250.346641,40.7125808 251.176104,39.4384211 251.736213,37.822654 C252.296321,36.206887 252.576375,34.3711159 252.576375,32.3153409 C252.576375,30.2501887 252.296321,28.4089476 251.736213,26.7916177 C251.176104,25.1742877 250.346641,23.8962809 249.247823,22.9575972 C248.149005,22.0189135 246.79027,21.5495716 245.171618,21.5495716 C243.515697,21.5495716 242.129131,22.0189135 241.01192,22.9575972 C239.894708,23.8962809 239.056048,25.1742877 238.495939,26.7916177 C237.935831,28.4089476 237.655777,30.2501887 237.655777,32.3153409 C237.655777,34.3711159 237.935831,36.206887 238.495939,37.822654 C239.056048,39.4384211 239.894708,40.7125808 241.01192,41.6451333 C242.129131,42.5776857 243.515697,43.043962 245.171618,43.043962 Z" id="Shape"></path>
                <path d="M268.992596,49.9686779 L268.992596,14.5141324 L278.354667,14.5141324 L278.354667,20.7741477 L278.760773,20.7741477 C279.499409,18.6873557 280.733536,17.0453806 282.463152,15.8482222 C284.192768,14.6510639 286.25786,14.0524847 288.658428,14.0524847 C291.089773,14.0524847 293.157991,14.6580367 294.863082,15.8691406 C296.568173,17.0802446 297.706844,18.715247 298.279095,20.7741477 L298.648413,20.7741477 C299.371661,18.739772 300.682789,17.1109009 302.581796,15.8875344 C304.480803,14.6641679 306.727489,14.0524847 309.321853,14.0524847 C312.630328,14.0524847 315.322492,15.1035147 317.398344,17.2055747 C319.474195,19.3076348 320.512121,22.282197 320.512121,26.1292614 L320.512121,49.9686779 L310.688402,49.9686779 L310.688402,28.0681818 C310.688402,26.0891076 310.166764,24.6094305 309.123488,23.6291504 C308.080213,22.6488703 306.773774,22.1587302 305.204171,22.1587302 C303.422019,22.1587302 302.02854,22.7243088 301.023735,23.855466 C300.01893,24.9866231 299.516527,26.4769398 299.516527,28.326416 L299.516527,49.9686779 L289.98819,49.9686779 L289.98819,27.8463745 C289.98819,26.1075014 289.491137,24.7248424 288.497032,23.6983975 C287.502926,22.6719527 286.196427,22.1587302 284.577534,22.1587302 C283.484968,22.1587302 282.504748,22.4295876 281.636874,22.9713024 C280.769001,23.5130171 280.081939,24.2740146 279.575689,25.2542947 C279.06944,26.2345748 278.816315,27.3817213 278.816315,28.6957342 L278.816315,49.9686779 L268.992596,49.9686779 Z" id="Path"></path>
                <path d="M374.866903,17.9671131 C374.54375,16.8560329 374.088234,15.8657744 373.500354,14.9963379 C372.912475,14.1269013 372.200768,13.3851993 371.365233,12.7712319 C370.529699,12.1572645 369.574064,11.6909883 368.498329,11.3724032 C367.422593,11.0538182 366.243108,10.8945257 364.959871,10.8945257 C362.5468,10.8945257 360.427007,11.493165 358.600493,12.6904436 C356.773979,13.8877221 355.352128,15.6312237 354.33494,17.9209484 C353.317753,20.210673 352.809159,22.9959476 352.809159,26.2767722 C352.809159,29.5761108 353.309277,32.3798995 354.309514,34.6881381 C355.309751,36.9963767 356.72547,38.7537638 358.556673,39.9602994 C360.387876,41.166835 362.553051,41.7701028 365.052201,41.7701028 C367.308023,41.7701028 369.239971,41.3668823 370.848044,40.5604415 C372.456117,39.7540006 373.686456,38.6105809 374.539061,37.1301824 C375.391667,35.649784 375.81797,33.9063425 375.81797,31.899858 L377.84922,32.1858631 L365.680114,32.1858631 L365.680114,24.6703824 L385.45703,24.6703824 L385.45703,30.6350153 C385.45703,34.7773419 384.579118,38.3404449 382.823294,41.3243242 C381.06747,44.3082035 378.651513,46.6026167 375.575425,48.2075639 C372.499336,49.8125111 368.973081,50.6149847 364.996659,50.6149847 C360.561715,50.6149847 356.668486,49.6347647 353.316971,47.6743247 C349.965457,45.7138848 347.3533,42.9224789 345.480501,39.3001071 C343.607702,35.6777353 342.671302,31.3736517 342.671302,26.3878562 C342.671302,22.5468029 343.23069,19.1228554 344.349464,16.116014 C345.468238,13.1091725 347.033994,10.5585688 349.04673,8.46420288 C351.059466,6.36983698 353.406175,4.77715232 356.086858,3.6861489 C358.76754,2.59514549 361.66979,2.04964378 364.793606,2.04964378 C367.471163,2.04964378 369.964842,2.43663441 372.274643,3.21061568 C374.584445,3.98459695 376.635712,5.08022886 378.428444,6.49751143 C380.221176,7.914794 381.686907,9.59596114 382.825638,11.5410129 C383.964369,13.4860646 384.693749,15.628098 385.013776,17.9671131 L374.866903,17.9671131 Z" id="Path"></path>
                <path d="M408.79782,50.6517722 C405.20923,50.6517722 402.111562,49.8877693 399.504815,48.3597634 C396.898068,46.8317575 394.886835,44.6959155 393.471115,41.9522372 C392.055396,39.208559 391.347536,36.014654 391.347536,32.3705222 C391.347536,28.7143684 392.055396,25.5113266 393.471115,22.7613969 C394.886835,20.0114672 396.898068,17.8724994 399.504815,16.3444935 C402.111562,14.8164876 405.20923,14.0524847 408.79782,14.0524847 C412.38641,14.0524847 415.484078,14.8164876 418.090825,16.3444935 C420.697571,17.8724994 422.708805,20.0114672 424.124524,22.7613969 C425.540244,25.5113266 426.248104,28.7143684 426.248104,32.3705222 C426.248104,36.014654 425.540244,39.208559 424.124524,41.9522372 C422.708805,44.6959155 420.697571,46.8317575 418.090825,48.3597634 C415.484078,49.8877693 412.38641,50.6517722 408.79782,50.6517722 Z M408.853362,43.043962 C410.472014,43.043962 411.830749,42.5776857 412.929567,41.6451333 C414.028385,40.7125808 414.857848,39.4384211 415.417956,37.822654 C415.978065,36.206887 416.258119,34.3711159 416.258119,32.3153409 C416.258119,30.2501887 415.978065,28.4089476 415.417956,26.7916177 C414.857848,25.1742877 414.028385,23.8962809 412.929567,22.9575972 C411.830749,22.0189135 410.472014,21.5495716 408.853362,21.5495716 C407.197441,21.5495716 405.810875,22.0189135 404.693663,22.9575972 C403.576452,23.8962809 402.737792,25.1742877 402.177683,26.7916177 C401.617575,28.4089476 401.33752,30.2501887 401.33752,32.3153409 C401.33752,34.3711159 401.617575,36.206887 402.177683,37.822654 C402.737792,39.4384211 403.576452,40.7125808 404.693663,41.6451333 C405.810875,42.5776857 407.197441,43.043962 408.853362,43.043962 Z" id="Shape"></path>
                <path d="M448.684138,50.6517722 C445.095549,50.6517722 441.99788,49.8877693 439.391134,48.3597634 C436.784387,46.8317575 434.773154,44.6959155 433.357434,41.9522372 C431.941714,39.208559 431.233854,36.014654 431.233854,32.3705222 C431.233854,28.7143684 431.941714,25.5113266 433.357434,22.7613969 C434.773154,20.0114672 436.784387,17.8724994 439.391134,16.3444935 C441.99788,14.8164876 445.095549,14.0524847 448.684138,14.0524847 C452.272728,14.0524847 455.370396,14.8164876 457.977143,16.3444935 C460.58389,17.8724994 462.595123,20.0114672 464.010843,22.7613969 C465.426563,25.5113266 466.134422,28.7143684 466.134422,32.3705222 C466.134422,36.014654 465.426563,39.208559 464.010843,41.9522372 C462.595123,44.6959155 460.58389,46.8317575 457.977143,48.3597634 C455.370396,49.8877693 452.272728,50.6517722 448.684138,50.6517722 Z M448.73968,43.043962 C450.358333,43.043962 451.717068,42.5776857 452.815886,41.6451333 C453.914703,40.7125808 454.744166,39.4384211 455.304275,37.822654 C455.864384,36.206887 456.144438,34.3711159 456.144438,32.3153409 C456.144438,30.2501887 455.864384,28.4089476 455.304275,26.7916177 C454.744166,25.1742877 453.914703,23.8962809 452.815886,22.9575972 C451.717068,22.0189135 450.358333,21.5495716 448.73968,21.5495716 C447.08376,21.5495716 445.697193,22.0189135 444.579982,22.9575972 C443.46277,23.8962809 442.62411,25.1742877 442.064002,26.7916177 C441.503893,28.4089476 441.223839,30.2501887 441.223839,32.3153409 C441.223839,34.3711159 441.503893,36.206887 442.064002,37.822654 C442.62411,39.4384211 443.46277,40.7125808 444.579982,41.6451333 C445.697193,42.5776857 447.08376,43.043962 448.73968,43.043962 Z" id="Shape"></path>
                <path d="M488.533669,64.0027688 C485.3483,64.0027688 482.617666,63.5664876 480.341767,62.6939253 C478.065867,61.821363 476.25925,60.6395328 474.921914,59.1484347 C473.584578,57.6573366 472.717426,55.9823608 472.320457,54.1235074 L481.423934,52.9048295 C481.694911,53.6158151 482.128908,54.2775102 482.725925,54.8899148 C483.322941,55.5023193 484.11772,55.995525 485.110263,56.3695318 C486.102806,56.7435386 487.317757,56.930542 488.755116,56.930542 C490.887832,56.930542 492.652072,56.4134725 494.047835,55.3793335 C495.443598,54.3451945 496.14148,52.6093269 496.14148,50.1717307 L496.14148,43.6902688 L495.735374,43.6902688 C495.298251,44.6688658 494.647316,45.5990739 493.782568,46.4808932 C492.91782,47.3627125 491.811428,48.0813922 490.463393,48.6369324 C489.115358,49.1924725 487.49953,49.4702426 485.615911,49.4702426 C482.956869,49.4702426 480.538628,48.8485209 478.36119,47.6050776 C476.183751,46.3616342 474.451009,44.4611844 473.162964,41.9037281 C471.874919,39.3462719 471.230896,36.1008523 471.230896,32.1674694 C471.230896,28.1480084 471.885679,24.7949311 473.195243,22.1082375 C474.504808,19.4215439 476.249873,17.4072451 478.430437,16.0653409 C480.611001,14.7234368 483.000028,14.0524847 485.597518,14.0524847 C487.573466,14.0524847 489.23083,14.3871793 490.569608,15.0565685 C491.908386,15.7259577 492.991696,16.5553607 493.819536,17.5447776 C494.647376,18.5341945 495.279857,19.5121904 495.71698,20.4787653 L496.104692,20.4787653 L496.104692,14.5141324 L505.854476,14.5141324 L505.854476,50.3196023 C505.854476,53.3388265 505.115058,55.8617193 503.636222,57.8882807 C502.157387,59.9148421 500.114596,61.4405638 497.507849,62.4654458 C494.901102,63.4903278 491.909709,64.0027688 488.533669,64.0027688 Z M488.736722,42.083879 C490.312336,42.083879 491.653398,41.6876313 492.75991,40.8951361 C493.866422,40.1026408 494.712836,38.9639097 495.299153,37.4789429 C495.88547,35.993976 496.178628,34.2112223 496.178628,32.1306818 C496.178628,30.0561523 495.888535,28.251819 495.30835,26.7176819 C494.728164,25.1835447 493.884876,23.9940204 492.778484,23.1491089 C491.672092,22.3041974 490.324839,21.8817416 488.736722,21.8817416 C487.111578,21.8817416 485.74581,22.31652 484.639418,23.1860768 C483.533027,24.0556335 482.695929,25.2606062 482.128127,26.8009949 C481.560324,28.3413835 481.276423,30.1179458 481.276423,32.1306818 C481.276423,34.1679429 481.56339,35.9306197 482.137324,37.4187123 C482.711258,38.9068049 483.55142,40.0563558 484.657812,40.8673651 C485.764204,41.6783743 487.123841,42.083879 488.736722,42.083879 Z" id="Shape"></path>
                <polygon id="Path" points="523.544826 2.69595059 523.544826 49.9686779 513.721106 49.9686779 513.721106 2.69595059"></polygon>
                <path d="M547.550271,50.6517722 C543.912631,50.6517722 540.780399,49.9124146 538.153576,48.4336992 C535.526752,46.9549838 533.506262,44.8499182 532.092105,42.1185025 C530.677948,39.3870868 529.97087,36.1501428 529.97087,32.4076705 C529.97087,28.7575277 530.680292,25.5552072 532.099138,22.8007091 C533.517983,20.046211 535.513828,17.8995491 538.086673,16.3607233 C540.659517,14.8218976 543.684813,14.0524847 547.162559,14.0524847 C549.507825,14.0524847 551.691455,14.4248685 553.713448,15.1696361 C555.735441,15.9144037 557.503528,17.0354624 559.017709,18.5328119 C560.531889,20.0301615 561.713719,21.9052448 562.563199,24.1580616 C563.412679,26.4108785 563.837419,29.0437733 563.837419,32.056746 L563.837419,34.7526966 L533.904252,34.7526966 L533.904252,28.6589466 L554.586071,28.6589466 C554.576693,27.2494784 554.263518,25.9976797 553.646545,24.9035506 C553.029572,23.8094214 552.17859,22.9491818 551.093597,22.3228316 C550.008605,21.6964814 548.753681,21.3833063 547.328824,21.3833063 C545.842174,21.3833063 544.524855,21.7287607 543.376867,22.4196694 C542.228879,23.1105781 541.33101,24.0285238 540.683261,25.1735063 C540.035511,26.3184888 539.70238,27.5911458 539.683866,28.9914773 L539.683866,34.7894842 C539.683866,36.543986 540.01315,38.0598496 540.67172,39.337075 C541.330289,40.6143004 542.259716,41.597586 543.46,42.2869318 C544.660284,42.9762777 546.079129,43.3209506 547.716536,43.3209506 C548.815354,43.3209506 549.816432,43.1655653 550.719771,42.8547946 C551.62311,42.5440239 552.400998,42.0831576 553.053436,41.4721957 C553.705874,40.8612338 554.198238,40.1110562 554.530529,39.221663 L563.615612,39.8124279 C563.153964,42.0038119 562.213777,43.9112345 560.795052,45.5346957 C559.376327,47.1581569 557.545906,48.4168683 555.303789,49.3108299 C553.061671,50.2047914 550.477165,50.6517722 547.550271,50.6517722 Z" id="Path"></path>
            </g>
            <g id="Google__G__logo">
                <path d="M98,51.2272727 C98,47.6818182 97.6818182,44.2727273 97.0909091,41 L50,41 L50,60.3636364 L76.9090909,60.3636364 C75.7272727,66.5909091 72.1818182,71.8636364 66.8636364,75.4090909 L66.8636364,88 L83.0909091,88 C92.5454545,79.2727273 98,66.4545455 98,51.2272727 L98,51.2272727 Z" id="Path" fill="#4285F4" fill-rule="nonzero"></path>
                <path d="M50.005848,100 C63.4663743,100 74.751462,95.5404494 83,87.8955056 L66.8201754,75.2904494 C62.378655,78.2938202 56.7134503,80.1140449 50.005848,80.1140449 C37.0438596,80.1140449 26.0307018,71.3314607 22.0877193,59.5 L5.5,59.5 L5.5,72.4235955 C13.7032164,88.7601124 30.5175439,100 50.005848,100 Z" id="Path" fill="#34A853" fill-rule="nonzero"></path>
                <path d="M22,59.5385396 C21,56.5263692 20.4090909,53.331643 20.4090909,50 C20.4090909,46.668357 21,43.4736308 22,40.4614604 L22,27.5 L5.36363636,27.5 C1.95454545,34.2545639 0,41.8762677 0,50 C0,58.1237323 1.95454545,65.7454361 5.36363636,72.5 L18.3181818,62.3681542 L22,59.5385396 Z" id="Path" fill="#FBBC05" fill-rule="nonzero"></path>
                <path d="M50.0844005,19.9090909 C57.4394645,19.9090909 63.9772992,22.4545455 69.1984866,27.3636364 L83.5,13.0454545 C74.8282887,4.95454545 63.5686845,0 50.0844005,0 C30.5616997,0 13.717695,11.2272727 5.5,27.5909091 L22.1169965,40.5 C26.0669383,28.6818182 37.0995343,19.9090909 50.0844005,19.9090909 Z" id="Path" fill="#EA4335" fill-rule="nonzero"></path>
                <polygon id="Path" points="0 0 100 0 100 100 0 100"></polygon>
            </g>
        </g>
    </g>
</svg>