<svg width="227" height="182" viewBox="0 0 227 182" fill="none" xmlns="http://www.w3.org/2000/svg">
<path d="M192.677 164.47L226.632 130.539V108.602H191.601C190.726 108.602 189.885 108.253 189.266 107.634L180.695 99.0693L169.231 112.69C168.632 113.396 167.764 113.826 166.843 113.86C166.795 113.86 166.748 113.86 166.701 113.86C165.827 113.86 164.986 113.51 164.36 112.892L136.231 84.7226C135.612 84.1041 135.262 83.2637 135.262 82.3897V45.9312L108.082 18.7705L88.5714 38.267C87.2797 39.5578 85.1941 39.5578 83.9023 38.267L45.601 0L0 123.265V166.332H57.1997L72.4382 181.56H95.131L112.233 164.47H192.671H192.677Z" fill="white"/>
</svg>
