<svg width="309" height="204" viewBox="0 0 309 204" fill="none" xmlns="http://www.w3.org/2000/svg">
<path d="M58.8817 110.082C60.1734 108.791 62.259 108.791 63.5507 110.082L94.0344 140.543C94.6533 141.162 95.0032 142.002 95.0032 142.876V179.335L119.627 203.994L131.084 190.38C131.683 189.675 132.544 189.251 133.473 189.211C134.394 189.164 135.296 189.52 135.949 190.172L146.094 200.31H179.76V163.542L231.86 111.722V146.184L247.764 162.077L267.692 142.163V113.013L308.691 72.0431L297.2 60.5603V13.6745H259.605L273.323 27.3826L258.085 42.61L242.079 26.6161H196.102L217.314 47.8136V66.4698H172.225V77.1324L194.326 99.2173H165.114L150.763 84.8772L133.87 100.992V77.1324H91.9555L112.28 56.8291V33.4803H89.4191L74.6852 18.757H53.3514V36.5258L16.7926 0H0V90.2354L39.3711 129.578L58.8817 110.082Z" fill="white"/>
</svg>
