<svg width="365" height="345" viewBox="0 0 365 345" fill="none" xmlns="http://www.w3.org/2000/svg">
<path d="M361.195 76.421L338.549 56.5749L294.408 59.4657L291.233 11L269.845 35.3707L260.554 27.2292L220.503 29.8512L224.675 93.4233L181.489 96.247L154.342 72.4545L138.559 90.4384L108.876 92.3813L65.9391 95.1915C64.3244 95.299 62.8174 96.0386 61.7477 97.2554L42.0824 119.663L41.4634 119.703L25.3234 138.756L0 167.604L32.4347 194.328C33.1411 194.906 33.5717 195.753 33.6322 196.661L35.3007 222.134L48.2181 221.287C49.086 221.233 49.9539 221.522 50.6132 222.101C51.2725 222.679 51.6762 223.492 51.73 224.366L54.6364 268.738C54.6902 269.612 54.4009 270.472 53.8223 271.131L36.6261 290.728L67.3183 317.627L106.979 272.435L151.665 269.511L193.471 306.151L223.558 304.181L220.598 258.983L248.276 257.167L278.578 222.645L275.523 176.089L292.074 157.231L317.155 128.658L364.424 125.566L361.202 76.421H361.195Z" fill="white"/>
</svg>
