<?xml version="1.0" encoding="UTF-8"?>
<svg width="365px" height="130px" viewBox="0 0 365 130" version="1.1" xmlns="http://www.w3.org/2000/svg" xmlns:xlink="http://www.w3.org/1999/xlink">
    <g id="carris-metropolitana-light" stroke="none" stroke-width="1" fill="none" fill-rule="evenodd">
        <path d="M154.913876,64.4526061 L153.429888,68.1085541 C153.232023,68.6516551 152.836293,68.7504915 152.34163,68.6027361 C151.847967,68.4549807 151.254371,68.2573079 150.315012,68.2573079 C147.248104,68.2573079 145.269453,70.5295465 145.269453,73.4946381 L145.269453,86.3403735 C145.269453,86.784638 144.973655,87.0811472 144.527959,87.0811472 L139.483399,87.0811472 C139.038702,87.0811472 138.741905,86.784638 138.741905,86.3403735 L138.741905,63.612996 C138.741905,63.1677331 139.038702,62.8722223 139.483399,62.8722223 L144.281127,62.8722223 C144.725824,62.8722223 144.973655,63.1677331 145.022621,63.612996 L145.220486,66.2805801 C146.506609,63.9584242 148.484261,62.328123 151.402271,62.328123 C152.787326,62.328123 153.974516,62.8722223 154.666045,63.4642423 C155.061775,63.7607514 155.061775,64.1061796 154.913876,64.4526061" id="Fill-1" fill="#000000"></path>
        <path d="M178.534966,64.4526061 L177.050979,68.1085541 C176.853113,68.6516551 176.457383,68.7504915 175.962721,68.6027361 C175.469057,68.4549807 174.875462,68.2573079 173.936103,68.2573079 C170.869194,68.2573079 168.890544,70.5295465 168.890544,73.4946381 L168.890544,86.3403735 C168.890544,86.784638 168.594746,87.0811472 168.14905,87.0811472 L163.10449,87.0811472 C162.659793,87.0811472 162.362996,86.784638 162.362996,86.3403735 L162.362996,63.612996 C162.362996,63.1677331 162.659793,62.8722223 163.10449,62.8722223 L167.902218,62.8722223 C168.346915,62.8722223 168.594746,63.1677331 168.643712,63.612996 L168.841577,66.2805801 C170.1277,63.9584242 172.105351,62.328123 175.023361,62.328123 C176.408417,62.328123 177.595607,62.8722223 178.287136,63.4642423 C178.682866,63.7607514 178.682866,64.1061796 178.534966,64.4526061" id="Fill-3" fill="#000000"></path>
        <path d="M123.035716,74.9725915 C123.035716,71.3166435 120.414504,68.2537139 116.853932,68.2537139 C113.243394,68.2537139 110.622182,71.1189707 110.622182,74.9725915 C110.622182,78.8761297 113.243394,81.7913039 116.853932,81.7913039 C120.414504,81.7913039 123.035716,78.6285395 123.035716,74.9725915 M129.61323,63.609402 L129.61323,86.3367794 C129.61323,86.781044 129.316433,87.0775532 128.871736,87.0775532 L124.32084,87.0775532 C123.876143,87.0775532 123.629311,86.781044 123.579345,86.3367794 L123.38148,84.2612153 C121.650661,86.2868621 119.227313,87.7194905 116.062472,87.7194905 C109.287093,87.7194905 104.341465,82.0878131 104.341465,75.0215105 C104.341465,67.9562063 109.287093,62.3245289 116.062472,62.3245289 C119.128381,62.3245289 121.600695,63.8070748 123.431446,65.8816405 L123.579345,63.609402 C123.629311,63.1641391 123.876143,62.8686282 124.32084,62.8686282 L128.871736,62.8686282 C129.316433,62.8686282 129.61323,63.1641391 129.61323,63.609402" id="Fill-5" fill="#000000"></path>
        <path d="M187.035269,62.8713238 L192.079829,62.8713238 C192.524526,62.8713238 192.821323,63.1678329 192.821323,63.6130959 L192.821323,86.339475 C192.821323,86.7847379 192.524526,87.081247 192.079829,87.081247 L187.035269,87.081247 C186.590573,87.081247 186.292776,86.7847379 186.292776,86.339475 L186.292776,63.6130959 C186.292776,63.1678329 186.590573,62.8713238 187.035269,62.8713238" id="Fill-7" fill="#000000"></path>
        <path d="M219.206929,80.3083588 C219.206929,85.002588 214.409201,87.7200895 209.959236,87.7200895 C205.804069,87.7200895 202.441363,85.6934444 200.710543,83.6677976 C200.413745,83.3223694 200.512678,82.9759429 200.710543,82.6794337 L202.639228,79.9619322 C202.936025,79.567585 203.282789,79.6664214 203.727486,80.0118496 C205.705137,81.2967227 207.832686,82.2351692 209.761371,82.2351692 C211.343292,82.2351692 212.876246,81.7409872 212.876246,80.2095224 C212.876246,76.3559016 201.15524,77.8384474 201.15524,69.685943 C201.15524,65.0416311 205.211473,62.3241296 209.563505,62.3241296 C212.67938,62.3241296 215.844222,63.6090026 217.871839,65.9810759 C218.168637,66.3265041 218.069704,66.7218497 217.821873,67.0183588 L215.943155,69.4882702 C215.646357,69.8836157 215.299594,69.7847793 214.854897,69.4383528 C212.975179,68.2033971 211.837954,67.5614598 210.107135,67.5614598 C208.57418,67.5614598 207.436956,68.4010699 207.436956,69.6370239 C207.436956,73.5884828 219.206929,71.4150806 219.206929,80.3083588" id="Fill-9" fill="#000000"></path>
        <path d="M92.8461051,79.520463 C93.2418352,79.1750349 93.5885987,79.1750349 93.9343629,79.520463 L96.9503061,82.3857199 C97.2461043,82.6812308 97.2960702,83.0765763 97.000272,83.4220045 C94.7258231,86.0406696 91.3631164,87.7198898 87.5067464,87.7198898 C80.5355007,87.7198898 75.1461762,82.1381298 75.1461762,75.0259033 C75.1461762,67.9136767 80.5355007,62.3309184 87.5067464,62.3309184 C91.2641839,62.3309184 94.5769247,64.0101386 96.8513735,66.6288037 C97.1471718,66.9742319 97.0982052,67.3705758 96.8014076,67.6660866 L93.7854644,70.5802625 C93.4397002,70.9256907 93.093936,70.8767717 92.6982059,70.5313435 C91.3141498,69.2963878 89.8791285,68.3579413 87.6546456,68.3579413 C83.9961406,68.3579413 81.4248942,71.2221999 81.4248942,75.0259033 C81.4248942,78.8286083 83.9961406,81.6938652 87.6546456,81.6938652 C89.9790603,81.6938652 91.4610497,80.7554187 92.8461051,79.520463" id="Fill-11" fill="#000000"></path>
        <path d="M106.9307,110.869468 L106.9307,121.897213 C106.9307,122.252625 106.693861,122.490232 106.337104,122.490232 L102.301856,122.490232 C101.9451,122.490232 101.708261,122.252625 101.708261,121.897213 L101.708261,111.817898 C101.708261,108.616198 99.9674484,107.509031 98.1077167,107.509031 C95.1797136,107.509031 93.8346309,109.842169 93.8346309,111.22488 L93.8346309,121.897213 C93.8346309,122.252625 93.5977924,122.490232 93.2410357,122.490232 L89.2057877,122.490232 C88.8500303,122.490232 88.6121925,122.252625 88.6121925,121.897213 L88.6121925,111.817898 C88.6121925,108.616198 86.8713797,107.509031 84.9726746,107.509031 C82.0446715,107.509031 80.6985895,110.395253 80.6985895,111.303749 L80.6985895,121.897213 C80.6985895,122.252625 80.461751,122.490232 80.1059936,122.490232 L76.0697463,122.490232 C75.7139889,122.490232 75.4761511,122.252625 75.4761511,121.897213 L75.4761511,103.714313 C75.4761511,103.358901 75.7139889,103.122293 76.0697463,103.122293 L79.947102,103.122293 C80.3038587,103.122293 80.5007244,103.358901 80.5406972,103.714313 L80.6985895,106.244125 L80.6985895,106.284059 C81.964726,104.228462 84.0223228,102.688012 86.831407,102.688012 C89.4036528,102.688012 91.5791691,103.952918 92.8063322,106.284059 C94.1903883,104.189526 96.4858228,102.688012 99.6506645,102.688012 C103.883778,102.688012 106.9307,105.691041 106.9307,110.869468" id="Fill-13" fill="#000000"></path>
        <path d="M117.880832,111.343683 L127.138518,111.343683 C126.782761,108.616198 124.923029,107.114684 122.588621,107.114684 C120.21524,107.114684 118.315535,108.616198 117.880832,111.343683 M130.383305,114.743056 L117.959778,114.743056 C118.474427,117.312802 120.452078,118.774383 123.499,118.774383 C125.041948,118.774383 126.268112,118.379037 127.614194,117.430607 C127.969951,117.193999 128.207789,117.193999 128.483601,117.470541 L130.225413,119.169728 C130.502224,119.44627 130.502224,119.723811 130.18544,120.039289 C128.325708,121.897213 125.793435,123.00438 122.984351,123.00438 C116.931479,123.00438 112.776313,118.537774 112.776313,112.845198 C112.776313,107.15362 116.931479,102.688012 122.549648,102.688012 C128.167816,102.688012 131.768361,107.15362 131.768361,112.410917 C131.768361,113.952365 131.570496,114.743056 130.383305,114.743056" id="Fill-15" fill="#000000"></path>
        <path d="M147.495735,103.714812 L147.495735,106.797709 C147.495735,107.154119 147.257897,107.390727 146.90214,107.390727 L144.133028,107.390727 L144.133028,121.897712 C144.133028,122.253124 143.89519,122.489732 143.539433,122.489732 L139.503186,122.489732 C139.147428,122.489732 138.90959,122.253124 138.90959,121.897712 L138.90959,107.390727 L136.140479,107.390727 C135.784722,107.390727 135.546884,107.154119 135.546884,106.797709 L135.546884,103.714812 C135.546884,103.3594 135.784722,103.121794 136.140479,103.121794 L138.90959,103.121794 L138.90959,97.7856272 C138.90959,97.4302155 139.147428,97.1936072 139.503186,97.1936072 L143.539433,97.1936072 C143.89519,97.1936072 144.133028,97.4302155 144.133028,97.7856272 L144.133028,103.121794 L146.90214,103.121794 C147.257897,103.121794 147.495735,103.3594 147.495735,103.714812" id="Fill-17" fill="#000000"></path>
        <path d="M168.767528,104.386999 L167.580337,107.312157 C167.422445,107.747437 167.105661,107.826306 166.709931,107.707503 C166.314201,107.588699 165.839525,107.43096 165.088037,107.43096 C162.63471,107.43096 161.05179,109.248951 161.05179,111.620026 L161.05179,121.898012 C161.05179,122.253424 160.814951,122.490032 160.459194,122.490032 L156.422947,122.490032 C156.067189,122.490032 155.829351,122.253424 155.829351,121.898012 L155.829351,103.715112 C155.829351,103.3597 156.067189,103.122093 156.422947,103.122093 L160.261329,103.122093 C160.617086,103.122093 160.814951,103.3597 160.853925,103.715112 L161.012816,105.849578 C162.041115,103.991654 163.624036,102.687812 165.958443,102.687812 C167.065688,102.687812 168.015041,103.122093 168.569663,103.596308 C168.886447,103.833915 168.886447,104.110457 168.767528,104.386999" id="Fill-19" fill="#000000"></path>
        <path d="M187.717704,112.845597 C187.717704,109.722767 185.462242,107.509431 182.693131,107.509431 C179.884046,107.509431 177.668557,109.722767 177.668557,112.845597 C177.668557,115.968428 179.884046,118.181764 182.693131,118.181764 C185.462242,118.181764 187.717704,115.968428 187.717704,112.845597 M172.642985,112.845597 C172.642985,107.154019 177.114935,102.687413 182.693131,102.687413 C188.271326,102.687413 192.742277,107.154019 192.742277,112.845597 C192.742277,118.537175 188.271326,123.003781 182.693131,123.003781 C177.114935,123.003781 172.642985,118.537175 172.642985,112.845597" id="Fill-21" fill="#000000"></path>
        <path d="M214.383318,112.806462 C214.383318,109.723565 212.286748,107.430361 209.397719,107.430361 C206.549661,107.430361 204.452091,109.881304 204.452091,112.806462 C204.452091,115.730621 206.549661,118.260433 209.397719,118.260433 C212.286748,118.260433 214.383318,115.929292 214.383318,112.806462 M219.407892,112.845397 C219.407892,118.49804 215.45159,123.003582 210.031286,123.003582 C207.656906,123.003582 205.797174,122.016216 204.413118,120.553637 L204.413118,129.406982 C204.413118,129.762393 204.17528,130 203.819523,130 L199.784275,130 C199.427518,130 199.19068,129.762393 199.19068,129.406982 L199.19068,103.714513 C199.19068,103.359101 199.427518,103.122493 199.784275,103.122493 L203.423793,103.122493 C203.77955,103.122493 203.977415,103.359101 204.017388,103.714513 L204.136307,105.533501 C205.600308,103.87325 207.57796,102.687213 210.031286,102.687213 C215.45159,102.687213 219.407892,107.193753 219.407892,112.845397" id="Fill-23" fill="#000000"></path>
        <path d="M240.139453,112.845597 C240.139453,109.722767 237.883991,107.509431 235.11488,107.509431 C232.305796,107.509431 230.090306,109.722767 230.090306,112.845597 C230.090306,115.968428 232.305796,118.181764 235.11488,118.181764 C237.883991,118.181764 240.139453,115.968428 240.139453,112.845597 M225.064734,112.845597 C225.064734,107.154019 229.536684,102.687413 235.11488,102.687413 C240.693076,102.687413 245.164026,107.154019 245.164026,112.845597 C245.164026,118.537175 240.693076,123.003781 235.11488,123.003781 C229.536684,123.003781 225.064734,118.537175 225.064734,112.845597" id="Fill-25" fill="#000000"></path>
        <path d="M252.205025,93.6357967 L256.241272,93.6357967 C256.597029,93.6357967 256.833868,93.8724051 256.833868,94.2288151 L256.833868,121.898012 C256.833868,122.253424 256.597029,122.490032 256.241272,122.490032 L252.205025,122.490032 C251.849267,122.490032 251.611429,122.253424 251.611429,121.898012 L251.611429,94.2288151 C251.611429,93.8724051 251.849267,93.6357967 252.205025,93.6357967" id="Fill-27" fill="#000000"></path>
        <path d="M264.588079,103.122193 L268.623328,103.122193 C268.980084,103.122193 269.216923,103.358801 269.216923,103.715211 L269.216923,121.897113 C269.216923,122.253523 268.980084,122.490132 268.623328,122.490132 L264.588079,122.490132 C264.232322,122.490132 263.994484,122.253523 263.994484,121.897113 L263.994484,103.715211 C263.994484,103.358801 264.232322,103.122193 264.588079,103.122193 M263.717673,96.5610543 C263.717673,94.9796721 264.98381,93.6758305 266.605704,93.6758305 C268.188624,93.6758305 269.45476,94.9796721 269.45476,96.5610543 C269.45476,98.1414382 268.188624,99.4462782 266.605704,99.4462782 C264.98381,99.4462782 263.717673,98.1414382 263.717673,96.5610543" id="Fill-29" fill="#000000"></path>
        <path d="M287.456184,103.714812 L287.456184,106.797709 C287.456184,107.154119 287.218346,107.390727 286.862589,107.390727 L284.093477,107.390727 L284.093477,121.897712 C284.093477,122.253124 283.855639,122.489732 283.499882,122.489732 L279.463635,122.489732 C279.107877,122.489732 278.870039,122.253124 278.870039,121.897712 L278.870039,107.390727 L276.100928,107.390727 C275.745171,107.390727 275.507333,107.154119 275.507333,106.797709 L275.507333,103.714812 C275.507333,103.3594 275.745171,103.121794 276.100928,103.121794 L278.870039,103.121794 L278.870039,97.7856272 C278.870039,97.4302155 279.107877,97.1936072 279.463635,97.1936072 L283.499882,97.1936072 C283.855639,97.1936072 284.093477,97.4302155 284.093477,97.7856272 L284.093477,103.121794 L286.862589,103.121794 C287.218346,103.121794 287.456184,103.3594 287.456184,103.714812" id="Fill-31" fill="#000000"></path>
        <path d="M307.673296,112.806462 C307.673296,109.881304 305.576726,107.430361 302.727669,107.430361 C299.839638,107.430361 297.742069,109.723565 297.742069,112.806462 C297.742069,115.929292 299.839638,118.260433 302.727669,118.260433 C305.576726,118.260433 307.673296,115.730621 307.673296,112.806462 M312.935707,103.714513 L312.935707,121.897413 C312.935707,122.252825 312.697869,122.490431 312.342112,122.490431 L308.701595,122.490431 C308.345837,122.490431 308.147972,122.252825 308.108,121.897413 L307.950107,120.237161 C306.566051,121.857479 304.626374,123.003582 302.0951,123.003582 C296.674797,123.003582 292.717496,118.49804 292.717496,112.845397 C292.717496,107.193753 296.674797,102.687213 302.0951,102.687213 C304.547428,102.687213 306.526078,103.87325 307.99008,105.533501 L308.108,103.714513 C308.147972,103.359101 308.345837,103.122493 308.701595,103.122493 L312.342112,103.122493 C312.697869,103.122493 312.935707,103.359101 312.935707,103.714513" id="Fill-33" fill="#000000"></path>
        <path d="M338.334985,110.869468 L338.334985,121.897213 C338.334985,122.252625 338.098147,122.490232 337.74139,122.490232 L333.706142,122.490232 C333.350385,122.490232 333.112547,122.252625 333.112547,121.897213 L333.112547,111.817898 C333.112547,108.616198 331.371734,107.509031 329.47203,107.509031 C326.545026,107.509031 325.198944,110.395253 325.198944,111.303749 L325.198944,121.897213 C325.198944,122.252625 324.962105,122.490232 324.606348,122.490232 L320.570101,122.490232 C320.214343,122.490232 319.976505,122.252625 319.976505,121.897213 L319.976505,103.714313 C319.976505,103.358901 320.214343,103.122293 320.570101,103.122293 L324.447456,103.122293 C324.804213,103.122293 325.001079,103.358901 325.041051,103.714313 L325.198944,106.244125 L325.198944,106.284059 C326.46508,104.228462 328.522677,102.688012 331.331761,102.688012 C335.288063,102.688012 338.334985,105.691041 338.334985,110.869468" id="Fill-35" fill="#000000"></path>
        <path d="M359.738089,112.806462 C359.738089,109.881304 357.641518,107.430361 354.792461,107.430361 C351.904431,107.430361 349.806862,109.723565 349.806862,112.806462 C349.806862,115.929292 351.904431,118.260433 354.792461,118.260433 C357.641518,118.260433 359.738089,115.730621 359.738089,112.806462 M365.0005,103.714513 L365.0005,121.897413 C365.0005,122.252825 364.762662,122.490431 364.406904,122.490431 L360.766387,122.490431 C360.41063,122.490431 360.212765,122.252825 360.172792,121.897413 L360.0149,120.237161 C358.629844,121.857479 356.691167,123.003582 354.159893,123.003582 C348.739589,123.003582 344.782288,118.49804 344.782288,112.845397 C344.782288,107.193753 348.739589,102.687213 354.159893,102.687213 C356.61222,102.687213 358.590871,103.87325 360.054873,105.533501 L360.172792,103.714513 C360.212765,103.359101 360.41063,103.122493 360.766387,103.122493 L364.406904,103.122493 C364.762662,103.122493 365.0005,103.359101 365.0005,103.714513" id="Fill-37" fill="#000000"></path>
        <path d="M199.496871,33.262937 C198.878293,28.6565624 197.409294,24.1749811 195.184812,20.0947355 C190.78781,12.0270905 183.496783,5.66961461 174.887654,2.43796423 C170.586587,0.822638217 165.999715,0 161.404849,0 C150.708144,0 140.342213,4.57342922 133.107148,12.4404063 C121.128317,-0.672886115 101.07999,-3.75678108 85.6944824,5.13250373 C81.6772221,7.45366132 78.0886694,10.5036125 75.1466758,14.0876795 C67.8336632,6.09391223 57.6206283,1.01731595 46.8050044,0.141765324 C37.2565164,-0.631953873 27.5891094,1.82497896 19.5825697,7.08027941 C11.9147991,12.1139468 5.93187932,19.5676081 2.71707177,28.1563903 C-0.624649221,37.0856091 -0.891467255,47.0690826 1.95858905,56.167022 C4.69172509,64.8895828 10.238942,72.6267748 17.5889294,78.0617777 C25.2137294,83.7004436 34.6033258,86.6954856 44.0868582,86.5257666 C47.4045955,86.4668641 50.7772954,86.1214359 53.9951009,85.3097795 C54.9724344,85.0621894 55.9077965,84.7686752 56.7901947,84.3863082 C55.6229907,84.8565298 54.3488596,85.1180968 53.0137701,85.1180968 C47.4325764,85.1180968 42.9076624,80.59758 42.9076624,75.02181 C42.9076624,70.0140997 46.5591721,65.8589781 51.3469069,65.0652919 C50.0867663,65.2330143 48.8376182,65.5405053 47.4995308,65.7851004 C42.48595,66.6995865 37.2275361,66.1524922 32.7006234,63.812366 C24.2663755,59.4515848 19.2527946,50.1290172 20.3030784,40.6946347 C21.3413703,31.3640804 28.2196794,23.3792983 37.2904932,20.9393373 C42.2780917,19.5975585 47.6744115,19.9759321 52.4061845,22.056488 C57.4697312,24.2828026 61.698847,28.4938317 64.5119286,33.2100246 C65.2174474,34.3930662 65.8240337,35.6350104 66.3176971,36.9208817 C66.8063638,38.1957713 67.0961662,39.5305617 67.7587143,40.7335703 C69.0888072,43.1445791 71.4012302,44.9475944 74.0694105,45.6394492 C79.3418148,47.0051883 84.5642532,43.8853529 86.1861471,38.8017681 C86.6338417,37.3990901 86.6918022,35.9704551 86.9925971,34.5378266 C87.5182386,32.0359682 88.5835121,29.6569064 90.0984789,27.5963175 C93.0814446,23.5390338 97.7242782,20.8474894 102.728865,20.2704446 C112.329318,19.1632774 121.325183,26.0538708 122.794181,35.5950765 C123.180917,38.1009283 123.560658,40.3272429 125.2585,42.3478979 C127.045282,44.4743778 129.684482,45.7892013 132.460589,45.9309666 C135.292657,46.0747286 138.098743,45.0035019 140.106374,43.0008171 C141.965107,41.1448894 142.775554,38.8436987 143.076349,36.294918 C144.21757,26.6039602 153.284387,19.3889039 162.97178,20.2145372 C172.570234,21.033182 179.846272,29.5460899 179.464533,39.1521881 C179.420563,40.2663437 179.363601,41.3136101 179.393581,42.3419079 C179.405573,36.7441743 183.951473,32.2096806 189.557649,32.2096806 C195.17182,32.2096806 199.721717,36.7561544 199.721717,42.3638715 C199.721717,42.3788467 199.720718,42.3928236 199.720718,42.4068004 C199.754695,41.9984764 199.779678,41.5861589 199.796666,41.1698481 C199.900595,38.531216 199.848631,35.8826005 199.496871,33.262937" id="Fill-42" fill="#FFDD00"></path>
        <path d="M199.722117,42.3638715 C199.722117,47.9725869 195.171221,52.5190608 189.558049,52.5190608 C183.943878,52.5190608 179.392981,47.9725869 179.392981,42.3638715 C179.392981,36.7561544 183.943878,32.2096806 189.558049,32.2096806 C195.171221,32.2096806 199.722117,36.7561544 199.722117,42.3638715" id="Fill-44" fill="#000000"></path>
        <path d="M63.1193783,75.02181 C63.1193783,80.59758 58.5954635,85.1180968 53.0132705,85.1180968 C47.4320768,85.1180968 42.908162,80.59758 42.908162,75.02181 C42.908162,69.4460401 47.4320768,64.9255233 53.0132705,64.9255233 C58.5954635,64.9255233 63.1193783,69.4460401 63.1193783,75.02181" id="Fill-46" fill="#000000"></path>
    </g>
</svg>